STARTFONT 2.1
FONT -Adobe-Times-Bold-R-Normal--20-140-100-100-P-100-ISO10646-1
SIZE 14 100 100
FONTBOUNDINGBOX 22 28 -2 -7
COMMENT ISO10646-1 extension by Markus Kuhn <mkuhn@acm.org>, 2001-03-20
COMMENT 
COMMENT +
COMMENT  Copyright 1984-1989, 1994 Adobe Systems Incorporated.
COMMENT  Copyright 1988, 1994 Digital Equipment Corporation.
COMMENT
COMMENT  Adobe is a trademark of Adobe Systems Incorporated which may be
COMMENT  registered in certain jurisdictions.
COMMENT  Permission to use these trademarks is hereby granted only in
COMMENT  association with the images described in this file.
COMMENT
COMMENT  Permission to use, copy, modify, distribute and sell this software
COMMENT  and its documentation for any purpose and without fee is hereby
COMMENT  granted, provided that the above copyright notices appear in all
COMMENT  copies and that both those copyright notices and this permission
COMMENT  notice appear in supporting documentation, and that the names of
COMMENT  Adobe Systems and Digital Equipment Corporation not be used in
COMMENT  advertising or publicity pertaining to distribution of the software
COMMENT  without specific, written prior permission.  Adobe Systems and
COMMENT  Digital Equipment Corporation make no representations about the
COMMENT  suitability of this software for any purpose.  It is provided "as
COMMENT  is" without express or implied warranty.
COMMENT -
STARTPROPERTIES 26
FOUNDRY "Adobe"
FAMILY_NAME "Times"
WEIGHT_NAME "Bold"
SLANT "R"
SETWIDTH_NAME "Normal"
ADD_STYLE_NAME ""
PIXEL_SIZE 20
POINT_SIZE 140
RESOLUTION_X 100
RESOLUTION_Y 100
SPACING "P"
AVERAGE_WIDTH 100
CHARSET_REGISTRY "ISO10646"
CHARSET_ENCODING "1"
CAP_HEIGHT 13
X_HEIGHT 9
FONT_ASCENT 15
FONT_DESCENT 4
FACE_NAME "Times Bold"
COPYRIGHT "Copyright (c) 1984, 1987 Adobe Systems Incorporated. All Rights Reserved. Copyright (c) 1988, 1991 Digital Equipment Corporation. All Rights Reserved."
NOTICE "Times is a trademark of Linotype-Hell AG and/or its subsidiaries."

STARTCHAR char0
ENCODING 0
SWIDTH 778 0
DWIDTH 15 0
BBX 13 13 1 0
BITMAP
AAA8
0000
8008
0000
8008
0000
8008
0000
8008
0000
8008
0000
AAA8
ENDCHAR
STARTCHAR space
ENCODING 32
SWIDTH 250 0
DWIDTH 5 0
BBX 1 1 0 0
BITMAP
00
ENDCHAR
STARTCHAR exclam
ENCODING 33
SWIDTH 333 0
DWIDTH 6 0
BBX 3 13 1 0
BITMAP
40
E0
E0
E0
E0
E0
E0
40
40
00
E0
E0
E0
ENDCHAR
STARTCHAR quotedbl
ENCODING 34
SWIDTH 555 0
DWIDTH 10 0
BBX 6 6 2 7
BITMAP
CC
CC
CC
CC
88
88
ENDCHAR
STARTCHAR numbersign
ENCODING 35
SWIDTH 500 0
DWIDTH 9 0
BBX 10 12 0 0
BITMAP
1980
1980
1980
7FC0
7FC0
3300
3300
FF80
FF80
6600
6600
6600
ENDCHAR
STARTCHAR dollar
ENCODING 36
SWIDTH 500 0
DWIDTH 9 0
BBX 8 16 0 -2
BITMAP
18
7E
DB
DB
D8
F8
7C
3E
1F
1F
1B
DB
DB
7E
18
18
ENDCHAR
STARTCHAR percent
ENCODING 37
SWIDTH 1000 0
DWIDTH 18 0
BBX 14 13 1 0
BITMAP
3C18
77F0
E260
E240
E4C0
FD80
7378
06EC
06C4
0DC4
19C8
31F8
30E0
ENDCHAR
STARTCHAR ampersand
ENCODING 38
SWIDTH 833 0
DWIDTH 16 0
BBX 13 13 2 0
BITMAP
1E00
3300
3300
3300
3A00
1CF0
3C60
5E40
CF80
C780
E3C0
FFF8
78F0
ENDCHAR
STARTCHAR quotesingle
ENCODING 39
SWIDTH 278 0
DWIDTH 5 0
BBX 2 6 1 7
BITMAP
C0
C0
C0
C0
80
80
ENDCHAR
STARTCHAR parenleft
ENCODING 40
SWIDTH 333 0
DWIDTH 6 0
BBX 5 17 1 -4
BITMAP
08
10
30
60
60
E0
C0
C0
C0
C0
C0
E0
60
60
30
10
08
ENDCHAR
STARTCHAR parenright
ENCODING 41
SWIDTH 333 0
DWIDTH 6 0
BBX 5 17 0 -4
BITMAP
80
40
60
30
30
38
18
18
18
18
18
38
30
20
60
40
80
ENDCHAR
STARTCHAR asterisk
ENCODING 42
SWIDTH 500 0
DWIDTH 9 0
BBX 8 9 0 4
BITMAP
18
18
DB
FF
3C
FF
DB
18
18
ENDCHAR
STARTCHAR plus
ENCODING 43
SWIDTH 570 0
DWIDTH 11 0
BBX 10 10 0 0
BITMAP
0C00
0C00
0C00
0C00
FFC0
FFC0
0C00
0C00
0C00
0C00
ENDCHAR
STARTCHAR comma
ENCODING 44
SWIDTH 250 0
DWIDTH 5 0
BBX 4 6 0 -3
BITMAP
70
70
70
30
60
C0
ENDCHAR
STARTCHAR hyphen
ENCODING 45
SWIDTH 333 0
DWIDTH 6 0
BBX 5 3 0 4
BITMAP
F8
F8
F8
ENDCHAR
STARTCHAR period
ENCODING 46
SWIDTH 250 0
DWIDTH 5 0
BBX 3 3 1 0
BITMAP
E0
E0
E0
ENDCHAR
STARTCHAR slash
ENCODING 47
SWIDTH 278 0
DWIDTH 6 0
BBX 5 13 0 0
BITMAP
18
18
18
30
30
30
20
60
60
60
C0
C0
C0
ENDCHAR
STARTCHAR zero
ENCODING 48
SWIDTH 500 0
DWIDTH 9 0
BBX 8 13 0 0
BITMAP
3C
66
67
E7
E7
E7
E7
E7
E7
E7
66
66
3C
ENDCHAR
STARTCHAR one
ENCODING 49
SWIDTH 500 0
DWIDTH 9 0
BBX 8 13 0 0
BITMAP
1C
3C
FC
1C
1C
1C
1C
1C
1C
1C
1C
1C
7F
ENDCHAR
STARTCHAR two
ENCODING 50
SWIDTH 500 0
DWIDTH 9 0
BBX 8 13 0 0
BITMAP
3C
7E
CF
87
07
07
06
0C
18
31
63
FF
FF
ENDCHAR
STARTCHAR three
ENCODING 51
SWIDTH 500 0
DWIDTH 9 0
BBX 9 13 0 0
BITMAP
3C00
7E00
8F00
0700
0E00
1C00
3E00
0F00
0780
0380
C300
E600
7C00
ENDCHAR
STARTCHAR four
ENCODING 52
SWIDTH 500 0
DWIDTH 9 0
BBX 8 13 0 0
BITMAP
0E
1E
1E
2E
2E
4E
CE
8E
FF
FF
0E
0E
0E
ENDCHAR
STARTCHAR five
ENCODING 53
SWIDTH 500 0
DWIDTH 9 0
BBX 9 13 0 0
BITMAP
3F00
3F00
3E00
4000
7800
7E00
3F00
0780
0380
0380
C300
E600
FC00
ENDCHAR
STARTCHAR six
ENCODING 54
SWIDTH 500 0
DWIDTH 9 0
BBX 8 13 0 0
BITMAP
07
1C
38
70
60
FC
E6
E7
E7
E7
E7
66
3C
ENDCHAR
STARTCHAR seven
ENCODING 55
SWIDTH 500 0
DWIDTH 9 0
BBX 8 13 0 0
BITMAP
FF
FF
FE
86
0C
0C
0C
18
18
38
30
30
70
ENDCHAR
STARTCHAR eight
ENCODING 56
SWIDTH 500 0
DWIDTH 9 0
BBX 8 13 0 0
BITMAP
3C
66
E3
E3
F6
7C
3C
7E
CF
C7
C3
E7
7E
ENDCHAR
STARTCHAR nine
ENCODING 57
SWIDTH 500 0
DWIDTH 9 0
BBX 8 13 0 0
BITMAP
3C
66
E7
E7
E7
E7
67
3F
07
06
0E
3C
F0
ENDCHAR
STARTCHAR colon
ENCODING 58
SWIDTH 333 0
DWIDTH 5 0
BBX 3 9 1 0
BITMAP
E0
E0
E0
00
00
00
E0
E0
E0
ENDCHAR
STARTCHAR semicolon
ENCODING 59
SWIDTH 333 0
DWIDTH 5 0
BBX 4 12 0 -3
BITMAP
70
70
70
00
00
00
70
70
70
30
60
C0
ENDCHAR
STARTCHAR less
ENCODING 60
SWIDTH 570 0
DWIDTH 11 0
BBX 9 9 1 0
BITMAP
0380
0F00
3C00
F000
C000
F000
3C00
0F00
0380
ENDCHAR
STARTCHAR equal
ENCODING 61
SWIDTH 570 0
DWIDTH 11 0
BBX 9 6 1 2
BITMAP
FF80
FF80
0000
0000
FF80
FF80
ENDCHAR
STARTCHAR greater
ENCODING 62
SWIDTH 570 0
DWIDTH 11 0
BBX 9 9 1 0
BITMAP
E000
7800
1E00
0780
0180
0780
1E00
7800
E000
ENDCHAR
STARTCHAR question
ENCODING 63
SWIDTH 500 0
DWIDTH 9 0
BBX 7 13 1 0
BITMAP
7C
CE
EE
EE
4E
0C
18
10
10
00
38
38
38
ENDCHAR
STARTCHAR at
ENCODING 64
SWIDTH 930 0
DWIDTH 17 0
BBX 15 16 1 -3
BITMAP
03E0
0F38
380C
3004
73B6
6776
E776
EE66
EE66
EEEC
EFFC
67B8
7000
3800
1E00
07F0
ENDCHAR
STARTCHAR A
ENCODING 65
SWIDTH 722 0
DWIDTH 14 0
BBX 14 13 0 0
BITMAP
0300
0380
0780
05C0
0DC0
08C0
18E0
1060
1FF0
3070
2038
6038
F8FC
ENDCHAR
STARTCHAR B
ENCODING 66
SWIDTH 667 0
DWIDTH 13 0
BBX 10 13 1 0
BITMAP
FE00
7380
71C0
71C0
71C0
7380
7E00
7380
71C0
71C0
71C0
7380
FF00
ENDCHAR
STARTCHAR C
ENCODING 67
SWIDTH 722 0
DWIDTH 14 0
BBX 12 13 1 0
BITMAP
0F90
38F0
7070
7030
E000
E000
E000
E000
E000
7000
7030
3CE0
0F80
ENDCHAR
STARTCHAR D
ENCODING 68
SWIDTH 722 0
DWIDTH 14 0
BBX 12 13 1 0
BITMAP
FF00
71C0
70E0
7060
7070
7070
7070
7070
7070
7060
70E0
71C0
FF00
ENDCHAR
STARTCHAR E
ENCODING 69
SWIDTH 667 0
DWIDTH 13 0
BBX 10 13 2 0
BITMAP
FFC0
70C0
7040
7000
7000
7100
7F00
7100
7000
7000
7040
70C0
FFC0
ENDCHAR
STARTCHAR F
ENCODING 70
SWIDTH 611 0
DWIDTH 12 0
BBX 10 13 2 0
BITMAP
FFC0
70C0
7040
7000
7000
7100
7F00
7100
7000
7000
7000
7000
F800
ENDCHAR
STARTCHAR G
ENCODING 71
SWIDTH 778 0
DWIDTH 15 0
BBX 13 13 1 0
BITMAP
0F90
38F0
7070
7030
E000
E000
E0F8
E070
E070
7070
7070
38F0
0FC0
ENDCHAR
STARTCHAR H
ENCODING 72
SWIDTH 778 0
DWIDTH 15 0
BBX 13 13 1 0
BITMAP
F8F8
7070
7070
7070
7070
7070
7FF0
7070
7070
7070
7070
7070
F9F8
ENDCHAR
STARTCHAR I
ENCODING 73
SWIDTH 389 0
DWIDTH 7 0
BBX 5 13 1 0
BITMAP
F8
70
70
70
70
70
70
70
70
70
70
70
F8
ENDCHAR
STARTCHAR J
ENCODING 74
SWIDTH 500 0
DWIDTH 9 0
BBX 8 15 0 -2
BITMAP
1F
0E
0E
0E
0E
0E
0E
0E
0E
0E
0E
0E
EE
EC
78
ENDCHAR
STARTCHAR K
ENCODING 75
SWIDTH 778 0
DWIDTH 15 0
BBX 12 13 2 0
BITMAP
F9F0
70C0
7180
7300
7600
7C00
7C00
7E00
7700
7780
73C0
71E0
F8F0
ENDCHAR
STARTCHAR L
ENCODING 76
SWIDTH 667 0
DWIDTH 13 0
BBX 10 13 2 0
BITMAP
F800
7000
7000
7000
7000
7000
7000
7000
7000
7000
7040
70C0
FFC0
ENDCHAR
STARTCHAR M
ENCODING 77
SWIDTH 944 0
DWIDTH 18 0
BBX 15 13 2 0
BITMAP
F01E
701C
783C
783C
7C5C
5C5C
5EDC
4E9C
4F9C
471C
471C
431C
E23E
ENDCHAR
STARTCHAR N
ENCODING 78
SWIDTH 722 0
DWIDTH 14 0
BBX 12 13 1 0
BITMAP
F070
7820
7820
7C20
5E20
4E20
4F20
47A0
43A0
43E0
41E0
40E0
E0E0
ENDCHAR
STARTCHAR O
ENCODING 79
SWIDTH 778 0
DWIDTH 15 0
BBX 13 13 1 0
BITMAP
0F80
38E0
7070
7070
E038
E038
E038
E038
E038
7070
7070
38E0
0F80
ENDCHAR
STARTCHAR P
ENCODING 80
SWIDTH 611 0
DWIDTH 12 0
BBX 10 13 1 0
BITMAP
FF00
7380
71C0
71C0
71C0
7380
7F00
7000
7000
7000
7000
7000
F800
ENDCHAR
STARTCHAR Q
ENCODING 81
SWIDTH 778 0
DWIDTH 15 0
BBX 13 17 1 -4
BITMAP
0F80
38E0
7070
7070
E038
E038
E038
E038
E038
7070
7070
38E0
0F80
0F00
0780
03E0
00F8
ENDCHAR
STARTCHAR R
ENCODING 82
SWIDTH 722 0
DWIDTH 14 0
BBX 12 13 1 0
BITMAP
FF00
7380
71C0
71C0
71C0
7380
7F00
7700
7380
71C0
71C0
70E0
F8F0
ENDCHAR
STARTCHAR S
ENCODING 83
SWIDTH 556 0
DWIDTH 11 0
BBX 9 13 1 0
BITMAP
1E80
6380
E180
E000
F800
7C00
3F00
0F80
0780
0380
C380
E700
BC00
ENDCHAR
STARTCHAR T
ENCODING 84
SWIDTH 667 0
DWIDTH 13 0
BBX 11 13 1 0
BITMAP
FFE0
CE60
8E20
0E00
0E00
0E00
0E00
0E00
0E00
0E00
0E00
0E00
1F00
ENDCHAR
STARTCHAR U
ENCODING 85
SWIDTH 722 0
DWIDTH 14 0
BBX 12 13 1 0
BITMAP
F8F0
7020
7020
7020
7020
7020
7020
7020
7020
7020
7060
38C0
1F80
ENDCHAR
STARTCHAR V
ENCODING 86
SWIDTH 722 0
DWIDTH 14 0
BBX 14 13 0 0
BITMAP
FC7C
7818
3810
3C30
1C20
1E60
1E40
0EC0
0F80
0780
0700
0300
0200
ENDCHAR
STARTCHAR W
ENCODING 87
SWIDTH 1000 0
DWIDTH 19 0
BBX 18 13 1 0
BITMAP
FDF7C0
79E180
38E100
3CE300
3CE200
1C7200
1E7600
0E7400
0EBC00
0F3C00
073C00
061800
061800
ENDCHAR
STARTCHAR X
ENCODING 88
SWIDTH 722 0
DWIDTH 14 0
BBX 14 13 0 0
BITMAP
F878
7830
3C60
1CC0
0F80
0700
0780
07C0
0DC0
18E0
3070
6078
F0FC
ENDCHAR
STARTCHAR Y
ENCODING 89
SWIDTH 722 0
DWIDTH 14 0
BBX 13 13 1 0
BITMAP
FC78
7830
3860
3C40
1EC0
0E80
0F80
0700
0700
0700
0700
0700
1FC0
ENDCHAR
STARTCHAR Z
ENCODING 90
SWIDTH 667 0
DWIDTH 13 0
BBX 10 13 2 0
BITMAP
FFC0
C3C0
8380
0780
0F00
0E00
1E00
3C00
3800
7800
F040
E0C0
FFC0
ENDCHAR
STARTCHAR bracketleft
ENCODING 91
SWIDTH 333 0
DWIDTH 6 0
BBX 4 16 1 -3
BITMAP
F0
C0
C0
C0
C0
C0
C0
C0
C0
C0
C0
C0
C0
C0
C0
F0
ENDCHAR
STARTCHAR backslash
ENCODING 92
SWIDTH 278 0
DWIDTH 5 0
BBX 5 13 0 0
BITMAP
C0
C0
C0
60
60
60
20
30
30
30
18
18
18
ENDCHAR
STARTCHAR bracketright
ENCODING 93
SWIDTH 333 0
DWIDTH 6 0
BBX 4 16 1 -3
BITMAP
F0
30
30
30
30
30
30
30
30
30
30
30
30
30
30
F0
ENDCHAR
STARTCHAR asciicircum
ENCODING 94
SWIDTH 581 0
DWIDTH 11 0
BBX 8 7 1 6
BITMAP
18
18
3C
24
66
C3
C3
ENDCHAR
STARTCHAR underscore
ENCODING 95
SWIDTH 500 0
DWIDTH 9 0
BBX 9 2 0 -4
BITMAP
FF80
FF80
ENDCHAR
STARTCHAR grave
ENCODING 96
SWIDTH 333 0
DWIDTH 6 0
BBX 5 3 0 10
BITMAP
E0
70
18
ENDCHAR
STARTCHAR a
ENCODING 97
SWIDTH 500 0
DWIDTH 9 0
BBX 8 9 0 0
BITMAP
7C
CE
CE
1E
6E
CE
CE
FE
77
ENDCHAR
STARTCHAR b
ENCODING 98
SWIDTH 556 0
DWIDTH 9 0
BBX 9 13 -1 0
BITMAP
F000
7000
7000
7000
7600
7F00
7380
7380
7380
7380
7380
7300
6E00
ENDCHAR
STARTCHAR c
ENCODING 99
SWIDTH 444 0
DWIDTH 8 0
BBX 7 9 0 0
BITMAP
3E
76
E6
E0
E0
E0
E0
76
3C
ENDCHAR
STARTCHAR d
ENCODING 100
SWIDTH 556 0
DWIDTH 10 0
BBX 9 13 0 0
BITMAP
0F00
0700
0700
0700
3700
7F00
E700
E700
E700
E700
E700
7700
3B80
ENDCHAR
STARTCHAR e
ENCODING 101
SWIDTH 444 0
DWIDTH 8 0
BBX 7 9 0 0
BITMAP
3C
76
E6
FE
E0
E0
E0
76
3C
ENDCHAR
STARTCHAR f
ENCODING 102
SWIDTH 333 0
DWIDTH 6 0
BBX 7 13 0 0
BITMAP
3E
76
76
70
FC
70
70
70
70
70
70
70
F8
ENDCHAR
STARTCHAR g
ENCODING 103
SWIDTH 500 0
DWIDTH 9 0
BBX 9 13 0 -4
BITMAP
3F80
E700
E700
E700
E600
7800
6000
FE00
FF80
E380
C180
E300
7E00
ENDCHAR
STARTCHAR h
ENCODING 104
SWIDTH 556 0
DWIDTH 11 0
BBX 10 13 0 0
BITMAP
F000
7000
7000
7000
7700
7F80
7380
7380
7380
7380
7380
7380
FBC0
ENDCHAR
STARTCHAR i
ENCODING 105
SWIDTH 278 0
DWIDTH 5 0
BBX 5 13 0 0
BITMAP
60
60
60
00
F0
70
70
70
70
70
70
70
F8
ENDCHAR
STARTCHAR j
ENCODING 106
SWIDTH 333 0
DWIDTH 5 0
BBX 6 17 -2 -4
BITMAP
18
18
18
00
3C
1C
1C
1C
1C
1C
1C
1C
1C
1C
DC
D8
70
ENDCHAR
STARTCHAR k
ENCODING 107
SWIDTH 556 0
DWIDTH 10 0
BBX 10 13 0 0
BITMAP
F000
7000
7000
7000
7380
7300
7600
7C00
7C00
7E00
7700
7380
F7C0
ENDCHAR
STARTCHAR l
ENCODING 108
SWIDTH 278 0
DWIDTH 6 0
BBX 5 13 0 0
BITMAP
F0
70
70
70
70
70
70
70
70
70
70
70
F8
ENDCHAR
STARTCHAR m
ENCODING 109
SWIDTH 833 0
DWIDTH 16 0
BBX 15 9 0 0
BITMAP
F738
7BDC
739C
739C
739C
739C
739C
739C
FBDE
ENDCHAR
STARTCHAR n
ENCODING 110
SWIDTH 556 0
DWIDTH 11 0
BBX 10 9 0 0
BITMAP
E700
7F80
7380
7380
7380
7380
7380
7380
FBC0
ENDCHAR
STARTCHAR o
ENCODING 111
SWIDTH 500 0
DWIDTH 9 0
BBX 8 9 0 0
BITMAP
3C
66
E7
E7
E7
E7
E7
66
3C
ENDCHAR
STARTCHAR p
ENCODING 112
SWIDTH 556 0
DWIDTH 10 0
BBX 9 13 0 -4
BITMAP
E600
7F00
7380
7380
7380
7380
7380
7B00
7600
7000
7000
7000
F800
ENDCHAR
STARTCHAR q
ENCODING 113
SWIDTH 556 0
DWIDTH 9 0
BBX 9 13 0 -4
BITMAP
3900
7700
E700
E700
E700
E700
E700
7F00
3700
0700
0700
0700
0F80
ENDCHAR
STARTCHAR r
ENCODING 114
SWIDTH 444 0
DWIDTH 8 0
BBX 7 9 0 0
BITMAP
EE
76
70
70
70
70
70
70
F8
ENDCHAR
STARTCHAR s
ENCODING 115
SWIDTH 389 0
DWIDTH 7 0
BBX 6 9 0 0
BITMAP
7C
CC
E4
F0
78
3C
9C
CC
F8
ENDCHAR
STARTCHAR t
ENCODING 116
SWIDTH 333 0
DWIDTH 7 0
BBX 6 11 0 0
BITMAP
10
30
FC
70
70
70
70
70
70
74
38
ENDCHAR
STARTCHAR u
ENCODING 117
SWIDTH 556 0
DWIDTH 11 0
BBX 10 9 0 0
BITMAP
F780
7380
7380
7380
7380
7380
7380
7F80
3DC0
ENDCHAR
STARTCHAR v
ENCODING 118
SWIDTH 500 0
DWIDTH 9 0
BBX 10 9 -1 0
BITMAP
FBC0
7180
7900
3B00
3B00
1E00
1E00
0C00
0C00
ENDCHAR
STARTCHAR w
ENCODING 119
SWIDTH 722 0
DWIDTH 12 0
BBX 14 9 -1 0
BITMAP
F79C
7718
7390
3BB0
39A0
1DE0
1FE0
0CC0
0CC0
ENDCHAR
STARTCHAR x
ENCODING 120
SWIDTH 500 0
DWIDTH 9 0
BBX 9 9 0 0
BITMAP
F380
7300
7A00
3C00
1C00
1E00
3700
6780
E380
ENDCHAR
STARTCHAR y
ENCODING 121
SWIDTH 500 0
DWIDTH 9 0
BBX 10 13 -1 -4
BITMAP
FBC0
7180
7900
3B00
3A00
1E00
1E00
0C00
0C00
0C00
C800
D800
F000
ENDCHAR
STARTCHAR z
ENCODING 122
SWIDTH 444 0
DWIDTH 8 0
BBX 7 9 0 0
BITMAP
FE
CE
8E
1C
38
70
72
E6
FE
ENDCHAR
STARTCHAR braceleft
ENCODING 123
SWIDTH 394 0
DWIDTH 8 0
BBX 7 17 0 -4
BITMAP
1E
38
30
30
30
30
30
60
C0
60
30
30
30
30
30
38
1E
ENDCHAR
STARTCHAR bar
ENCODING 124
SWIDTH 220 0
DWIDTH 4 0
BBX 2 16 1 -3
BITMAP
C0
C0
C0
C0
C0
C0
C0
C0
C0
C0
C0
C0
C0
C0
C0
C0
ENDCHAR
STARTCHAR braceright
ENCODING 125
SWIDTH 394 0
DWIDTH 8 0
BBX 7 17 1 -4
BITMAP
F0
38
18
18
18
18
18
0C
06
0C
18
18
18
18
18
38
F0
ENDCHAR
STARTCHAR asciitilde
ENCODING 126
SWIDTH 520 0
DWIDTH 10 0
BBX 8 4 1 3
BITMAP
70
F9
9F
0E
ENDCHAR
STARTCHAR space
ENCODING 160
SWIDTH 250 0
DWIDTH 5 0
BBX 1 1 0 0
BITMAP
00
ENDCHAR
STARTCHAR exclamdown
ENCODING 161
SWIDTH 333 0
DWIDTH 6 0
BBX 3 13 1 -4
BITMAP
E0
E0
E0
00
40
40
E0
E0
E0
E0
E0
E0
40
ENDCHAR
STARTCHAR cent
ENCODING 162
SWIDTH 500 0
DWIDTH 9 0
BBX 8 13 0 -2
BITMAP
01
03
3E
77
EF
EC
D8
D8
F0
73
3E
60
40
ENDCHAR
STARTCHAR sterling
ENCODING 163
SWIDTH 500 0
DWIDTH 9 0
BBX 14 13 0 0
BITMAP
1F00
3B00
3B00
3800
3800
3800
FE00
3804
3800
3000
F080
BF80
EF00
ENDCHAR
STARTCHAR currency
ENCODING 164
SWIDTH 500 0
DWIDTH 9 0
BBX 8 8 0 2
BITMAP
DB
FF
66
C3
C3
66
FF
DB
ENDCHAR
STARTCHAR yen
ENCODING 165
SWIDTH 500 0
DWIDTH 9 0
BBX 9 13 0 0
BITMAP
FB80
7100
7300
3A00
3A00
1C00
7F00
1C00
7F00
1C00
1C00
1C00
7F00
ENDCHAR
STARTCHAR brokenbar
ENCODING 166
SWIDTH 220 0
DWIDTH 4 0
BBX 2 16 1 -3
BITMAP
C0
C0
C0
C0
C0
C0
00
00
00
00
C0
C0
C0
C0
C0
C0
ENDCHAR
STARTCHAR section
ENCODING 167
SWIDTH 500 0
DWIDTH 9 0
BBX 7 16 1 -3
BITMAP
3C
66
46
60
30
78
DC
CE
E6
76
3C
1C
0C
C4
CC
78
ENDCHAR
STARTCHAR dieresis
ENCODING 168
SWIDTH 333 0
DWIDTH 6 0
BBX 6 2 0 10
BITMAP
CC
CC
ENDCHAR
STARTCHAR copyright
ENCODING 169
SWIDTH 747 0
DWIDTH 15 0
BBX 13 13 1 0
BITMAP
0F80
38E0
6030
4FD0
DCD8
9848
9808
9808
DCD8
4F90
6030
38E0
0F80
ENDCHAR
STARTCHAR ordfeminine
ENCODING 170
SWIDTH 300 0
DWIDTH 6 0
BBX 6 8 0 5
BITMAP
70
D8
38
D8
D8
EC
00
FC
ENDCHAR
STARTCHAR guillemotleft
ENCODING 171
SWIDTH 500 0
DWIDTH 11 0
BBX 9 7 1 1
BITMAP
1980
3300
6600
CC00
6600
3300
1980
ENDCHAR
STARTCHAR logicalnot
ENCODING 172
SWIDTH 570 0
DWIDTH 11 0
BBX 9 6 1 1
BITMAP
FF80
FF80
0180
0180
0180
0180
ENDCHAR
STARTCHAR hyphen
ENCODING 173
SWIDTH 333 0
DWIDTH 6 0
BBX 5 3 0 4
BITMAP
F8
F8
F8
ENDCHAR
STARTCHAR registered
ENCODING 174
SWIDTH 747 0
DWIDTH 15 0
BBX 13 13 1 0
BITMAP
0F80
38E0
6030
5F90
CCD8
8CC8
8F88
8D88
CCD8
5EF0
6030
38E0
0F80
ENDCHAR
STARTCHAR macron
ENCODING 175
SWIDTH 333 0
DWIDTH 6 0
BBX 6 1 0 11
BITMAP
FC
ENDCHAR
STARTCHAR degree
ENCODING 176
SWIDTH 400 0
DWIDTH 7 0
BBX 6 5 0 8
BITMAP
78
CC
CC
CC
78
ENDCHAR
STARTCHAR plusminus
ENCODING 177
SWIDTH 570 0
DWIDTH 11 0
BBX 8 11 1 0
BITMAP
18
18
18
FF
FF
18
18
18
00
FF
FF
ENDCHAR
STARTCHAR twosuperior
ENCODING 178
SWIDTH 300 0
DWIDTH 5 0
BBX 5 8 0 5
BITMAP
70
98
18
30
20
40
F8
F0
ENDCHAR
STARTCHAR threesuperior
ENCODING 179
SWIDTH 300 0
DWIDTH 5 0
BBX 5 8 0 5
BITMAP
70
98
18
70
38
18
98
70
ENDCHAR
STARTCHAR acute
ENCODING 180
SWIDTH 333 0
DWIDTH 6 0
BBX 5 3 0 10
BITMAP
38
70
C0
ENDCHAR
STARTCHAR mu
ENCODING 181
SWIDTH 556 0
DWIDTH 11 0
BBX 10 13 0 -4
BITMAP
F780
7380
7380
7380
7380
7380
7380
7F80
7DC0
6000
E000
F000
6000
ENDCHAR
STARTCHAR paragraph
ENCODING 182
SWIDTH 540 0
DWIDTH 10 0
BBX 9 17 0 -4
BITMAP
3F80
7F80
FB00
FB00
FB00
FB00
7B00
3B00
1B00
1B00
1B00
1B00
1B00
1B00
1B00
1B00
1B00
ENDCHAR
STARTCHAR periodcentered
ENCODING 183
SWIDTH 250 0
DWIDTH 5 0
BBX 3 3 1 4
BITMAP
E0
E0
E0
ENDCHAR
STARTCHAR cedilla
ENCODING 184
SWIDTH 333 0
DWIDTH 6 0
BBX 5 4 1 -4
BITMAP
20
18
98
70
ENDCHAR
STARTCHAR onesuperior
ENCODING 185
SWIDTH 300 0
DWIDTH 5 0
BBX 6 8 0 5
BITMAP
30
F0
30
30
30
30
30
FC
ENDCHAR
STARTCHAR ordmasculine
ENCODING 186
SWIDTH 330 0
DWIDTH 6 0
BBX 6 8 0 5
BITMAP
78
CC
CC
CC
CC
78
00
FC
ENDCHAR
STARTCHAR guillemotright
ENCODING 187
SWIDTH 500 0
DWIDTH 11 0
BBX 9 7 1 1
BITMAP
CC00
6600
3300
1980
3300
6600
CC00
ENDCHAR
STARTCHAR onequarter
ENCODING 188
SWIDTH 750 0
DWIDTH 13 0
BBX 13 13 0 0
BITMAP
3060
F0C0
30C0
3180
3180
3310
3330
FE70
06B0
0DB0
0DF8
1830
1830
ENDCHAR
STARTCHAR onehalf
ENCODING 189
SWIDTH 750 0
DWIDTH 13 0
BBX 13 13 0 0
BITMAP
3060
F0C0
30C0
3180
3180
3370
3398
FE18
0630
0C20
0C40
18F8
18F0
ENDCHAR
STARTCHAR threequarters
ENCODING 190
SWIDTH 750 0
DWIDTH 13 0
BBX 13 13 0 0
BITMAP
7060
98C0
18C0
7180
3980
1B10
9B30
7670
06B0
0DB0
0DF8
1830
1830
ENDCHAR
STARTCHAR questiondown
ENCODING 191
SWIDTH 500 0
DWIDTH 9 0
BBX 7 13 1 -4
BITMAP
38
38
38
00
10
10
30
60
E4
EE
EE
E6
7C
ENDCHAR
STARTCHAR Agrave
ENCODING 192
SWIDTH 722 0
DWIDTH 14 0
BBX 14 17 0 0
BITMAP
0E00
0700
0180
0000
0300
0380
0780
05C0
0DC0
08C0
18E0
1060
1FF0
3070
2038
6038
F8FC
ENDCHAR
STARTCHAR Aacute
ENCODING 193
SWIDTH 722 0
DWIDTH 14 0
BBX 14 17 0 0
BITMAP
0380
0700
0C00
0000
0300
0380
0780
05C0
0DC0
08C0
18E0
1060
1FF0
3070
2038
6038
F8FC
ENDCHAR
STARTCHAR Acircumflex
ENCODING 194
SWIDTH 722 0
DWIDTH 14 0
BBX 14 17 0 0
BITMAP
0300
0780
0CC0
0000
0300
0380
0780
05C0
0DC0
08C0
18E0
1060
1FF0
3070
2038
6038
F8FC
ENDCHAR
STARTCHAR Atilde
ENCODING 195
SWIDTH 722 0
DWIDTH 14 0
BBX 14 17 0 0
BITMAP
0640
0FC0
0980
0000
0300
0380
0780
05C0
0DC0
08C0
18E0
1060
1FF0
3070
2038
6038
F8FC
ENDCHAR
STARTCHAR Adieresis
ENCODING 196
SWIDTH 722 0
DWIDTH 14 0
BBX 14 16 0 0
BITMAP
0CC0
0CC0
0000
0300
0380
0780
05C0
0DC0
08C0
18E0
1060
1FF0
3070
2038
6038
F8FC
ENDCHAR
STARTCHAR Aring
ENCODING 197
SWIDTH 722 0
DWIDTH 14 0
BBX 14 17 0 0
BITMAP
0700
0D80
0D80
0700
0300
0380
0780
05C0
0DC0
08C0
18E0
1060
1FF0
3070
2038
6038
F8FC
ENDCHAR
STARTCHAR AE
ENCODING 198
SWIDTH 1000 0
DWIDTH 19 0
BBX 17 13 0 0
BITMAP
07FF80
03E180
02E080
06E000
04E000
0CE200
08FE00
1FE200
10E000
30E000
20E080
60E180
F9FF80
ENDCHAR
STARTCHAR Ccedilla
ENCODING 199
SWIDTH 722 0
DWIDTH 14 0
BBX 12 17 1 -4
BITMAP
0F90
38F0
7070
7030
E000
E000
E000
E000
E000
7000
7030
3CE0
0F80
0400
0300
1300
0E00
ENDCHAR
STARTCHAR Egrave
ENCODING 200
SWIDTH 667 0
DWIDTH 13 0
BBX 10 17 2 0
BITMAP
3800
1C00
0600
0000
FFC0
70C0
7040
7000
7000
7100
7F00
7100
7000
7000
7040
70C0
FFC0
ENDCHAR
STARTCHAR Eacute
ENCODING 201
SWIDTH 667 0
DWIDTH 13 0
BBX 10 17 2 0
BITMAP
0E00
1C00
3000
0000
FFC0
70C0
7040
7000
7000
7100
7F00
7100
7000
7000
7040
70C0
FFC0
ENDCHAR
STARTCHAR Ecircumflex
ENCODING 202
SWIDTH 667 0
DWIDTH 13 0
BBX 10 17 2 0
BITMAP
0C00
1E00
3300
0000
FFC0
70C0
7040
7000
7000
7100
7F00
7100
7000
7000
7040
70C0
FFC0
ENDCHAR
STARTCHAR Edieresis
ENCODING 203
SWIDTH 667 0
DWIDTH 13 0
BBX 10 16 2 0
BITMAP
3300
3300
0000
FFC0
70C0
7040
7000
7000
7100
7F00
7100
7000
7000
7040
70C0
FFC0
ENDCHAR
STARTCHAR Igrave
ENCODING 204
SWIDTH 389 0
DWIDTH 7 0
BBX 5 17 1 0
BITMAP
E0
70
18
00
F8
70
70
70
70
70
70
70
70
70
70
70
F8
ENDCHAR
STARTCHAR Iacute
ENCODING 205
SWIDTH 389 0
DWIDTH 7 0
BBX 5 17 1 0
BITMAP
38
70
C0
00
F8
70
70
70
70
70
70
70
70
70
70
70
F8
ENDCHAR
STARTCHAR Icircumflex
ENCODING 206
SWIDTH 389 0
DWIDTH 7 0
BBX 6 17 1 0
BITMAP
30
78
CC
00
F8
70
70
70
70
70
70
70
70
70
70
70
F8
ENDCHAR
STARTCHAR Idieresis
ENCODING 207
SWIDTH 389 0
DWIDTH 7 0
BBX 6 16 1 0
BITMAP
CC
CC
00
F8
70
70
70
70
70
70
70
70
70
70
70
F8
ENDCHAR
STARTCHAR Eth
ENCODING 208
SWIDTH 722 0
DWIDTH 14 0
BBX 13 13 0 0
BITMAP
7F80
38E0
3870
3830
3838
3838
FE38
3838
3838
3830
3870
38E0
7F80
ENDCHAR
STARTCHAR Ntilde
ENCODING 209
SWIDTH 722 0
DWIDTH 14 0
BBX 12 17 1 0
BITMAP
0C80
1F80
1300
0000
F070
7820
7820
7C20
5E20
4E20
4F20
47A0
43A0
43E0
41E0
40E0
E0E0
ENDCHAR
STARTCHAR Ograve
ENCODING 210
SWIDTH 778 0
DWIDTH 15 0
BBX 13 17 1 0
BITMAP
0E00
0700
0180
0000
0F80
38E0
7070
7070
E038
E038
E038
E038
E038
7070
7070
38E0
0F80
ENDCHAR
STARTCHAR Oacute
ENCODING 211
SWIDTH 778 0
DWIDTH 15 0
BBX 13 17 1 0
BITMAP
0380
0700
0C00
0000
0F80
38E0
7070
7070
E038
E038
E038
E038
E038
7070
7070
38E0
0F80
ENDCHAR
STARTCHAR Ocircumflex
ENCODING 212
SWIDTH 778 0
DWIDTH 15 0
BBX 13 17 1 0
BITMAP
0600
0F00
1980
0000
0F80
38E0
7070
7070
E038
E038
E038
E038
E038
7070
7070
38E0
0F80
ENDCHAR
STARTCHAR Otilde
ENCODING 213
SWIDTH 778 0
DWIDTH 15 0
BBX 13 17 1 0
BITMAP
0C80
1F80
1300
0000
0F80
38E0
7070
7070
E038
E038
E038
E038
E038
7070
7070
38E0
0F80
ENDCHAR
STARTCHAR Odieresis
ENCODING 214
SWIDTH 778 0
DWIDTH 15 0
BBX 13 16 1 0
BITMAP
1980
1980
0000
0F80
38E0
7070
7070
E038
E038
E038
E038
E038
7070
7070
38E0
0F80
ENDCHAR
STARTCHAR multiply
ENCODING 215
SWIDTH 570 0
DWIDTH 11 0
BBX 9 8 1 1
BITMAP
C180
6300
3600
1C00
1C00
3600
6300
C180
ENDCHAR
STARTCHAR Oslash
ENCODING 216
SWIDTH 778 0
DWIDTH 15 0
BBX 13 15 1 -1
BITMAP
0060
0FC0
38E0
70B0
71B0
E138
E338
E238
E638
E438
6C70
6870
38E0
1F80
3000
ENDCHAR
STARTCHAR Ugrave
ENCODING 217
SWIDTH 722 0
DWIDTH 14 0
BBX 12 17 1 0
BITMAP
1C00
0E00
0300
0000
F8F0
7020
7020
7020
7020
7020
7020
7020
7020
7020
7060
38C0
1F80
ENDCHAR
STARTCHAR Uacute
ENCODING 218
SWIDTH 722 0
DWIDTH 14 0
BBX 12 17 1 0
BITMAP
01C0
0380
0600
0000
F8F0
7020
7020
7020
7020
7020
7020
7020
7020
7020
7060
38C0
1F80
ENDCHAR
STARTCHAR Ucircumflex
ENCODING 219
SWIDTH 722 0
DWIDTH 14 0
BBX 12 17 1 0
BITMAP
0600
0F00
1980
0000
F8F0
7020
7020
7020
7020
7020
7020
7020
7020
7020
7060
38C0
1F80
ENDCHAR
STARTCHAR Udieresis
ENCODING 220
SWIDTH 722 0
DWIDTH 14 0
BBX 12 16 1 0
BITMAP
1980
1980
0000
F8F0
7020
7020
7020
7020
7020
7020
7020
7020
7020
7060
38C0
1F80
ENDCHAR
STARTCHAR Yacute
ENCODING 221
SWIDTH 722 0
DWIDTH 14 0
BBX 13 17 1 0
BITMAP
00E0
01C0
0300
0000
FC78
7830
3860
3C40
1EC0
0E80
0F80
0700
0700
0700
0700
0700
1FC0
ENDCHAR
STARTCHAR Thorn
ENCODING 222
SWIDTH 611 0
DWIDTH 11 0
BBX 10 13 1 0
BITMAP
F800
7000
7000
7F00
7380
71C0
71C0
71C0
7380
7F00
7000
7000
F800
ENDCHAR
STARTCHAR germandbls
ENCODING 223
SWIDTH 556 0
DWIDTH 10 0
BBX 9 13 0 0
BITMAP
1E00
3B00
7380
7380
7380
7700
7200
7300
7380
7380
7380
7380
F700
ENDCHAR
STARTCHAR agrave
ENCODING 224
SWIDTH 500 0
DWIDTH 9 0
BBX 8 13 0 0
BITMAP
70
38
0C
00
7C
CE
CE
1E
6E
CE
CE
FE
77
ENDCHAR
STARTCHAR aacute
ENCODING 225
SWIDTH 500 0
DWIDTH 9 0
BBX 8 13 0 0
BITMAP
0E
1C
30
00
7C
CE
CE
1E
6E
CE
CE
FE
77
ENDCHAR
STARTCHAR acircumflex
ENCODING 226
SWIDTH 500 0
DWIDTH 9 0
BBX 8 13 0 0
BITMAP
18
3C
66
00
7C
CE
CE
1E
6E
CE
CE
FE
77
ENDCHAR
STARTCHAR atilde
ENCODING 227
SWIDTH 500 0
DWIDTH 9 0
BBX 8 13 0 0
BITMAP
32
7E
4C
00
7C
CE
CE
1E
6E
CE
CE
FE
77
ENDCHAR
STARTCHAR adieresis
ENCODING 228
SWIDTH 500 0
DWIDTH 9 0
BBX 8 12 0 0
BITMAP
66
66
00
7C
CE
CE
1E
6E
CE
CE
FE
77
ENDCHAR
STARTCHAR aring
ENCODING 229
SWIDTH 500 0
DWIDTH 9 0
BBX 8 13 0 0
BITMAP
38
6C
6C
38
7C
CE
CE
1E
6E
CE
CE
FE
77
ENDCHAR
STARTCHAR ae
ENCODING 230
SWIDTH 722 0
DWIDTH 13 0
BBX 12 9 0 0
BITMAP
7DE0
E7B0
C730
0FF0
7F00
E700
C700
EFB0
79E0
ENDCHAR
STARTCHAR ccedilla
ENCODING 231
SWIDTH 444 0
DWIDTH 8 0
BBX 7 13 0 -4
BITMAP
3E
76
E6
E0
E0
E0
E0
76
3C
10
0C
4C
38
ENDCHAR
STARTCHAR egrave
ENCODING 232
SWIDTH 444 0
DWIDTH 8 0
BBX 7 13 0 0
BITMAP
70
38
0C
00
3C
76
E6
FE
E0
E0
E0
76
3C
ENDCHAR
STARTCHAR eacute
ENCODING 233
SWIDTH 444 0
DWIDTH 8 0
BBX 8 13 0 0
BITMAP
07
0E
18
00
3C
76
E6
FE
E0
E0
E0
76
3C
ENDCHAR
STARTCHAR ecircumflex
ENCODING 234
SWIDTH 444 0
DWIDTH 8 0
BBX 7 13 0 0
BITMAP
18
3C
66
00
3C
76
E6
FE
E0
E0
E0
76
3C
ENDCHAR
STARTCHAR edieresis
ENCODING 235
SWIDTH 444 0
DWIDTH 8 0
BBX 7 12 0 0
BITMAP
66
66
00
3C
76
E6
FE
E0
E0
E0
76
3C
ENDCHAR
STARTCHAR igrave
ENCODING 236
SWIDTH 278 0
DWIDTH 5 0
BBX 5 13 0 0
BITMAP
E0
70
18
00
F0
70
70
70
70
70
70
70
F8
ENDCHAR
STARTCHAR iacute
ENCODING 237
SWIDTH 278 0
DWIDTH 5 0
BBX 5 13 0 0
BITMAP
38
70
C0
00
F0
70
70
70
70
70
70
70
F8
ENDCHAR
STARTCHAR icircumflex
ENCODING 238
SWIDTH 278 0
DWIDTH 5 0
BBX 6 13 0 0
BITMAP
30
78
CC
00
F0
70
70
70
70
70
70
70
F8
ENDCHAR
STARTCHAR idieresis
ENCODING 239
SWIDTH 278 0
DWIDTH 5 0
BBX 6 12 0 0
BITMAP
CC
CC
00
F0
70
70
70
70
70
70
70
F8
ENDCHAR
STARTCHAR eth
ENCODING 240
SWIDTH 500 0
DWIDTH 9 0
BBX 8 13 0 0
BITMAP
60
36
38
4C
3E
66
E7
E7
E7
E7
E7
66
3C
ENDCHAR
STARTCHAR ntilde
ENCODING 241
SWIDTH 556 0
DWIDTH 11 0
BBX 10 13 0 0
BITMAP
1900
3F00
2600
0000
E700
7F80
7380
7380
7380
7380
7380
7380
FBC0
ENDCHAR
STARTCHAR ograve
ENCODING 242
SWIDTH 500 0
DWIDTH 9 0
BBX 8 13 0 0
BITMAP
70
38
0C
00
3C
66
E7
E7
E7
E7
E7
66
3C
ENDCHAR
STARTCHAR oacute
ENCODING 243
SWIDTH 500 0
DWIDTH 9 0
BBX 8 13 0 0
BITMAP
07
0E
18
00
3C
66
E7
E7
E7
E7
E7
66
3C
ENDCHAR
STARTCHAR ocircumflex
ENCODING 244
SWIDTH 500 0
DWIDTH 9 0
BBX 8 13 0 0
BITMAP
18
3C
66
00
3C
66
E7
E7
E7
E7
E7
66
3C
ENDCHAR
STARTCHAR otilde
ENCODING 245
SWIDTH 500 0
DWIDTH 9 0
BBX 8 13 0 0
BITMAP
32
7E
4C
00
3C
66
E7
E7
E7
E7
E7
66
3C
ENDCHAR
STARTCHAR odieresis
ENCODING 246
SWIDTH 500 0
DWIDTH 9 0
BBX 8 12 0 0
BITMAP
66
66
00
3C
66
E7
E7
E7
E7
E7
66
3C
ENDCHAR
STARTCHAR divide
ENCODING 247
SWIDTH 570 0
DWIDTH 11 0
BBX 8 8 1 1
BITMAP
18
18
00
FF
FF
00
18
18
ENDCHAR
STARTCHAR oslash
ENCODING 248
SWIDTH 500 0
DWIDTH 9 0
BBX 10 11 -1 -1
BITMAP
0040
1E80
3300
7380
7380
7780
7B80
7180
3300
5E00
8000
ENDCHAR
STARTCHAR ugrave
ENCODING 249
SWIDTH 556 0
DWIDTH 11 0
BBX 10 13 0 0
BITMAP
3800
1C00
0600
0000
F780
7380
7380
7380
7380
7380
7380
7F80
3DC0
ENDCHAR
STARTCHAR uacute
ENCODING 250
SWIDTH 556 0
DWIDTH 11 0
BBX 10 13 0 0
BITMAP
0E00
1C00
3000
0000
F780
7380
7380
7380
7380
7380
7380
7F80
3DC0
ENDCHAR
STARTCHAR ucircumflex
ENCODING 251
SWIDTH 556 0
DWIDTH 11 0
BBX 10 13 0 0
BITMAP
0C00
1E00
3300
0000
F780
7380
7380
7380
7380
7380
7380
7F80
3DC0
ENDCHAR
STARTCHAR udieresis
ENCODING 252
SWIDTH 556 0
DWIDTH 11 0
BBX 10 12 0 0
BITMAP
3300
3300
0000
F780
7380
7380
7380
7380
7380
7380
7F80
3DC0
ENDCHAR
STARTCHAR yacute
ENCODING 253
SWIDTH 500 0
DWIDTH 9 0
BBX 10 17 -1 -4
BITMAP
0380
0700
0C00
0000
FBC0
7180
7900
3B00
3A00
1E00
1E00
0C00
0C00
0C00
0800
D800
F000
ENDCHAR
STARTCHAR thorn
ENCODING 254
SWIDTH 556 0
DWIDTH 10 0
BBX 9 17 0 -4
BITMAP
F000
7000
7000
7000
7600
7F00
7380
7380
7380
7380
7380
7B00
7600
7000
7000
7000
F800
ENDCHAR
STARTCHAR ydieresis
ENCODING 255
SWIDTH 500 0
DWIDTH 9 0
BBX 10 16 -1 -4
BITMAP
3300
3300
0000
FBC0
7180
7900
3B00
3A00
1E00
1E00
0C00
0C00
0C00
0800
D800
F000
ENDCHAR
STARTCHAR Amacron
ENCODING 256
SWIDTH 722 0
DWIDTH 14 0
BBX 14 15 0 0
BITMAP
0FC0
0000
0300
0380
0780
05C0
0DC0
08C0
18E0
1060
1FF0
3070
2038
6038
F8FC
ENDCHAR
STARTCHAR amacron
ENCODING 257
SWIDTH 500 0
DWIDTH 9 0
BBX 8 11 0 0
BITMAP
7E
00
7C
CE
CE
1E
6E
CE
CE
FE
77
ENDCHAR
STARTCHAR Abreve
ENCODING 258
SWIDTH 722 0
DWIDTH 14 0
BBX 14 17 0 0
BITMAP
0440
07C0
0380
0000
0300
0380
0780
05C0
0DC0
08C0
18E0
1060
1FF0
3070
2038
6038
F8FC
ENDCHAR
STARTCHAR abreve
ENCODING 259
SWIDTH 500 0
DWIDTH 9 0
BBX 8 13 0 0
BITMAP
44
7C
38
00
7C
CE
CE
1E
6E
CE
CE
FE
77
ENDCHAR
STARTCHAR Aogonek
ENCODING 260
SWIDTH 722 0
DWIDTH 14 0
BBX 14 17 0 -4
BITMAP
0300
0380
0780
05C0
0DC0
08C0
18E0
1060
1FF0
3070
2038
6038
F8FC
0100
0200
03C0
0180
ENDCHAR
STARTCHAR aogonek
ENCODING 261
SWIDTH 500 0
DWIDTH 9 0
BBX 8 13 0 -4
BITMAP
7C
CE
CE
1E
6E
CE
CE
FE
77
08
10
1E
0C
ENDCHAR
STARTCHAR Cacute
ENCODING 262
SWIDTH 722 0
DWIDTH 14 0
BBX 12 17 1 0
BITMAP
01C0
0380
0600
0000
0F90
38F0
7070
7030
E000
E000
E000
E000
E000
7000
7030
3CE0
0F80
ENDCHAR
STARTCHAR cacute
ENCODING 263
SWIDTH 444 0
DWIDTH 8 0
BBX 7 13 0 0
BITMAP
0E
1C
30
00
3E
76
E6
E0
E0
E0
E0
76
3C
ENDCHAR
STARTCHAR Ccircumflex
ENCODING 264
SWIDTH 722 0
DWIDTH 14 0
BBX 12 17 1 0
BITMAP
0300
0780
0CC0
0000
0F90
38F0
7070
7030
E000
E000
E000
E000
E000
7000
7030
3CE0
0F80
ENDCHAR
STARTCHAR ccircumflex
ENCODING 265
SWIDTH 444 0
DWIDTH 8 0
BBX 7 13 0 0
BITMAP
18
3C
66
00
3E
76
E6
E0
E0
E0
E0
76
3C
ENDCHAR
STARTCHAR Cdotaccent
ENCODING 266
SWIDTH 722 0
DWIDTH 14 0
BBX 12 16 1 0
BITMAP
0300
0300
0000
0F90
38F0
7070
7030
E000
E000
E000
E000
E000
7000
7030
3CE0
0F80
ENDCHAR
STARTCHAR cdotaccent
ENCODING 267
SWIDTH 444 0
DWIDTH 8 0
BBX 7 12 0 0
BITMAP
18
18
00
3E
76
E6
E0
E0
E0
E0
76
3C
ENDCHAR
STARTCHAR Ccaron
ENCODING 268
SWIDTH 722 0
DWIDTH 14 0
BBX 12 17 1 0
BITMAP
0CC0
0780
0300
0000
0F90
38F0
7070
7030
E000
E000
E000
E000
E000
7000
7030
3CE0
0F80
ENDCHAR
STARTCHAR ccaron
ENCODING 269
SWIDTH 444 0
DWIDTH 8 0
BBX 7 13 0 0
BITMAP
66
3C
18
00
3E
76
E6
E0
E0
E0
E0
76
3C
ENDCHAR
STARTCHAR Dcaron
ENCODING 270
SWIDTH 722 0
DWIDTH 14 0
BBX 12 17 1 0
BITMAP
3300
1E00
0C00
0000
FF00
71C0
70E0
7060
7070
7070
7070
7070
7070
7060
70E0
71C0
FF00
ENDCHAR
STARTCHAR dcaron
ENCODING 271
SWIDTH 861 0
DWIDTH 16 0
BBX 15 13 0 0
BITMAP
0F0E
070E
070E
0706
370C
7F18
E700
E700
E700
E700
E700
7700
3B80
ENDCHAR
STARTCHAR Dcroat
ENCODING 272
SWIDTH 722 0
DWIDTH 14 0
BBX 13 13 0 0
BITMAP
7F80
38E0
3870
3830
3838
3838
FE38
3838
3838
3830
3870
38E0
7F80
ENDCHAR
STARTCHAR dcroat
ENCODING 273
SWIDTH 556 0
DWIDTH 10 0
BBX 9 13 0 0
BITMAP
0F00
0700
0F80
0F80
3700
7F00
E700
E700
E700
E700
E700
7700
3B80
ENDCHAR
STARTCHAR Emacron
ENCODING 274
SWIDTH 667 0
DWIDTH 13 0
BBX 10 15 2 0
BITMAP
3F00
0000
FFC0
70C0
7040
7000
7000
7100
7F00
7100
7000
7000
7040
70C0
FFC0
ENDCHAR
STARTCHAR emacron
ENCODING 275
SWIDTH 444 0
DWIDTH 8 0
BBX 7 11 0 0
BITMAP
7E
00
3C
76
E6
FE
E0
E0
E0
76
3C
ENDCHAR
STARTCHAR Ebreve
ENCODING 276
SWIDTH 667 0
DWIDTH 13 0
BBX 10 17 2 0
BITMAP
2200
3E00
1C00
0000
FFC0
70C0
7040
7000
7000
7100
7F00
7100
7000
7000
7040
70C0
FFC0
ENDCHAR
STARTCHAR ebreve
ENCODING 277
SWIDTH 444 0
DWIDTH 8 0
BBX 7 13 0 0
BITMAP
44
7C
38
00
3C
76
E6
FE
E0
E0
E0
76
3C
ENDCHAR
STARTCHAR Edotaccent
ENCODING 278
SWIDTH 667 0
DWIDTH 13 0
BBX 10 16 2 0
BITMAP
0C00
0C00
0000
FFC0
70C0
7040
7000
7000
7100
7F00
7100
7000
7000
7040
70C0
FFC0
ENDCHAR
STARTCHAR edotaccent
ENCODING 279
SWIDTH 444 0
DWIDTH 8 0
BBX 7 12 0 0
BITMAP
18
18
00
3C
76
E6
FE
E0
E0
E0
76
3C
ENDCHAR
STARTCHAR Eogonek
ENCODING 280
SWIDTH 667 0
DWIDTH 13 0
BBX 10 17 2 -4
BITMAP
FFC0
70C0
7040
7000
7000
7100
7F00
7100
7000
7000
7040
70C0
FFC0
0800
1000
1E00
0C00
ENDCHAR
STARTCHAR eogonek
ENCODING 281
SWIDTH 444 0
DWIDTH 8 0
BBX 7 13 0 -4
BITMAP
3C
76
E6
FE
E0
E0
E0
76
3C
10
20
3C
18
ENDCHAR
STARTCHAR Ecaron
ENCODING 282
SWIDTH 667 0
DWIDTH 13 0
BBX 10 17 2 0
BITMAP
3300
1E00
0C00
0000
FFC0
70C0
7040
7000
7000
7100
7F00
7100
7000
7000
7040
70C0
FFC0
ENDCHAR
STARTCHAR ecaron
ENCODING 283
SWIDTH 444 0
DWIDTH 8 0
BBX 7 13 0 0
BITMAP
66
3C
18
00
3C
76
E6
FE
E0
E0
E0
76
3C
ENDCHAR
STARTCHAR Gcircumflex
ENCODING 284
SWIDTH 778 0
DWIDTH 15 0
BBX 13 17 1 0
BITMAP
0300
0780
0CC0
0000
0F90
38F0
7070
7030
E000
E000
E0F8
E070
E070
7070
7070
38F0
0FC0
ENDCHAR
STARTCHAR gcircumflex
ENCODING 285
SWIDTH 500 0
DWIDTH 9 0
BBX 9 17 0 -4
BITMAP
1800
3C00
6600
0000
3F80
E700
E700
E700
E600
7800
6000
FE00
FF80
E380
C180
E300
7E00
ENDCHAR
STARTCHAR Gbreve
ENCODING 286
SWIDTH 778 0
DWIDTH 15 0
BBX 13 17 1 0
BITMAP
0880
0F80
0700
0000
0F90
38F0
7070
7030
E000
E000
E0F8
E070
E070
7070
7070
38F0
0FC0
ENDCHAR
STARTCHAR gbreve
ENCODING 287
SWIDTH 500 0
DWIDTH 9 0
BBX 9 17 0 -4
BITMAP
2200
3E00
1C00
0000
3F80
E700
E700
E700
E600
7800
6000
FE00
FF80
E380
C180
E300
7E00
ENDCHAR
STARTCHAR Gdotaccent
ENCODING 288
SWIDTH 778 0
DWIDTH 15 0
BBX 13 16 1 0
BITMAP
0300
0300
0000
0F90
38F0
7070
7030
E000
E000
E0F8
E070
E070
7070
7070
38F0
0FC0
ENDCHAR
STARTCHAR gdotaccent
ENCODING 289
SWIDTH 500 0
DWIDTH 9 0
BBX 9 16 0 -4
BITMAP
1800
1800
0000
3F80
E700
E700
E700
E600
7800
6000
FE00
FF80
E380
C180
E300
7E00
ENDCHAR
STARTCHAR Gcommaaccent
ENCODING 290
SWIDTH 778 0
DWIDTH 15 0
BBX 13 20 1 -7
BITMAP
0F90
38F0
7070
7030
E000
E000
E0F8
E070
E070
7070
7070
38F0
0FC0
0000
0700
0700
0700
0300
0600
0C00
ENDCHAR
STARTCHAR gcommaaccent
ENCODING 291
SWIDTH 500 0
DWIDTH 9 0
BBX 9 20 0 -4
BITMAP
0600
0C00
1800
1C00
1C00
1C00
0000
3F80
E700
E700
E700
E600
7800
6000
FE00
FF80
E380
C180
E300
7E00
ENDCHAR
STARTCHAR Hcircumflex
ENCODING 292
SWIDTH 778 0
DWIDTH 15 0
BBX 13 17 1 0
BITMAP
0300
0780
0CC0
0000
F8F8
7070
7070
7070
7070
7070
7FF0
7070
7070
7070
7070
7070
F9F8
ENDCHAR
STARTCHAR hcircumflex
ENCODING 293
SWIDTH 556 0
DWIDTH 11 0
BBX 10 17 0 0
BITMAP
3000
7800
CC00
0000
F000
7000
7000
7000
7700
7F80
7380
7380
7380
7380
7380
7380
FBC0
ENDCHAR
STARTCHAR Hbar
ENCODING 294
SWIDTH 778 0
DWIDTH 15 0
BBX 13 13 1 0
BITMAP
F8F8
7070
7070
FFF8
FFF8
7070
7FF0
7070
7070
7070
7070
7070
F9F8
ENDCHAR
STARTCHAR hbar
ENCODING 295
SWIDTH 556 0
DWIDTH 11 0
BBX 10 13 0 0
BITMAP
F000
7000
7C00
7C00
7700
7F80
7380
7380
7380
7380
7380
7380
FBC0
ENDCHAR
STARTCHAR Itilde
ENCODING 296
SWIDTH 389 0
DWIDTH 7 0
BBX 6 17 1 0
BITMAP
64
FC
98
00
F8
70
70
70
70
70
70
70
70
70
70
70
F8
ENDCHAR
STARTCHAR itilde
ENCODING 297
SWIDTH 278 0
DWIDTH 5 0
BBX 6 13 -1 0
BITMAP
64
FC
98
00
78
38
38
38
38
38
38
38
7C
ENDCHAR
STARTCHAR Imacron
ENCODING 298
SWIDTH 389 0
DWIDTH 7 0
BBX 6 15 1 0
BITMAP
FC
00
F8
70
70
70
70
70
70
70
70
70
70
70
F8
ENDCHAR
STARTCHAR imacron
ENCODING 299
SWIDTH 278 0
DWIDTH 5 0
BBX 6 11 -1 0
BITMAP
FC
00
78
38
38
38
38
38
38
38
7C
ENDCHAR
STARTCHAR Ibreve
ENCODING 300
SWIDTH 389 0
DWIDTH 7 0
BBX 5 17 1 0
BITMAP
88
F8
70
00
F8
70
70
70
70
70
70
70
70
70
70
70
F8
ENDCHAR
STARTCHAR ibreve
ENCODING 301
SWIDTH 278 0
DWIDTH 5 0
BBX 5 13 0 0
BITMAP
88
F8
70
00
F0
70
70
70
70
70
70
70
F8
ENDCHAR
STARTCHAR Iogonek
ENCODING 302
SWIDTH 389 0
DWIDTH 7 0
BBX 5 17 1 -4
BITMAP
F8
70
70
70
70
70
70
70
70
70
70
70
F8
20
40
78
30
ENDCHAR
STARTCHAR iogonek
ENCODING 303
SWIDTH 278 0
DWIDTH 5 0
BBX 5 17 0 -4
BITMAP
60
60
60
00
F0
70
70
70
70
70
70
70
F8
20
40
78
30
ENDCHAR
STARTCHAR Idotaccent
ENCODING 304
SWIDTH 389 0
DWIDTH 7 0
BBX 5 16 1 0
BITMAP
30
30
00
F8
70
70
70
70
70
70
70
70
70
70
70
F8
ENDCHAR
STARTCHAR dotlessi
ENCODING 305
SWIDTH 278 0
DWIDTH 5 0
BBX 5 9 0 0
BITMAP
F0
70
70
70
70
70
70
70
F8
ENDCHAR
STARTCHAR IJ
ENCODING 306
SWIDTH 870 0
DWIDTH 16 0
BBX 14 15 1 -2
BITMAP
F87C
7038
7038
7038
7038
7038
7038
7038
7038
7038
7038
7038
FBB8
03B0
01E0
ENDCHAR
STARTCHAR ij
ENCODING 307
SWIDTH 597 0
DWIDTH 10 0
BBX 9 17 0 -4
BITMAP
6300
6300
6300
0000
F780
7380
7380
7380
7380
7380
7380
7380
FB80
0380
1B80
1B00
0E00
ENDCHAR
STARTCHAR Jcircumflex
ENCODING 308
SWIDTH 500 0
DWIDTH 9 0
BBX 8 19 0 -2
BITMAP
0C
1E
33
00
1F
0E
0E
0E
0E
0E
0E
0E
0E
0E
0E
0E
EE
EC
78
ENDCHAR
STARTCHAR jcircumflex
ENCODING 309
SWIDTH 333 0
DWIDTH 5 0
BBX 7 17 -2 -4
BITMAP
18
3C
66
00
3C
1C
1C
1C
1C
1C
1C
1C
1C
1C
DC
D8
70
ENDCHAR
STARTCHAR Kcommaaccent
ENCODING 310
SWIDTH 778 0
DWIDTH 15 0
BBX 12 20 2 -7
BITMAP
F9F0
70C0
7180
7300
7600
7C00
7C00
7E00
7700
7780
73C0
71E0
F8F0
0000
0E00
0E00
0E00
0600
0C00
1800
ENDCHAR
STARTCHAR kcommaaccent
ENCODING 311
SWIDTH 556 0
DWIDTH 10 0
BBX 10 20 0 -7
BITMAP
F000
7000
7000
7000
7380
7300
7600
7C00
7C00
7E00
7700
7380
F7C0
0000
1C00
1C00
1C00
0C00
1800
3000
ENDCHAR
STARTCHAR kgreenlandic
ENCODING 312
SWIDTH 556 0
DWIDTH 10 0
BBX 10 9 0 0
BITMAP
7380
7300
7600
7C00
7C00
7E00
7700
7380
F7C0
ENDCHAR
STARTCHAR Lacute
ENCODING 313
SWIDTH 667 0
DWIDTH 13 0
BBX 10 17 2 0
BITMAP
0E00
1C00
3000
0000
F800
7000
7000
7000
7000
7000
7000
7000
7000
7000
7040
70C0
FFC0
ENDCHAR
STARTCHAR lacute
ENCODING 314
SWIDTH 278 0
DWIDTH 6 0
BBX 6 17 0 0
BITMAP
1C
38
60
00
F0
70
70
70
70
70
70
70
70
70
70
70
F8
ENDCHAR
STARTCHAR Lcommaaccent
ENCODING 315
SWIDTH 667 0
DWIDTH 13 0
BBX 10 20 2 -7
BITMAP
F800
7000
7000
7000
7000
7000
7000
7000
7000
7000
7040
70C0
FFC0
0000
1C00
1C00
1C00
0C00
1800
3000
ENDCHAR
STARTCHAR lcommaaccent
ENCODING 316
SWIDTH 278 0
DWIDTH 6 0
BBX 5 20 0 -7
BITMAP
F0
70
70
70
70
70
70
70
70
70
70
70
F8
00
70
70
70
30
60
C0
ENDCHAR
STARTCHAR Lcaron
ENCODING 317
SWIDTH 967 0
DWIDTH 18 0
BBX 15 13 2 0
BITMAP
F80E
700E
700E
7006
700C
7018
7000
7000
7000
7000
7040
70C0
FFC0
ENDCHAR
STARTCHAR lcaron
ENCODING 318
SWIDTH 597 0
DWIDTH 12 0
BBX 11 13 0 0
BITMAP
F0E0
70E0
70E0
7060
70C0
7180
7000
7000
7000
7000
7000
7000
F800
ENDCHAR
STARTCHAR Ldot
ENCODING 319
SWIDTH 884 0
DWIDTH 17 0
BBX 14 13 2 0
BITMAP
F800
7000
7000
7000
7000
7000
701C
701C
701C
7000
7040
70C0
FFC0
ENDCHAR
STARTCHAR ldot
ENCODING 320
SWIDTH 514 0
DWIDTH 11 0
BBX 10 13 0 0
BITMAP
F000
7000
7000
7000
7000
7000
71C0
71C0
71C0
7000
7000
7000
F800
ENDCHAR
STARTCHAR Lslash
ENCODING 321
SWIDTH 667 0
DWIDTH 12 0
BBX 11 13 0 0
BITMAP
7C00
3800
3800
3E00
3C00
3800
7800
F800
3800
3800
3820
3860
7FE0
ENDCHAR
STARTCHAR lslash
ENCODING 322
SWIDTH 278 0
DWIDTH 6 0
BBX 7 13 -1 0
BITMAP
78
38
38
3E
3C
38
38
78
F8
38
38
38
7C
ENDCHAR
STARTCHAR Nacute
ENCODING 323
SWIDTH 722 0
DWIDTH 14 0
BBX 12 17 1 0
BITMAP
0380
0700
0C00
0000
F070
7820
7820
7C20
5E20
4E20
4F20
47A0
43A0
43E0
41E0
40E0
E0E0
ENDCHAR
STARTCHAR nacute
ENCODING 324
SWIDTH 556 0
DWIDTH 11 0
BBX 10 13 0 0
BITMAP
0700
0E00
1800
0000
E700
7F80
7380
7380
7380
7380
7380
7380
FBC0
ENDCHAR
STARTCHAR Ncommaaccent
ENCODING 325
SWIDTH 722 0
DWIDTH 14 0
BBX 12 20 1 -7
BITMAP
F070
7820
7820
7C20
5E20
4E20
4F20
47A0
43A0
43E0
41E0
40E0
E0E0
0000
0700
0700
0700
0300
0600
0C00
ENDCHAR
STARTCHAR ncommaaccent
ENCODING 326
SWIDTH 556 0
DWIDTH 11 0
BBX 10 16 0 -7
BITMAP
E700
7F80
7380
7380
7380
7380
7380
7380
FBC0
0000
0E00
0E00
0E00
0600
0C00
1800
ENDCHAR
STARTCHAR Ncaron
ENCODING 327
SWIDTH 722 0
DWIDTH 14 0
BBX 12 17 1 0
BITMAP
3300
1E00
0C00
0000
F070
7820
7820
7C20
5E20
4E20
4F20
47A0
43A0
43E0
41E0
40E0
E0E0
ENDCHAR
STARTCHAR ncaron
ENCODING 328
SWIDTH 556 0
DWIDTH 11 0
BBX 10 13 0 0
BITMAP
3300
1E00
0C00
0000
E700
7F80
7380
7380
7380
7380
7380
7380
FBC0
ENDCHAR
STARTCHAR napostrophe
ENCODING 329
SWIDTH 872 0
DWIDTH 17 0
BBX 15 13 1 0
BITMAP
7000
7000
7000
3000
6738
C3FC
039C
039C
039C
039C
039C
039C
07DE
ENDCHAR
STARTCHAR Eng
ENCODING 330
SWIDTH 722 0
DWIDTH 14 0
BBX 12 17 1 -4
BITMAP
F070
7820
7820
7C20
5E20
4E20
4F20
47A0
43A0
43E0
41E0
40E0
E0E0
00E0
06E0
06C0
0380
ENDCHAR
STARTCHAR eng
ENCODING 331
SWIDTH 556 0
DWIDTH 11 0
BBX 9 13 0 -4
BITMAP
E700
7F80
7380
7380
7380
7380
7380
7380
FB80
0380
1B80
1B00
0E00
ENDCHAR
STARTCHAR Omacron
ENCODING 332
SWIDTH 778 0
DWIDTH 15 0
BBX 13 15 1 0
BITMAP
0FC0
0000
0F80
38E0
7070
7070
E038
E038
E038
E038
E038
7070
7070
38E0
0F80
ENDCHAR
STARTCHAR omacron
ENCODING 333
SWIDTH 500 0
DWIDTH 9 0
BBX 8 11 0 0
BITMAP
7E
00
3C
66
E7
E7
E7
E7
E7
66
3C
ENDCHAR
STARTCHAR Obreve
ENCODING 334
SWIDTH 778 0
DWIDTH 15 0
BBX 13 17 1 0
BITMAP
0880
0F80
0700
0000
0F80
38E0
7070
7070
E038
E038
E038
E038
E038
7070
7070
38E0
0F80
ENDCHAR
STARTCHAR obreve
ENCODING 335
SWIDTH 500 0
DWIDTH 9 0
BBX 8 13 0 0
BITMAP
22
3E
1C
00
3C
66
E7
E7
E7
E7
E7
66
3C
ENDCHAR
STARTCHAR Ohungarumlaut
ENCODING 336
SWIDTH 778 0
DWIDTH 15 0
BBX 13 18 1 0
BITMAP
0660
0CC0
0CC0
1980
0000
0F80
38E0
7070
7070
E038
E038
E038
E038
E038
7070
7070
38E0
0F80
ENDCHAR
STARTCHAR ohungarumlaut
ENCODING 337
SWIDTH 500 0
DWIDTH 9 0
BBX 8 14 0 0
BITMAP
33
66
66
CC
00
3C
66
E7
E7
E7
E7
E7
66
3C
ENDCHAR
STARTCHAR OE
ENCODING 338
SWIDTH 1000 0
DWIDTH 19 0
BBX 16 13 1 0
BITMAP
0FFF
39C3
71C1
71C0
E1C0
E1C4
E1FC
E1C4
E1C0
71C0
71C1
39C3
0FFF
ENDCHAR
STARTCHAR oe
ENCODING 339
SWIDTH 722 0
DWIDTH 13 0
BBX 12 9 0 0
BITMAP
38E0
77B0
E730
E7F0
E700
E700
E700
77B0
39E0
ENDCHAR
STARTCHAR Racute
ENCODING 340
SWIDTH 722 0
DWIDTH 14 0
BBX 12 17 1 0
BITMAP
0380
0700
0C00
0000
FF00
7380
71C0
71C0
71C0
7380
7F00
7700
7380
71C0
71C0
70E0
F8F0
ENDCHAR
STARTCHAR racute
ENCODING 341
SWIDTH 444 0
DWIDTH 8 0
BBX 7 13 0 0
BITMAP
0E
1C
30
00
EE
76
70
70
70
70
70
70
F8
ENDCHAR
STARTCHAR Rcommaaccent
ENCODING 342
SWIDTH 722 0
DWIDTH 14 0
BBX 12 20 1 -7
BITMAP
FF00
7380
71C0
71C0
71C0
7380
7F00
7700
7380
71C0
71C0
70E0
F8F0
0000
0E00
0E00
0E00
0600
0C00
1800
ENDCHAR
STARTCHAR rcommaaccent
ENCODING 343
SWIDTH 444 0
DWIDTH 8 0
BBX 7 16 0 -7
BITMAP
EE
76
70
70
70
70
70
70
F8
00
38
38
38
18
30
60
ENDCHAR
STARTCHAR Rcaron
ENCODING 344
SWIDTH 722 0
DWIDTH 14 0
BBX 12 17 1 0
BITMAP
3300
1E00
0C00
0000
FF00
7380
71C0
71C0
71C0
7380
7F00
7700
7380
71C0
71C0
70E0
F8F0
ENDCHAR
STARTCHAR rcaron
ENCODING 345
SWIDTH 444 0
DWIDTH 8 0
BBX 7 13 0 0
BITMAP
CC
78
30
00
EE
76
70
70
70
70
70
70
F8
ENDCHAR
STARTCHAR Sacute
ENCODING 346
SWIDTH 556 0
DWIDTH 11 0
BBX 9 17 1 0
BITMAP
0700
0E00
1800
0000
1E80
6380
E180
E000
F800
7C00
3F00
0F80
0780
0380
C380
E700
BC00
ENDCHAR
STARTCHAR sacute
ENCODING 347
SWIDTH 389 0
DWIDTH 7 0
BBX 7 13 0 0
BITMAP
0E
1C
30
00
7C
CC
E4
F0
78
3C
9C
CC
F8
ENDCHAR
STARTCHAR Scircumflex
ENCODING 348
SWIDTH 556 0
DWIDTH 11 0
BBX 9 17 1 0
BITMAP
1800
3C00
6600
0000
1E80
6380
E180
E000
F800
7C00
3F00
0F80
0780
0380
C380
E700
BC00
ENDCHAR
STARTCHAR scircumflex
ENCODING 349
SWIDTH 389 0
DWIDTH 7 0
BBX 6 13 0 0
BITMAP
30
78
CC
00
7C
CC
E4
F0
78
3C
9C
CC
F8
ENDCHAR
STARTCHAR Scedilla
ENCODING 350
SWIDTH 556 0
DWIDTH 11 0
BBX 9 17 1 -4
BITMAP
1E80
6380
E180
E000
F800
7C00
3F00
0F80
0780
0380
C380
E700
BC00
1000
0C00
4C00
3800
ENDCHAR
STARTCHAR scedilla
ENCODING 351
SWIDTH 389 0
DWIDTH 7 0
BBX 6 13 0 -4
BITMAP
7C
CC
E4
F0
78
3C
9C
CC
F8
20
18
98
70
ENDCHAR
STARTCHAR Scaron
ENCODING 352
SWIDTH 556 0
DWIDTH 11 0
BBX 9 17 1 0
BITMAP
6600
3C00
1800
0000
1E80
6380
E180
E000
F800
7C00
3F00
0F80
0780
0380
C380
E700
BC00
ENDCHAR
STARTCHAR scaron
ENCODING 353
SWIDTH 389 0
DWIDTH 7 0
BBX 6 13 0 0
BITMAP
CC
78
30
00
7C
CC
E4
F0
78
3C
9C
CC
F8
ENDCHAR
STARTCHAR Tcommaaccent
ENCODING 354
SWIDTH 667 0
DWIDTH 13 0
BBX 11 17 1 -4
BITMAP
FFE0
CE60
8E20
0E00
0E00
0E00
0E00
0E00
0E00
0E00
0E00
0E00
1F00
0800
0600
2600
1C00
ENDCHAR
STARTCHAR tcommaaccent
ENCODING 355
SWIDTH 333 0
DWIDTH 7 0
BBX 6 15 0 -4
BITMAP
10
30
FC
70
70
70
70
70
70
74
38
20
18
98
70
ENDCHAR
STARTCHAR Tcaron
ENCODING 356
SWIDTH 667 0
DWIDTH 13 0
BBX 11 17 1 0
BITMAP
1980
0F00
0600
0000
FFE0
CE60
8E20
0E00
0E00
0E00
0E00
0E00
0E00
0E00
0E00
0E00
1F00
ENDCHAR
STARTCHAR tcaron
ENCODING 357
SWIDTH 649 0
DWIDTH 13 0
BBX 12 13 0 0
BITMAP
0070
0070
1070
3030
FC60
70C0
7000
7000
7000
7000
7000
7400
3800
ENDCHAR
STARTCHAR Tbar
ENCODING 358
SWIDTH 667 0
DWIDTH 13 0
BBX 11 13 1 0
BITMAP
FFE0
CE60
8E20
0E00
0E00
1F00
1F00
0E00
0E00
0E00
0E00
0E00
1F00
ENDCHAR
STARTCHAR tbar
ENCODING 359
SWIDTH 333 0
DWIDTH 7 0
BBX 6 11 0 0
BITMAP
10
30
FC
70
70
7C
7C
70
70
74
38
ENDCHAR
STARTCHAR Utilde
ENCODING 360
SWIDTH 722 0
DWIDTH 14 0
BBX 12 17 1 0
BITMAP
1900
3F00
2600
0000
F8F0
7020
7020
7020
7020
7020
7020
7020
7020
7020
7060
38C0
1F80
ENDCHAR
STARTCHAR utilde
ENCODING 361
SWIDTH 556 0
DWIDTH 11 0
BBX 10 13 0 0
BITMAP
1900
3F00
2600
0000
F780
7380
7380
7380
7380
7380
7380
7F80
3DC0
ENDCHAR
STARTCHAR Umacron
ENCODING 362
SWIDTH 722 0
DWIDTH 14 0
BBX 12 15 1 0
BITMAP
3F00
0000
F8F0
7020
7020
7020
7020
7020
7020
7020
7020
7020
7060
38C0
1F80
ENDCHAR
STARTCHAR umacron
ENCODING 363
SWIDTH 556 0
DWIDTH 11 0
BBX 10 11 0 0
BITMAP
3F00
0000
F780
7380
7380
7380
7380
7380
7380
7F80
3DC0
ENDCHAR
STARTCHAR Ubreve
ENCODING 364
SWIDTH 722 0
DWIDTH 14 0
BBX 12 17 1 0
BITMAP
1100
1F00
0E00
0000
F8F0
7020
7020
7020
7020
7020
7020
7020
7020
7020
7060
38C0
1F80
ENDCHAR
STARTCHAR ubreve
ENCODING 365
SWIDTH 556 0
DWIDTH 11 0
BBX 10 13 0 0
BITMAP
2200
3E00
1C00
0000
F780
7380
7380
7380
7380
7380
7380
7F80
3DC0
ENDCHAR
STARTCHAR Uring
ENCODING 366
SWIDTH 722 0
DWIDTH 14 0
BBX 12 18 1 0
BITMAP
0E00
1B00
1B00
0E00
0000
F8F0
7020
7020
7020
7020
7020
7020
7020
7020
7020
7060
38C0
1F80
ENDCHAR
STARTCHAR uring
ENCODING 367
SWIDTH 556 0
DWIDTH 11 0
BBX 10 14 0 0
BITMAP
1C00
3600
3600
1C00
0000
F780
7380
7380
7380
7380
7380
7380
7F80
3DC0
ENDCHAR
STARTCHAR Uhungarumlaut
ENCODING 368
SWIDTH 722 0
DWIDTH 14 0
BBX 12 18 1 0
BITMAP
0CC0
1980
1980
3300
0000
F8F0
7020
7020
7020
7020
7020
7020
7020
7020
7020
7060
38C0
1F80
ENDCHAR
STARTCHAR uhungarumlaut
ENCODING 369
SWIDTH 556 0
DWIDTH 11 0
BBX 10 14 0 0
BITMAP
1980
3300
3300
6600
0000
F780
7380
7380
7380
7380
7380
7380
7F80
3DC0
ENDCHAR
STARTCHAR Uogonek
ENCODING 370
SWIDTH 722 0
DWIDTH 14 0
BBX 12 17 1 -4
BITMAP
F8F0
7020
7020
7020
7020
7020
7020
7020
7020
7020
7060
38C0
1F80
0400
0800
0F00
0600
ENDCHAR
STARTCHAR uogonek
ENCODING 371
SWIDTH 556 0
DWIDTH 11 0
BBX 10 13 0 -4
BITMAP
F780
7380
7380
7380
7380
7380
7380
7F80
3DC0
0400
0800
0F00
0600
ENDCHAR
STARTCHAR Wcircumflex
ENCODING 372
SWIDTH 1000 0
DWIDTH 19 0
BBX 18 17 1 0
BITMAP
00C000
01E000
033000
000000
FDF7C0
79E180
38E100
3CE300
3CE200
1C7200
1E7600
0E7400
0EBC00
0F3C00
073C00
061800
061800
ENDCHAR
STARTCHAR wcircumflex
ENCODING 373
SWIDTH 722 0
DWIDTH 12 0
BBX 14 13 -1 0
BITMAP
0300
0780
0CC0
0000
F79C
7718
7390
3BB0
39A0
1DE0
1FE0
0CC0
0CC0
ENDCHAR
STARTCHAR Ycircumflex
ENCODING 374
SWIDTH 722 0
DWIDTH 14 0
BBX 13 17 1 0
BITMAP
0600
0F00
1980
0000
FC78
7830
3860
3C40
1EC0
0E80
0F80
0700
0700
0700
0700
0700
1FC0
ENDCHAR
STARTCHAR ycircumflex
ENCODING 375
SWIDTH 500 0
DWIDTH 9 0
BBX 10 17 -1 -4
BITMAP
0C00
1E00
3300
0000
FBC0
7180
7900
3B00
3A00
1E00
1E00
0C00
0C00
0C00
C800
D800
F000
ENDCHAR
STARTCHAR Ydieresis
ENCODING 376
SWIDTH 722 0
DWIDTH 14 0
BBX 13 16 1 0
BITMAP
1980
1980
0000
FC78
7830
3860
3C40
1EC0
0E80
0F80
0700
0700
0700
0700
0700
1FC0
ENDCHAR
STARTCHAR Zacute
ENCODING 377
SWIDTH 667 0
DWIDTH 13 0
BBX 10 17 2 0
BITMAP
0380
0700
0C00
0000
FFC0
C3C0
8380
0780
0F00
0E00
1E00
3C00
3800
7800
F040
E0C0
FFC0
ENDCHAR
STARTCHAR zacute
ENCODING 378
SWIDTH 444 0
DWIDTH 8 0
BBX 7 13 0 0
BITMAP
0E
1C
30
00
FE
CE
8E
1C
38
70
72
E6
FE
ENDCHAR
STARTCHAR Zdotaccent
ENCODING 379
SWIDTH 667 0
DWIDTH 13 0
BBX 10 16 2 0
BITMAP
0C00
0C00
0000
FFC0
C3C0
8380
0780
0F00
0E00
1E00
3C00
3800
7800
F040
E0C0
FFC0
ENDCHAR
STARTCHAR zdotaccent
ENCODING 380
SWIDTH 444 0
DWIDTH 8 0
BBX 7 12 0 0
BITMAP
18
18
00
FE
CE
8E
1C
38
70
72
E6
FE
ENDCHAR
STARTCHAR Zcaron
ENCODING 381
SWIDTH 667 0
DWIDTH 13 0
BBX 10 17 2 0
BITMAP
3300
1E00
0C00
0000
FFC0
C3C0
8380
0780
0F00
0E00
1E00
3C00
3800
7800
F040
E0C0
FFC0
ENDCHAR
STARTCHAR zcaron
ENCODING 382
SWIDTH 444 0
DWIDTH 8 0
BBX 7 13 0 0
BITMAP
CC
78
30
00
FE
CE
8E
1C
38
70
72
E6
FE
ENDCHAR
STARTCHAR uni0186
ENCODING 390
SWIDTH 722 0
DWIDTH 14 0
BBX 12 13 1 0
BITMAP
1F00
73C0
C0E0
00E0
0070
0070
0070
0070
0070
C0E0
E0E0
F1C0
9F00
ENDCHAR
STARTCHAR uni0189
ENCODING 393
SWIDTH 722 0
DWIDTH 14 0
BBX 13 13 0 0
BITMAP
7F80
38E0
3870
3830
3838
3838
FE38
3838
3838
3830
3870
38E0
7F80
ENDCHAR
STARTCHAR uni018E
ENCODING 398
SWIDTH 667 0
DWIDTH 13 0
BBX 10 13 2 0
BITMAP
FFC0
C380
8380
0380
0380
2380
3F80
2380
0380
0380
8380
C380
FFC0
ENDCHAR
STARTCHAR florin
ENCODING 402
SWIDTH 500 0
DWIDTH 9 0
BBX 9 17 -1 -4
BITMAP
0780
0E80
1C00
1C00
1C00
7F80
1C00
1C00
1C00
1C00
1C00
1C00
1C00
1800
D800
D800
7000
ENDCHAR
STARTCHAR uni0197
ENCODING 407
SWIDTH 389 0
DWIDTH 7 0
BBX 5 13 1 0
BITMAP
F8
70
70
70
70
F8
F8
70
70
70
70
70
F8
ENDCHAR
STARTCHAR uni019A
ENCODING 410
SWIDTH 278 0
DWIDTH 6 0
BBX 5 13 0 0
BITMAP
F0
70
70
70
70
F8
F8
70
70
70
70
70
F8
ENDCHAR
STARTCHAR uni019D
ENCODING 413
SWIDTH 722 0
DWIDTH 14 0
BBX 14 17 -1 -4
BITMAP
3C1C
1E08
1E08
1F08
1788
1388
13C8
11E8
10E8
1CF8
1C78
1C38
1C38
1C00
DC00
D800
7000
ENDCHAR
STARTCHAR uni019F
ENCODING 415
SWIDTH 778 0
DWIDTH 15 0
BBX 13 13 1 0
BITMAP
0F80
38E0
7070
7070
E038
FFF8
FFF8
E038
E038
7070
7070
38E0
0F80
ENDCHAR
STARTCHAR Ohorn
ENCODING 416
SWIDTH 778 0
DWIDTH 15 0
BBX 16 13 1 0
BITMAP
0F87
38E7
7077
7073
E03E
E03C
E038
E038
E038
7070
7070
38E0
0F80
ENDCHAR
STARTCHAR ohorn
ENCODING 417
SWIDTH 500 0
DWIDTH 9 0
BBX 12 9 0 0
BITMAP
3C70
6670
E770
E730
E760
E7C0
E700
6600
3C00
ENDCHAR
STARTCHAR uni01A7
ENCODING 423
SWIDTH 556 0
DWIDTH 11 0
BBX 9 13 1 0
BITMAP
BC00
E300
C380
0380
0F80
1F00
7E00
F800
F000
E000
E180
7380
1E80
ENDCHAR
STARTCHAR uni01A8
ENCODING 424
SWIDTH 389 0
DWIDTH 7 0
BBX 6 9 0 0
BITMAP
F8
CC
9C
3C
78
F0
E4
CC
7C
ENDCHAR
STARTCHAR uni01AE
ENCODING 430
SWIDTH 667 0
DWIDTH 13 0
BBX 11 17 1 -4
BITMAP
FFE0
CE60
8E20
0E00
0E00
0E00
0E00
0E00
0E00
0E00
0E00
0E00
0E00
0E00
0EC0
06C0
0380
ENDCHAR
STARTCHAR Uhorn
ENCODING 431
SWIDTH 722 0
DWIDTH 14 0
BBX 15 13 1 0
BITMAP
F8FE
702E
702E
7026
702C
7038
7020
7020
7020
7020
7060
38C0
1F80
ENDCHAR
STARTCHAR uhorn
ENCODING 432
SWIDTH 556 0
DWIDTH 11 0
BBX 13 9 0 0
BITMAP
F7B8
73B8
73B8
7398
73B0
73E0
7380
7F80
3DC0
ENDCHAR
STARTCHAR uni01B5
ENCODING 437
SWIDTH 667 0
DWIDTH 13 0
BBX 10 13 2 0
BITMAP
FFC0
C3C0
8380
0780
0F00
1F00
1F00
3C00
3800
7800
F040
E0C0
FFC0
ENDCHAR
STARTCHAR uni01B6
ENCODING 438
SWIDTH 444 0
DWIDTH 8 0
BBX 7 9 0 0
BITMAP
FE
CE
8E
7C
7C
70
72
E6
FE
ENDCHAR
STARTCHAR uni01BB
ENCODING 443
SWIDTH 500 0
DWIDTH 9 0
BBX 8 13 0 0
BITMAP
3C
7E
CF
87
07
FF
FF
0C
18
31
63
FF
FF
ENDCHAR
STARTCHAR uni01BC
ENCODING 444
SWIDTH 500 0
DWIDTH 9 0
BBX 9 13 0 0
BITMAP
3F00
3F00
3E00
4000
7800
7E00
3F00
0780
0380
0380
C300
E600
FC00
ENDCHAR
STARTCHAR uni01C0
ENCODING 448
SWIDTH 220 0
DWIDTH 4 0
BBX 2 16 1 -3
BITMAP
C0
C0
C0
C0
C0
C0
C0
C0
C0
C0
C0
C0
C0
C0
C0
C0
ENDCHAR
STARTCHAR uni01C2
ENCODING 450
SWIDTH 570 0
DWIDTH 11 0
BBX 9 16 1 -3
BITMAP
0C00
0C00
0C00
0C00
0C00
FF80
FF80
0C00
0C00
FF80
FF80
0C00
0C00
0C00
0C00
0C00
ENDCHAR
STARTCHAR uni01C3
ENCODING 451
SWIDTH 333 0
DWIDTH 6 0
BBX 3 13 1 0
BITMAP
40
E0
E0
E0
E0
E0
E0
40
40
00
E0
E0
E0
ENDCHAR
STARTCHAR uni01CD
ENCODING 461
SWIDTH 722 0
DWIDTH 14 0
BBX 14 17 0 0
BITMAP
0CC0
0780
0300
0000
0300
0380
0780
05C0
0DC0
08C0
18E0
1060
1FF0
3070
2038
6038
F8FC
ENDCHAR
STARTCHAR uni01CE
ENCODING 462
SWIDTH 500 0
DWIDTH 9 0
BBX 8 13 0 0
BITMAP
66
3C
18
00
7C
CE
CE
1E
6E
CE
CE
FE
77
ENDCHAR
STARTCHAR uni01CF
ENCODING 463
SWIDTH 389 0
DWIDTH 7 0
BBX 6 17 1 0
BITMAP
CC
78
30
00
F8
70
70
70
70
70
70
70
70
70
70
70
F8
ENDCHAR
STARTCHAR uni01D0
ENCODING 464
SWIDTH 278 0
DWIDTH 5 0
BBX 6 13 -1 0
BITMAP
CC
78
30
00
78
38
38
38
38
38
38
38
7C
ENDCHAR
STARTCHAR uni01D1
ENCODING 465
SWIDTH 778 0
DWIDTH 15 0
BBX 13 17 1 0
BITMAP
0CC0
0780
0300
0000
0F80
38E0
7070
7070
E038
E038
E038
E038
E038
7070
7070
38E0
0F80
ENDCHAR
STARTCHAR uni01D2
ENCODING 466
SWIDTH 500 0
DWIDTH 9 0
BBX 8 13 0 0
BITMAP
66
3C
18
00
3C
66
E7
E7
E7
E7
E7
66
3C
ENDCHAR
STARTCHAR uni01D3
ENCODING 467
SWIDTH 722 0
DWIDTH 14 0
BBX 12 17 1 0
BITMAP
3300
1E00
0C00
0000
F8F0
7020
7020
7020
7020
7020
7020
7020
7020
7020
7060
38C0
1F80
ENDCHAR
STARTCHAR uni01D4
ENCODING 468
SWIDTH 556 0
DWIDTH 11 0
BBX 10 13 0 0
BITMAP
3300
1E00
0C00
0000
F780
7380
7380
7380
7380
7380
7380
7F80
3DC0
ENDCHAR
STARTCHAR uni01D5
ENCODING 469
SWIDTH 722 0
DWIDTH 14 0
BBX 12 18 1 0
BITMAP
1F80
0000
1980
1980
0000
F8F0
7020
7020
7020
7020
7020
7020
7020
7020
7020
7060
38C0
1F80
ENDCHAR
STARTCHAR uni01D6
ENCODING 470
SWIDTH 556 0
DWIDTH 11 0
BBX 10 14 0 0
BITMAP
3F00
0000
3300
3300
0000
F780
7380
7380
7380
7380
7380
7380
7F80
3DC0
ENDCHAR
STARTCHAR uni01D7
ENCODING 471
SWIDTH 722 0
DWIDTH 14 0
BBX 12 20 1 0
BITMAP
0380
0700
0C00
0000
1980
1980
0000
F8F0
7020
7020
7020
7020
7020
7020
7020
7020
7020
7060
38C0
1F80
ENDCHAR
STARTCHAR uni01D8
ENCODING 472
SWIDTH 556 0
DWIDTH 11 0
BBX 10 16 0 0
BITMAP
0700
0E00
1800
0000
3300
3300
0000
F780
7380
7380
7380
7380
7380
7380
7F80
3DC0
ENDCHAR
STARTCHAR uni01D9
ENCODING 473
SWIDTH 722 0
DWIDTH 14 0
BBX 12 20 1 0
BITMAP
1980
0F00
0600
0000
1980
1980
0000
F8F0
7020
7020
7020
7020
7020
7020
7020
7020
7020
7060
38C0
1F80
ENDCHAR
STARTCHAR uni01DA
ENCODING 474
SWIDTH 556 0
DWIDTH 11 0
BBX 10 16 0 0
BITMAP
3300
1E00
0C00
0000
3300
3300
0000
F780
7380
7380
7380
7380
7380
7380
7F80
3DC0
ENDCHAR
STARTCHAR uni01DB
ENCODING 475
SWIDTH 722 0
DWIDTH 14 0
BBX 12 20 1 0
BITMAP
3800
1C00
0600
0000
1980
1980
0000
F8F0
7020
7020
7020
7020
7020
7020
7020
7020
7020
7060
38C0
1F80
ENDCHAR
STARTCHAR uni01DC
ENCODING 476
SWIDTH 556 0
DWIDTH 11 0
BBX 10 16 0 0
BITMAP
7000
3800
0C00
0000
3300
3300
0000
F780
7380
7380
7380
7380
7380
7380
7F80
3DC0
ENDCHAR
STARTCHAR uni01DD
ENCODING 477
SWIDTH 444 0
DWIDTH 8 0
BBX 7 9 0 0
BITMAP
78
DC
0E
0E
0E
FE
CE
DC
78
ENDCHAR
STARTCHAR uni01DE
ENCODING 478
SWIDTH 722 0
DWIDTH 14 0
BBX 14 18 0 0
BITMAP
0FC0
0000
0CC0
0CC0
0000
0300
0380
0780
05C0
0DC0
08C0
18E0
1060
1FF0
3070
2038
6038
F8FC
ENDCHAR
STARTCHAR uni01DF
ENCODING 479
SWIDTH 500 0
DWIDTH 9 0
BBX 8 14 0 0
BITMAP
7E
00
66
66
00
7C
CE
CE
1E
6E
CE
CE
FE
77
ENDCHAR
STARTCHAR uni01E0
ENCODING 480
SWIDTH 722 0
DWIDTH 14 0
BBX 14 18 0 0
BITMAP
0FC0
0000
0300
0300
0000
0300
0380
0780
05C0
0DC0
08C0
18E0
1060
1FF0
3070
2038
6038
F8FC
ENDCHAR
STARTCHAR uni01E1
ENCODING 481
SWIDTH 500 0
DWIDTH 9 0
BBX 8 14 0 0
BITMAP
7E
00
18
18
00
7C
CE
CE
1E
6E
CE
CE
FE
77
ENDCHAR
STARTCHAR uni01E2
ENCODING 482
SWIDTH 1000 0
DWIDTH 19 0
BBX 17 15 0 0
BITMAP
01F800
000000
07FF80
03E180
02E080
06E000
04E000
0CE200
08FE00
1FE200
10E000
30E000
20E080
60E180
F9FF80
ENDCHAR
STARTCHAR uni01E3
ENCODING 483
SWIDTH 722 0
DWIDTH 13 0
BBX 12 11 0 0
BITMAP
1F80
0000
7DE0
E7B0
C730
0FF0
7F00
E700
C700
EFB0
79E0
ENDCHAR
STARTCHAR uni01E4
ENCODING 484
SWIDTH 778 0
DWIDTH 15 0
BBX 14 13 1 0
BITMAP
0F90
38F0
7070
7030
E000
E000
E0F8
E070
E070
707C
707C
38F0
0FC0
ENDCHAR
STARTCHAR uni01E5
ENCODING 485
SWIDTH 500 0
DWIDTH 9 0
BBX 9 13 0 -4
BITMAP
3F80
E700
E700
E700
E600
7800
6000
FE00
FF80
FF80
C180
E300
7E00
ENDCHAR
STARTCHAR Gcaron
ENCODING 486
SWIDTH 778 0
DWIDTH 15 0
BBX 13 17 1 0
BITMAP
0CC0
0780
0300
0000
0F90
38F0
7070
7030
E000
E000
E0F8
E070
E070
7070
7070
38F0
0FC0
ENDCHAR
STARTCHAR gcaron
ENCODING 487
SWIDTH 500 0
DWIDTH 9 0
BBX 9 17 0 -4
BITMAP
6600
3C00
1800
0000
3F80
E700
E700
E700
E600
7800
6000
FE00
FF80
E380
C180
E300
7E00
ENDCHAR
STARTCHAR uni01E8
ENCODING 488
SWIDTH 778 0
DWIDTH 15 0
BBX 12 17 2 0
BITMAP
3300
1E00
0C00
0000
F9F0
70C0
7180
7300
7600
7C00
7C00
7E00
7700
7780
73C0
71E0
F8F0
ENDCHAR
STARTCHAR uni01E9
ENCODING 489
SWIDTH 556 0
DWIDTH 10 0
BBX 10 17 0 0
BITMAP
CC00
7800
3000
0000
F000
7000
7000
7000
7380
7300
7600
7C00
7C00
7E00
7700
7380
F7C0
ENDCHAR
STARTCHAR uni01EA
ENCODING 490
SWIDTH 778 0
DWIDTH 15 0
BBX 13 17 1 -4
BITMAP
0F80
38E0
7070
7070
E038
E038
E038
E038
E038
7070
7070
38E0
0F80
0200
0400
0780
0300
ENDCHAR
STARTCHAR uni01EB
ENCODING 491
SWIDTH 500 0
DWIDTH 9 0
BBX 8 13 0 -4
BITMAP
3C
66
E7
E7
E7
E7
E7
66
3C
08
10
1E
0C
ENDCHAR
STARTCHAR uni01EC
ENCODING 492
SWIDTH 778 0
DWIDTH 15 0
BBX 13 19 1 -4
BITMAP
0FC0
0000
0F80
38E0
7070
7070
E038
E038
E038
E038
E038
7070
7070
38E0
0F80
0200
0400
0780
0300
ENDCHAR
STARTCHAR uni01ED
ENCODING 493
SWIDTH 500 0
DWIDTH 9 0
BBX 8 15 0 -4
BITMAP
7E
00
3C
66
E7
E7
E7
E7
E7
66
3C
08
10
1E
0C
ENDCHAR
STARTCHAR uni01F0
ENCODING 496
SWIDTH 333 0
DWIDTH 5 0
BBX 7 17 -2 -4
BITMAP
66
3C
18
00
3C
1C
1C
1C
1C
1C
1C
1C
1C
1C
DC
D8
70
ENDCHAR
STARTCHAR uni01F4
ENCODING 500
SWIDTH 778 0
DWIDTH 15 0
BBX 13 17 1 0
BITMAP
01C0
0380
0600
0000
0F90
38F0
7070
7030
E000
E000
E0F8
E070
E070
7070
7070
38F0
0FC0
ENDCHAR
STARTCHAR uni01F5
ENCODING 501
SWIDTH 500 0
DWIDTH 9 0
BBX 9 17 0 -4
BITMAP
0700
0E00
1800
0000
3F80
E700
E700
E700
E600
7800
6000
FE00
FF80
E380
C180
E300
7E00
ENDCHAR
STARTCHAR uni01F8
ENCODING 504
SWIDTH 722 0
DWIDTH 14 0
BBX 12 17 1 0
BITMAP
3800
1C00
0600
0000
F070
7820
7820
7C20
5E20
4E20
4F20
47A0
43A0
43E0
41E0
40E0
E0E0
ENDCHAR
STARTCHAR uni01F9
ENCODING 505
SWIDTH 556 0
DWIDTH 11 0
BBX 10 13 0 0
BITMAP
7000
3800
0C00
0000
E700
7F80
7380
7380
7380
7380
7380
7380
FBC0
ENDCHAR
STARTCHAR Aringacute
ENCODING 506
SWIDTH 722 0
DWIDTH 14 0
BBX 14 21 0 0
BITMAP
01C0
0380
0600
0000
0700
0D80
0D80
0700
0300
0380
0780
05C0
0DC0
08C0
18E0
1060
1FF0
3070
2038
6038
F8FC
ENDCHAR
STARTCHAR aringacute
ENCODING 507
SWIDTH 500 0
DWIDTH 9 0
BBX 8 17 0 0
BITMAP
0E
1C
30
00
38
6C
6C
38
7C
CE
CE
1E
6E
CE
CE
FE
77
ENDCHAR
STARTCHAR AEacute
ENCODING 508
SWIDTH 1000 0
DWIDTH 19 0
BBX 17 17 0 0
BITMAP
003800
007000
00C000
000000
07FF80
03E180
02E080
06E000
04E000
0CE200
08FE00
1FE200
10E000
30E000
20E080
60E180
F9FF80
ENDCHAR
STARTCHAR aeacute
ENCODING 509
SWIDTH 722 0
DWIDTH 13 0
BBX 12 13 0 0
BITMAP
01C0
0380
0600
0000
7DE0
E7B0
C730
0FF0
7F00
E700
C700
EFB0
79E0
ENDCHAR
STARTCHAR Oslashacute
ENCODING 510
SWIDTH 778 0
DWIDTH 15 0
BBX 13 19 1 -1
BITMAP
01C0
0380
0600
0000
0060
0FC0
38E0
70B0
71B0
E138
E338
E238
E638
E438
6C70
6870
38E0
1F80
3000
ENDCHAR
STARTCHAR oslashacute
ENCODING 511
SWIDTH 500 0
DWIDTH 9 0
BBX 10 15 -1 -1
BITMAP
0380
0700
0C00
0000
0040
1E80
3300
7380
7380
7780
7B80
7180
3300
5E00
8000
ENDCHAR
STARTCHAR uni0200
ENCODING 512
SWIDTH 722 0
DWIDTH 14 0
BBX 14 18 0 0
BITMAP
1980
0CC0
0CC0
0660
0000
0300
0380
0780
05C0
0DC0
08C0
18E0
1060
1FF0
3070
2038
6038
F8FC
ENDCHAR
STARTCHAR uni0201
ENCODING 513
SWIDTH 500 0
DWIDTH 9 0
BBX 9 14 -1 0
BITMAP
CC00
6600
6600
3300
0000
3E00
6700
6700
0F00
3700
6700
6700
7F00
3B80
ENDCHAR
STARTCHAR uni0202
ENCODING 514
SWIDTH 722 0
DWIDTH 14 0
BBX 14 17 0 0
BITMAP
0380
07C0
0440
0000
0300
0380
0780
05C0
0DC0
08C0
18E0
1060
1FF0
3070
2038
6038
F8FC
ENDCHAR
STARTCHAR uni0203
ENCODING 515
SWIDTH 500 0
DWIDTH 9 0
BBX 8 13 0 0
BITMAP
38
7C
44
00
7C
CE
CE
1E
6E
CE
CE
FE
77
ENDCHAR
STARTCHAR uni0204
ENCODING 516
SWIDTH 667 0
DWIDTH 13 0
BBX 10 18 2 0
BITMAP
CC00
6600
6600
3300
0000
FFC0
70C0
7040
7000
7000
7100
7F00
7100
7000
7000
7040
70C0
FFC0
ENDCHAR
STARTCHAR uni0205
ENCODING 517
SWIDTH 444 0
DWIDTH 8 0
BBX 8 14 -1 0
BITMAP
CC
66
66
33
00
1E
3B
73
7F
70
70
70
3B
1E
ENDCHAR
STARTCHAR uni0206
ENCODING 518
SWIDTH 667 0
DWIDTH 13 0
BBX 10 17 2 0
BITMAP
1C00
3E00
2200
0000
FFC0
70C0
7040
7000
7000
7100
7F00
7100
7000
7000
7040
70C0
FFC0
ENDCHAR
STARTCHAR uni0207
ENCODING 519
SWIDTH 444 0
DWIDTH 8 0
BBX 7 13 0 0
BITMAP
38
7C
44
00
3C
76
E6
FE
E0
E0
E0
76
3C
ENDCHAR
STARTCHAR uni0208
ENCODING 520
SWIDTH 389 0
DWIDTH 7 0
BBX 8 18 -1 0
BITMAP
CC
66
66
33
00
3E
1C
1C
1C
1C
1C
1C
1C
1C
1C
1C
1C
3E
ENDCHAR
STARTCHAR uni0209
ENCODING 521
SWIDTH 278 0
DWIDTH 5 0
BBX 8 14 -2 0
BITMAP
CC
66
66
33
00
3C
1C
1C
1C
1C
1C
1C
1C
3E
ENDCHAR
STARTCHAR uni020A
ENCODING 522
SWIDTH 389 0
DWIDTH 7 0
BBX 5 17 1 0
BITMAP
70
F8
88
00
F8
70
70
70
70
70
70
70
70
70
70
70
F8
ENDCHAR
STARTCHAR uni020B
ENCODING 523
SWIDTH 278 0
DWIDTH 5 0
BBX 5 13 0 0
BITMAP
70
F8
88
00
F0
70
70
70
70
70
70
70
F8
ENDCHAR
STARTCHAR uni020C
ENCODING 524
SWIDTH 778 0
DWIDTH 15 0
BBX 13 18 1 0
BITMAP
3300
1980
1980
0CC0
0000
0F80
38E0
7070
7070
E038
E038
E038
E038
E038
7070
7070
38E0
0F80
ENDCHAR
STARTCHAR uni020D
ENCODING 525
SWIDTH 500 0
DWIDTH 9 0
BBX 8 14 0 0
BITMAP
CC
66
66
33
00
3C
66
E7
E7
E7
E7
E7
66
3C
ENDCHAR
STARTCHAR uni020E
ENCODING 526
SWIDTH 778 0
DWIDTH 15 0
BBX 13 17 1 0
BITMAP
0700
0F80
0880
0000
0F80
38E0
7070
7070
E038
E038
E038
E038
E038
7070
7070
38E0
0F80
ENDCHAR
STARTCHAR uni020F
ENCODING 527
SWIDTH 500 0
DWIDTH 9 0
BBX 8 13 0 0
BITMAP
1C
3E
22
00
3C
66
E7
E7
E7
E7
E7
66
3C
ENDCHAR
STARTCHAR uni0210
ENCODING 528
SWIDTH 722 0
DWIDTH 14 0
BBX 12 18 1 0
BITMAP
6600
3300
3300
1980
0000
FF00
7380
71C0
71C0
71C0
7380
7F00
7700
7380
71C0
71C0
70E0
F8F0
ENDCHAR
STARTCHAR uni0211
ENCODING 529
SWIDTH 444 0
DWIDTH 8 0
BBX 8 14 -1 0
BITMAP
CC
66
66
33
00
77
3B
38
38
38
38
38
38
7C
ENDCHAR
STARTCHAR uni0212
ENCODING 530
SWIDTH 722 0
DWIDTH 14 0
BBX 12 17 1 0
BITMAP
0E00
1F00
1100
0000
FF00
7380
71C0
71C0
71C0
7380
7F00
7700
7380
71C0
71C0
70E0
F8F0
ENDCHAR
STARTCHAR uni0213
ENCODING 531
SWIDTH 444 0
DWIDTH 8 0
BBX 7 13 0 0
BITMAP
38
7C
44
00
EE
76
70
70
70
70
70
70
F8
ENDCHAR
STARTCHAR uni0214
ENCODING 532
SWIDTH 722 0
DWIDTH 14 0
BBX 12 18 1 0
BITMAP
6600
3300
3300
1980
0000
F8F0
7020
7020
7020
7020
7020
7020
7020
7020
7020
7060
38C0
1F80
ENDCHAR
STARTCHAR uni0215
ENCODING 533
SWIDTH 556 0
DWIDTH 11 0
BBX 10 14 0 0
BITMAP
6600
3300
3300
1980
0000
F780
7380
7380
7380
7380
7380
7380
7F80
3DC0
ENDCHAR
STARTCHAR uni0216
ENCODING 534
SWIDTH 722 0
DWIDTH 14 0
BBX 12 17 1 0
BITMAP
0E00
1F00
1100
0000
F8F0
7020
7020
7020
7020
7020
7020
7020
7020
7020
7060
38C0
1F80
ENDCHAR
STARTCHAR uni0217
ENCODING 535
SWIDTH 556 0
DWIDTH 11 0
BBX 10 13 0 0
BITMAP
1C00
3E00
2200
0000
F780
7380
7380
7380
7380
7380
7380
7F80
3DC0
ENDCHAR
STARTCHAR Scommaaccent
ENCODING 536
SWIDTH 556 0
DWIDTH 11 0
BBX 9 20 1 -7
BITMAP
1E80
6380
E180
E000
F800
7C00
3F00
0F80
0780
0380
C380
E700
BC00
0000
1C00
1C00
1C00
0C00
1800
3000
ENDCHAR
STARTCHAR scommaaccent
ENCODING 537
SWIDTH 389 0
DWIDTH 7 0
BBX 6 16 0 -7
BITMAP
7C
CC
E4
F0
78
3C
9C
CC
F8
00
38
38
38
18
30
60
ENDCHAR
STARTCHAR Tcommaaccent
ENCODING 538
SWIDTH 667 0
DWIDTH 13 0
BBX 11 20 1 -7
BITMAP
FFE0
CE60
8E20
0E00
0E00
0E00
0E00
0E00
0E00
0E00
0E00
0E00
1F00
0000
0E00
0E00
0E00
0600
0C00
1800
ENDCHAR
STARTCHAR tcommaaccent
ENCODING 539
SWIDTH 333 0
DWIDTH 7 0
BBX 6 18 0 -7
BITMAP
10
30
FC
70
70
70
70
70
70
74
38
00
38
38
38
18
30
60
ENDCHAR
STARTCHAR uni021E
ENCODING 542
SWIDTH 778 0
DWIDTH 15 0
BBX 13 17 1 0
BITMAP
0CC0
0780
0300
0000
F8F8
7070
7070
7070
7070
7070
7FF0
7070
7070
7070
7070
7070
F9F8
ENDCHAR
STARTCHAR uni021F
ENCODING 543
SWIDTH 556 0
DWIDTH 11 0
BBX 10 17 0 0
BITMAP
CC00
7800
3000
0000
F000
7000
7000
7000
7700
7F80
7380
7380
7380
7380
7380
7380
FBC0
ENDCHAR
STARTCHAR uni0226
ENCODING 550
SWIDTH 722 0
DWIDTH 14 0
BBX 14 16 0 0
BITMAP
0300
0300
0000
0300
0380
0780
05C0
0DC0
08C0
18E0
1060
1FF0
3070
2038
6038
F8FC
ENDCHAR
STARTCHAR uni0227
ENCODING 551
SWIDTH 500 0
DWIDTH 9 0
BBX 8 12 0 0
BITMAP
18
18
00
7C
CE
CE
1E
6E
CE
CE
FE
77
ENDCHAR
STARTCHAR uni0228
ENCODING 552
SWIDTH 667 0
DWIDTH 13 0
BBX 10 17 2 -4
BITMAP
FFC0
70C0
7040
7000
7000
7100
7F00
7100
7000
7000
7040
70C0
FFC0
0800
0600
2600
1C00
ENDCHAR
STARTCHAR uni0229
ENCODING 553
SWIDTH 444 0
DWIDTH 8 0
BBX 7 13 0 -4
BITMAP
3C
76
E6
FE
E0
E0
E0
76
3C
20
18
98
70
ENDCHAR
STARTCHAR uni022A
ENCODING 554
SWIDTH 778 0
DWIDTH 15 0
BBX 13 18 1 0
BITMAP
1F80
0000
1980
1980
0000
0F80
38E0
7070
7070
E038
E038
E038
E038
E038
7070
7070
38E0
0F80
ENDCHAR
STARTCHAR uni022B
ENCODING 555
SWIDTH 500 0
DWIDTH 9 0
BBX 8 14 0 0
BITMAP
7E
00
66
66
00
3C
66
E7
E7
E7
E7
E7
66
3C
ENDCHAR
STARTCHAR uni022C
ENCODING 556
SWIDTH 778 0
DWIDTH 15 0
BBX 13 19 1 0
BITMAP
1F80
0000
0C80
1F80
1300
0000
0F80
38E0
7070
7070
E038
E038
E038
E038
E038
7070
7070
38E0
0F80
ENDCHAR
STARTCHAR uni022D
ENCODING 557
SWIDTH 500 0
DWIDTH 9 0
BBX 8 15 0 0
BITMAP
7E
00
32
7E
4C
00
3C
66
E7
E7
E7
E7
E7
66
3C
ENDCHAR
STARTCHAR uni022E
ENCODING 558
SWIDTH 778 0
DWIDTH 15 0
BBX 13 16 1 0
BITMAP
0300
0300
0000
0F80
38E0
7070
7070
E038
E038
E038
E038
E038
7070
7070
38E0
0F80
ENDCHAR
STARTCHAR uni022F
ENCODING 559
SWIDTH 500 0
DWIDTH 9 0
BBX 8 12 0 0
BITMAP
18
18
00
3C
66
E7
E7
E7
E7
E7
66
3C
ENDCHAR
STARTCHAR uni0230
ENCODING 560
SWIDTH 778 0
DWIDTH 15 0
BBX 13 18 1 0
BITMAP
0FC0
0000
0300
0300
0000
0F80
38E0
7070
7070
E038
E038
E038
E038
E038
7070
7070
38E0
0F80
ENDCHAR
STARTCHAR uni0231
ENCODING 561
SWIDTH 500 0
DWIDTH 9 0
BBX 8 14 0 0
BITMAP
7E
00
18
18
00
3C
66
E7
E7
E7
E7
E7
66
3C
ENDCHAR
STARTCHAR uni0232
ENCODING 562
SWIDTH 722 0
DWIDTH 14 0
BBX 13 15 1 0
BITMAP
1F80
0000
FC78
7830
3860
3C40
1EC0
0E80
0F80
0700
0700
0700
0700
0700
1FC0
ENDCHAR
STARTCHAR uni0233
ENCODING 563
SWIDTH 500 0
DWIDTH 9 0
BBX 10 15 -1 -4
BITMAP
3F00
0000
FBC0
7180
7900
3B00
3A00
1E00
1E00
0C00
0C00
0C00
C800
D800
F000
ENDCHAR
STARTCHAR uni0250
ENCODING 592
SWIDTH 500 0
DWIDTH 9 0
BBX 8 9 0 0
BITMAP
EE
7F
73
73
76
78
73
73
3E
ENDCHAR
STARTCHAR uni0254
ENCODING 596
SWIDTH 444 0
DWIDTH 8 0
BBX 7 9 0 0
BITMAP
F8
DC
CE
0E
0E
0E
0E
DC
78
ENDCHAR
STARTCHAR uni0258
ENCODING 600
SWIDTH 444 0
DWIDTH 8 0
BBX 7 9 0 0
BITMAP
78
DC
CE
FE
0E
0E
0E
DC
78
ENDCHAR
STARTCHAR uni0259
ENCODING 601
SWIDTH 444 0
DWIDTH 8 0
BBX 7 9 0 0
BITMAP
78
DC
0E
0E
0E
FE
CE
DC
78
ENDCHAR
STARTCHAR uni025F
ENCODING 607
SWIDTH 333 0
DWIDTH 6 0
BBX 7 13 0 -4
BITMAP
3E
1C
1C
1C
1C
1C
1C
1C
7E
1C
DC
DC
F8
ENDCHAR
STARTCHAR uni0265
ENCODING 613
SWIDTH 556 0
DWIDTH 11 0
BBX 10 13 0 -4
BITMAP
F7C0
7380
7380
7380
7380
7380
7380
7F80
3B80
0380
0380
0380
03C0
ENDCHAR
STARTCHAR uni0275
ENCODING 629
SWIDTH 500 0
DWIDTH 9 0
BBX 8 9 0 0
BITMAP
3C
66
E7
FF
FF
E7
E7
66
3C
ENDCHAR
STARTCHAR uni0279
ENCODING 633
SWIDTH 444 0
DWIDTH 8 0
BBX 7 9 0 0
BITMAP
3E
1C
1C
1C
1C
1C
1C
DC
EE
ENDCHAR
STARTCHAR uni0287
ENCODING 647
SWIDTH 333 0
DWIDTH 7 0
BBX 6 11 0 0
BITMAP
70
B8
38
38
38
38
38
38
FC
30
20
ENDCHAR
STARTCHAR uni0288
ENCODING 648
SWIDTH 333 0
DWIDTH 7 0
BBX 7 15 0 -4
BITMAP
10
30
FC
70
70
70
70
70
70
70
70
70
76
36
1C
ENDCHAR
STARTCHAR uni0289
ENCODING 649
SWIDTH 556 0
DWIDTH 11 0
BBX 10 9 0 0
BITMAP
F780
7380
7380
FFC0
FFC0
7380
7380
7F80
3DC0
ENDCHAR
STARTCHAR uni028C
ENCODING 652
SWIDTH 500 0
DWIDTH 9 0
BBX 10 9 -1 0
BITMAP
0C00
0C00
1E00
1E00
3700
3700
2780
6380
F7C0
ENDCHAR
STARTCHAR uni028D
ENCODING 653
SWIDTH 722 0
DWIDTH 12 0
BBX 14 9 -1 0
BITMAP
0CC0
0CC0
1FE0
1EE0
1670
3770
2738
63B8
E7BC
ENDCHAR
STARTCHAR uni028E
ENCODING 654
SWIDTH 500 0
DWIDTH 9 0
BBX 10 13 -1 0
BITMAP
03C0
06C0
04C0
0C00
0C00
0C00
1E00
1E00
1700
3700
2780
6380
F7C0
ENDCHAR
STARTCHAR uni029E
ENCODING 670
SWIDTH 556 0
DWIDTH 10 0
BBX 10 13 0 -4
BITMAP
FBC0
7380
3B80
1F80
0F80
0F80
1B80
3380
7380
0380
0380
0380
03C0
ENDCHAR
STARTCHAR uni02BB
ENCODING 699
SWIDTH 333 0
DWIDTH 6 0
BBX 4 6 1 7
BITMAP
30
60
C0
E0
E0
E0
ENDCHAR
STARTCHAR afii57929
ENCODING 700
SWIDTH 333 0
DWIDTH 6 0
BBX 4 6 1 7
BITMAP
70
70
70
30
60
C0
ENDCHAR
STARTCHAR afii64937
ENCODING 701
SWIDTH 333 0
DWIDTH 6 0
BBX 4 6 1 7
BITMAP
E0
E0
E0
C0
60
30
ENDCHAR
STARTCHAR circumflex
ENCODING 710
SWIDTH 333 0
DWIDTH 6 0
BBX 6 3 0 10
BITMAP
30
78
CC
ENDCHAR
STARTCHAR caron
ENCODING 711
SWIDTH 333 0
DWIDTH 6 0
BBX 6 3 0 10
BITMAP
CC
78
30
ENDCHAR
STARTCHAR uni02C8
ENCODING 712
SWIDTH 278 0
DWIDTH 5 0
BBX 2 6 1 7
BITMAP
C0
C0
C0
C0
80
80
ENDCHAR
STARTCHAR macron
ENCODING 713
SWIDTH 333 0
DWIDTH 6 0
BBX 6 1 0 11
BITMAP
FC
ENDCHAR
STARTCHAR uni02CA
ENCODING 714
SWIDTH 333 0
DWIDTH 6 0
BBX 5 3 0 10
BITMAP
38
70
C0
ENDCHAR
STARTCHAR uni02CB
ENCODING 715
SWIDTH 333 0
DWIDTH 6 0
BBX 5 3 0 10
BITMAP
E0
70
18
ENDCHAR
STARTCHAR uni02CD
ENCODING 717
SWIDTH 333 0
DWIDTH 6 0
BBX 6 1 0 -2
BITMAP
FC
ENDCHAR
STARTCHAR uni02CE
ENCODING 718
SWIDTH 333 0
DWIDTH 6 0
BBX 5 3 0 -4
BITMAP
E0
70
18
ENDCHAR
STARTCHAR uni02CF
ENCODING 719
SWIDTH 333 0
DWIDTH 6 0
BBX 5 3 0 -4
BITMAP
38
70
C0
ENDCHAR
STARTCHAR breve
ENCODING 728
SWIDTH 333 0
DWIDTH 6 0
BBX 5 3 0 10
BITMAP
88
F8
70
ENDCHAR
STARTCHAR dotaccent
ENCODING 729
SWIDTH 333 0
DWIDTH 6 0
BBX 2 2 2 10
BITMAP
C0
C0
ENDCHAR
STARTCHAR ring
ENCODING 730
SWIDTH 333 0
DWIDTH 6 0
BBX 5 4 1 9
BITMAP
70
D8
D8
70
ENDCHAR
STARTCHAR ogonek
ENCODING 731
SWIDTH 333 0
DWIDTH 6 0
BBX 4 4 2 -4
BITMAP
40
80
F0
60
ENDCHAR
STARTCHAR tilde
ENCODING 732
SWIDTH 333 0
DWIDTH 6 0
BBX 6 3 0 10
BITMAP
64
FC
98
ENDCHAR
STARTCHAR hungarumlaut
ENCODING 733
SWIDTH 333 0
DWIDTH 6 0
BBX 8 4 -1 10
BITMAP
33
66
66
CC
ENDCHAR
STARTCHAR uni02EE
ENCODING 750
SWIDTH 500 0
DWIDTH 9 0
BBX 8 6 0 7
BITMAP
77
77
77
33
66
CC
ENDCHAR
STARTCHAR uni037E
ENCODING 894
SWIDTH 333 0
DWIDTH 5 0
BBX 4 12 0 -3
BITMAP
70
70
70
00
00
00
70
70
70
30
60
C0
ENDCHAR
STARTCHAR tonos
ENCODING 900
SWIDTH 333 0
DWIDTH 6 0
BBX 5 3 0 10
BITMAP
38
70
C0
ENDCHAR
STARTCHAR dieresistonos
ENCODING 901
SWIDTH 333 0
DWIDTH 6 0
BBX 7 6 0 10
BITMAP
0E
1C
30
00
CC
CC
ENDCHAR
STARTCHAR anoteleia
ENCODING 903
SWIDTH 250 0
DWIDTH 5 0
BBX 3 3 1 4
BITMAP
E0
E0
E0
ENDCHAR
STARTCHAR mu
ENCODING 956
SWIDTH 556 0
DWIDTH 11 0
BBX 10 13 0 -4
BITMAP
F780
7380
7380
7380
7380
7380
7380
7F80
7DC0
6000
E000
F000
6000
ENDCHAR
STARTCHAR uni1E00
ENCODING 7680
SWIDTH 722 0
DWIDTH 14 0
BBX 14 18 0 -5
BITMAP
0300
0380
0780
05C0
0DC0
08C0
18E0
1060
1FF0
3070
2038
6038
F8FC
0000
0380
06C0
06C0
0380
ENDCHAR
STARTCHAR uni1E01
ENCODING 7681
SWIDTH 500 0
DWIDTH 9 0
BBX 8 14 0 -5
BITMAP
7C
CE
CE
1E
6E
CE
CE
FE
77
00
38
6C
6C
38
ENDCHAR
STARTCHAR uni1E02
ENCODING 7682
SWIDTH 667 0
DWIDTH 13 0
BBX 10 16 1 0
BITMAP
0C00
0C00
0000
FE00
7380
71C0
71C0
71C0
7380
7E00
7380
71C0
71C0
71C0
7380
FF00
ENDCHAR
STARTCHAR uni1E03
ENCODING 7683
SWIDTH 556 0
DWIDTH 9 0
BBX 9 16 -1 0
BITMAP
3000
3000
0000
F000
7000
7000
7000
7600
7F00
7380
7380
7380
7380
7380
7300
6E00
ENDCHAR
STARTCHAR uni1E04
ENCODING 7684
SWIDTH 667 0
DWIDTH 13 0
BBX 10 16 1 -3
BITMAP
FE00
7380
71C0
71C0
71C0
7380
7E00
7380
71C0
71C0
71C0
7380
FF00
0000
0C00
0C00
ENDCHAR
STARTCHAR uni1E05
ENCODING 7685
SWIDTH 556 0
DWIDTH 9 0
BBX 9 16 -1 -3
BITMAP
F000
7000
7000
7000
7600
7F00
7380
7380
7380
7380
7380
7300
6E00
0000
0C00
0C00
ENDCHAR
STARTCHAR uni1E06
ENCODING 7686
SWIDTH 667 0
DWIDTH 13 0
BBX 10 15 1 -2
BITMAP
FE00
7380
71C0
71C0
71C0
7380
7E00
7380
71C0
71C0
71C0
7380
FF00
0000
3F00
ENDCHAR
STARTCHAR uni1E07
ENCODING 7687
SWIDTH 556 0
DWIDTH 9 0
BBX 9 15 -1 -2
BITMAP
F000
7000
7000
7000
7600
7F00
7380
7380
7380
7380
7380
7300
6E00
0000
3F00
ENDCHAR
STARTCHAR uni1E08
ENCODING 7688
SWIDTH 722 0
DWIDTH 14 0
BBX 12 21 1 -4
BITMAP
01C0
0380
0600
0000
0F90
38F0
7070
7030
E000
E000
E000
E000
E000
7000
7030
3CE0
0F80
0400
0300
1300
0E00
ENDCHAR
STARTCHAR uni1E09
ENCODING 7689
SWIDTH 444 0
DWIDTH 8 0
BBX 7 17 0 -4
BITMAP
0E
1C
30
00
3E
76
E6
E0
E0
E0
E0
76
3C
10
0C
4C
38
ENDCHAR
STARTCHAR uni1E0A
ENCODING 7690
SWIDTH 722 0
DWIDTH 14 0
BBX 12 16 1 0
BITMAP
0C00
0C00
0000
FF00
71C0
70E0
7060
7070
7070
7070
7070
7070
7060
70E0
71C0
FF00
ENDCHAR
STARTCHAR uni1E0B
ENCODING 7691
SWIDTH 556 0
DWIDTH 10 0
BBX 9 16 0 0
BITMAP
0600
0600
0000
0F00
0700
0700
0700
3700
7F00
E700
E700
E700
E700
E700
7700
3B80
ENDCHAR
STARTCHAR uni1E0C
ENCODING 7692
SWIDTH 722 0
DWIDTH 14 0
BBX 12 16 1 -3
BITMAP
FF00
71C0
70E0
7060
7070
7070
7070
7070
7070
7060
70E0
71C0
FF00
0000
0C00
0C00
ENDCHAR
STARTCHAR uni1E0D
ENCODING 7693
SWIDTH 556 0
DWIDTH 10 0
BBX 9 16 0 -3
BITMAP
0F00
0700
0700
0700
3700
7F00
E700
E700
E700
E700
E700
7700
3B80
0000
0C00
0C00
ENDCHAR
STARTCHAR uni1E0E
ENCODING 7694
SWIDTH 722 0
DWIDTH 14 0
BBX 12 15 1 -2
BITMAP
FF00
71C0
70E0
7060
7070
7070
7070
7070
7070
7060
70E0
71C0
FF00
0000
3F00
ENDCHAR
STARTCHAR uni1E0F
ENCODING 7695
SWIDTH 556 0
DWIDTH 10 0
BBX 9 15 0 -2
BITMAP
0F00
0700
0700
0700
3700
7F00
E700
E700
E700
E700
E700
7700
3B80
0000
3F00
ENDCHAR
STARTCHAR uni1E10
ENCODING 7696
SWIDTH 722 0
DWIDTH 14 0
BBX 12 17 1 -4
BITMAP
FF00
71C0
70E0
7060
7070
7070
7070
7070
7070
7060
70E0
71C0
FF00
0800
0600
2600
1C00
ENDCHAR
STARTCHAR uni1E11
ENCODING 7697
SWIDTH 556 0
DWIDTH 10 0
BBX 9 17 0 -4
BITMAP
0F00
0700
0700
0700
3700
7F00
E700
E700
E700
E700
E700
7700
3B80
1000
0C00
4C00
3800
ENDCHAR
STARTCHAR uni1E12
ENCODING 7698
SWIDTH 722 0
DWIDTH 14 0
BBX 12 17 1 -4
BITMAP
FF00
71C0
70E0
7060
7070
7070
7070
7070
7070
7060
70E0
71C0
FF00
0000
0C00
1E00
3300
ENDCHAR
STARTCHAR uni1E13
ENCODING 7699
SWIDTH 556 0
DWIDTH 10 0
BBX 9 17 0 -4
BITMAP
0F00
0700
0700
0700
3700
7F00
E700
E700
E700
E700
E700
7700
3B80
0000
0C00
1E00
3300
ENDCHAR
STARTCHAR uni1E14
ENCODING 7700
SWIDTH 667 0
DWIDTH 13 0
BBX 10 19 2 0
BITMAP
3800
1C00
0600
0000
3F00
0000
FFC0
70C0
7040
7000
7000
7100
7F00
7100
7000
7000
7040
70C0
FFC0
ENDCHAR
STARTCHAR uni1E15
ENCODING 7701
SWIDTH 444 0
DWIDTH 8 0
BBX 7 15 0 0
BITMAP
E0
70
18
00
7E
00
3C
76
E6
FE
E0
E0
E0
76
3C
ENDCHAR
STARTCHAR uni1E16
ENCODING 7702
SWIDTH 667 0
DWIDTH 13 0
BBX 10 19 2 0
BITMAP
0380
0700
0C00
0000
3F00
0000
FFC0
70C0
7040
7000
7000
7100
7F00
7100
7000
7000
7040
70C0
FFC0
ENDCHAR
STARTCHAR uni1E17
ENCODING 7703
SWIDTH 444 0
DWIDTH 8 0
BBX 7 15 0 0
BITMAP
0E
1C
30
00
7E
00
3C
76
E6
FE
E0
E0
E0
76
3C
ENDCHAR
STARTCHAR uni1E18
ENCODING 7704
SWIDTH 667 0
DWIDTH 13 0
BBX 10 17 2 -4
BITMAP
FFC0
70C0
7040
7000
7000
7100
7F00
7100
7000
7000
7040
70C0
FFC0
0000
0C00
1E00
3300
ENDCHAR
STARTCHAR uni1E19
ENCODING 7705
SWIDTH 444 0
DWIDTH 8 0
BBX 7 13 0 -4
BITMAP
3C
76
E6
FE
E0
E0
E0
76
3C
00
30
78
CC
ENDCHAR
STARTCHAR uni1E1A
ENCODING 7706
SWIDTH 667 0
DWIDTH 13 0
BBX 10 17 2 -4
BITMAP
FFC0
70C0
7040
7000
7000
7100
7F00
7100
7000
7000
7040
70C0
FFC0
0000
1900
3F00
2600
ENDCHAR
STARTCHAR uni1E1B
ENCODING 7707
SWIDTH 444 0
DWIDTH 8 0
BBX 7 13 0 -4
BITMAP
3C
76
E6
FE
E0
E0
E0
76
3C
00
64
FC
98
ENDCHAR
STARTCHAR uni1E1C
ENCODING 7708
SWIDTH 667 0
DWIDTH 13 0
BBX 10 21 2 -4
BITMAP
2200
3E00
1C00
0000
FFC0
70C0
7040
7000
7000
7100
7F00
7100
7000
7000
7040
70C0
FFC0
0800
0600
2600
1C00
ENDCHAR
STARTCHAR uni1E1D
ENCODING 7709
SWIDTH 444 0
DWIDTH 8 0
BBX 7 17 0 -4
BITMAP
44
7C
38
00
3C
76
E6
FE
E0
E0
E0
76
3C
20
18
98
70
ENDCHAR
STARTCHAR uni1E1E
ENCODING 7710
SWIDTH 611 0
DWIDTH 12 0
BBX 10 16 2 0
BITMAP
0C00
0C00
0000
FFC0
70C0
7040
7000
7000
7100
7F00
7100
7000
7000
7000
7000
F800
ENDCHAR
STARTCHAR uni1E1F
ENCODING 7711
SWIDTH 333 0
DWIDTH 6 0
BBX 7 16 0 0
BITMAP
18
18
00
3E
76
76
70
FC
70
70
70
70
70
70
70
F8
ENDCHAR
STARTCHAR uni1E20
ENCODING 7712
SWIDTH 778 0
DWIDTH 15 0
BBX 13 15 1 0
BITMAP
0FC0
0000
0F90
38F0
7070
7030
E000
E000
E0F8
E070
E070
7070
7070
38F0
0FC0
ENDCHAR
STARTCHAR uni1E21
ENCODING 7713
SWIDTH 500 0
DWIDTH 9 0
BBX 9 15 0 -4
BITMAP
7E00
0000
3F80
E700
E700
E700
E600
7800
6000
FE00
FF80
E380
C180
E300
7E00
ENDCHAR
STARTCHAR uni1E22
ENCODING 7714
SWIDTH 778 0
DWIDTH 15 0
BBX 13 16 1 0
BITMAP
0300
0300
0000
F8F8
7070
7070
7070
7070
7070
7FF0
7070
7070
7070
7070
7070
F9F8
ENDCHAR
STARTCHAR uni1E23
ENCODING 7715
SWIDTH 556 0
DWIDTH 11 0
BBX 10 16 0 0
BITMAP
3000
3000
0000
F000
7000
7000
7000
7700
7F80
7380
7380
7380
7380
7380
7380
FBC0
ENDCHAR
STARTCHAR uni1E24
ENCODING 7716
SWIDTH 778 0
DWIDTH 15 0
BBX 13 16 1 -3
BITMAP
F8F8
7070
7070
7070
7070
7070
7FF0
7070
7070
7070
7070
7070
F9F8
0000
0300
0300
ENDCHAR
STARTCHAR uni1E25
ENCODING 7717
SWIDTH 556 0
DWIDTH 11 0
BBX 10 16 0 -3
BITMAP
F000
7000
7000
7000
7700
7F80
7380
7380
7380
7380
7380
7380
FBC0
0000
0C00
0C00
ENDCHAR
STARTCHAR uni1E26
ENCODING 7718
SWIDTH 778 0
DWIDTH 15 0
BBX 13 16 1 0
BITMAP
0CC0
0CC0
0000
F8F8
7070
7070
7070
7070
7070
7FF0
7070
7070
7070
7070
7070
F9F8
ENDCHAR
STARTCHAR uni1E27
ENCODING 7719
SWIDTH 556 0
DWIDTH 11 0
BBX 10 16 0 0
BITMAP
CC00
CC00
0000
F000
7000
7000
7000
7700
7F80
7380
7380
7380
7380
7380
7380
FBC0
ENDCHAR
STARTCHAR uni1E28
ENCODING 7720
SWIDTH 778 0
DWIDTH 15 0
BBX 13 17 1 -4
BITMAP
F8F8
7070
7070
7070
7070
7070
7FF0
7070
7070
7070
7070
7070
F9F8
0400
0300
1300
0E00
ENDCHAR
STARTCHAR uni1E29
ENCODING 7721
SWIDTH 556 0
DWIDTH 11 0
BBX 10 17 0 -4
BITMAP
F000
7000
7000
7000
7700
7F80
7380
7380
7380
7380
7380
7380
FBC0
0800
0600
2600
1C00
ENDCHAR
STARTCHAR uni1E2A
ENCODING 7722
SWIDTH 778 0
DWIDTH 15 0
BBX 13 17 1 -4
BITMAP
F8F8
7070
7070
7070
7070
7070
7FF0
7070
7070
7070
7070
7070
F9F8
0000
0880
0F80
0700
ENDCHAR
STARTCHAR uni1E2B
ENCODING 7723
SWIDTH 556 0
DWIDTH 11 0
BBX 10 17 0 -4
BITMAP
F000
7000
7000
7000
7700
7F80
7380
7380
7380
7380
7380
7380
FBC0
0000
2200
3E00
1C00
ENDCHAR
STARTCHAR uni1E2C
ENCODING 7724
SWIDTH 389 0
DWIDTH 7 0
BBX 6 17 0 -4
BITMAP
7C
38
38
38
38
38
38
38
38
38
38
38
7C
00
64
FC
98
ENDCHAR
STARTCHAR uni1E2D
ENCODING 7725
SWIDTH 278 0
DWIDTH 5 0
BBX 6 17 -1 -4
BITMAP
30
30
30
00
78
38
38
38
38
38
38
38
7C
00
64
FC
98
ENDCHAR
STARTCHAR uni1E2E
ENCODING 7726
SWIDTH 389 0
DWIDTH 7 0
BBX 6 20 1 0
BITMAP
1C
38
60
00
CC
CC
00
F8
70
70
70
70
70
70
70
70
70
70
70
F8
ENDCHAR
STARTCHAR uni1E2F
ENCODING 7727
SWIDTH 278 0
DWIDTH 5 0
BBX 6 16 0 0
BITMAP
1C
38
60
00
CC
CC
00
F0
70
70
70
70
70
70
70
F8
ENDCHAR
STARTCHAR uni1E30
ENCODING 7728
SWIDTH 778 0
DWIDTH 15 0
BBX 12 17 2 0
BITMAP
0380
0700
0C00
0000
F9F0
70C0
7180
7300
7600
7C00
7C00
7E00
7700
7780
73C0
71E0
F8F0
ENDCHAR
STARTCHAR uni1E31
ENCODING 7729
SWIDTH 556 0
DWIDTH 10 0
BBX 10 17 0 0
BITMAP
0E00
1C00
3000
0000
F000
7000
7000
7000
7380
7300
7600
7C00
7C00
7E00
7700
7380
F7C0
ENDCHAR
STARTCHAR uni1E32
ENCODING 7730
SWIDTH 778 0
DWIDTH 15 0
BBX 12 16 2 -3
BITMAP
F9F0
70C0
7180
7300
7600
7C00
7C00
7E00
7700
7780
73C0
71E0
F8F0
0000
0600
0600
ENDCHAR
STARTCHAR uni1E33
ENCODING 7731
SWIDTH 556 0
DWIDTH 10 0
BBX 10 16 0 -3
BITMAP
F000
7000
7000
7000
7380
7300
7600
7C00
7C00
7E00
7700
7380
F7C0
0000
0C00
0C00
ENDCHAR
STARTCHAR uni1E34
ENCODING 7732
SWIDTH 778 0
DWIDTH 15 0
BBX 12 15 2 -2
BITMAP
F9F0
70C0
7180
7300
7600
7C00
7C00
7E00
7700
7780
73C0
71E0
F8F0
0000
1F80
ENDCHAR
STARTCHAR uni1E35
ENCODING 7733
SWIDTH 556 0
DWIDTH 10 0
BBX 10 15 0 -2
BITMAP
F000
7000
7000
7000
7380
7300
7600
7C00
7C00
7E00
7700
7380
F7C0
0000
3F00
ENDCHAR
STARTCHAR uni1E36
ENCODING 7734
SWIDTH 667 0
DWIDTH 13 0
BBX 10 16 2 -3
BITMAP
F800
7000
7000
7000
7000
7000
7000
7000
7000
7000
7040
70C0
FFC0
0000
0C00
0C00
ENDCHAR
STARTCHAR uni1E37
ENCODING 7735
SWIDTH 278 0
DWIDTH 6 0
BBX 5 16 0 -3
BITMAP
F0
70
70
70
70
70
70
70
70
70
70
70
F8
00
30
30
ENDCHAR
STARTCHAR uni1E38
ENCODING 7736
SWIDTH 667 0
DWIDTH 13 0
BBX 10 18 2 -3
BITMAP
FC00
0000
F800
7000
7000
7000
7000
7000
7000
7000
7000
7000
7040
70C0
FFC0
0000
0C00
0C00
ENDCHAR
STARTCHAR uni1E39
ENCODING 7737
SWIDTH 278 0
DWIDTH 6 0
BBX 6 18 -1 -3
BITMAP
FC
00
78
38
38
38
38
38
38
38
38
38
38
38
7C
00
18
18
ENDCHAR
STARTCHAR uni1E3A
ENCODING 7738
SWIDTH 667 0
DWIDTH 13 0
BBX 10 15 2 -2
BITMAP
F800
7000
7000
7000
7000
7000
7000
7000
7000
7000
7040
70C0
FFC0
0000
3F00
ENDCHAR
STARTCHAR uni1E3B
ENCODING 7739
SWIDTH 278 0
DWIDTH 6 0
BBX 6 15 0 -2
BITMAP
F0
70
70
70
70
70
70
70
70
70
70
70
F8
00
FC
ENDCHAR
STARTCHAR uni1E3C
ENCODING 7740
SWIDTH 667 0
DWIDTH 13 0
BBX 10 17 2 -4
BITMAP
F800
7000
7000
7000
7000
7000
7000
7000
7000
7000
7040
70C0
FFC0
0000
0C00
1E00
3300
ENDCHAR
STARTCHAR uni1E3D
ENCODING 7741
SWIDTH 278 0
DWIDTH 6 0
BBX 6 17 0 -4
BITMAP
F0
70
70
70
70
70
70
70
70
70
70
70
F8
00
30
78
CC
ENDCHAR
STARTCHAR uni1E3E
ENCODING 7742
SWIDTH 944 0
DWIDTH 18 0
BBX 15 17 2 0
BITMAP
00E0
01C0
0300
0000
F01E
701C
783C
783C
7C5C
5C5C
5EDC
4E9C
4F9C
471C
471C
431C
E23E
ENDCHAR
STARTCHAR uni1E3F
ENCODING 7743
SWIDTH 833 0
DWIDTH 16 0
BBX 15 13 0 0
BITMAP
00E0
01C0
0300
0000
F738
7BDC
739C
739C
739C
739C
739C
739C
FBDE
ENDCHAR
STARTCHAR uni1E40
ENCODING 7744
SWIDTH 944 0
DWIDTH 18 0
BBX 15 16 2 0
BITMAP
0180
0180
0000
F01E
701C
783C
783C
7C5C
5C5C
5EDC
4E9C
4F9C
471C
471C
431C
E23E
ENDCHAR
STARTCHAR uni1E41
ENCODING 7745
SWIDTH 833 0
DWIDTH 16 0
BBX 15 12 0 0
BITMAP
0300
0300
0000
F738
7BDC
739C
739C
739C
739C
739C
739C
FBDE
ENDCHAR
STARTCHAR uni1E42
ENCODING 7746
SWIDTH 944 0
DWIDTH 18 0
BBX 15 16 2 -3
BITMAP
F01E
701C
783C
783C
7C5C
5C5C
5EDC
4E9C
4F9C
471C
471C
431C
E23E
0000
0180
0180
ENDCHAR
STARTCHAR uni1E43
ENCODING 7747
SWIDTH 833 0
DWIDTH 16 0
BBX 15 12 0 -3
BITMAP
F738
7BDC
739C
739C
739C
739C
739C
739C
FBDE
0000
0300
0300
ENDCHAR
STARTCHAR uni1E44
ENCODING 7748
SWIDTH 722 0
DWIDTH 14 0
BBX 12 16 1 0
BITMAP
0C00
0C00
0000
F070
7820
7820
7C20
5E20
4E20
4F20
47A0
43A0
43E0
41E0
40E0
E0E0
ENDCHAR
STARTCHAR uni1E45
ENCODING 7749
SWIDTH 556 0
DWIDTH 11 0
BBX 10 12 0 0
BITMAP
0C00
0C00
0000
E700
7F80
7380
7380
7380
7380
7380
7380
FBC0
ENDCHAR
STARTCHAR uni1E46
ENCODING 7750
SWIDTH 722 0
DWIDTH 14 0
BBX 12 16 1 -3
BITMAP
F070
7820
7820
7C20
5E20
4E20
4F20
47A0
43A0
43E0
41E0
40E0
E0E0
0000
0300
0300
ENDCHAR
STARTCHAR uni1E47
ENCODING 7751
SWIDTH 556 0
DWIDTH 11 0
BBX 10 12 0 -3
BITMAP
E700
7F80
7380
7380
7380
7380
7380
7380
FBC0
0000
0C00
0C00
ENDCHAR
STARTCHAR uni1E48
ENCODING 7752
SWIDTH 722 0
DWIDTH 14 0
BBX 12 15 1 -2
BITMAP
F070
7820
7820
7C20
5E20
4E20
4F20
47A0
43A0
43E0
41E0
40E0
E0E0
0000
0FC0
ENDCHAR
STARTCHAR uni1E49
ENCODING 7753
SWIDTH 556 0
DWIDTH 11 0
BBX 10 11 0 -2
BITMAP
E700
7F80
7380
7380
7380
7380
7380
7380
FBC0
0000
3F00
ENDCHAR
STARTCHAR uni1E4A
ENCODING 7754
SWIDTH 722 0
DWIDTH 14 0
BBX 12 17 1 -4
BITMAP
F070
7820
7820
7C20
5E20
4E20
4F20
47A0
43A0
43E0
41E0
40E0
E0E0
0000
0300
0780
0CC0
ENDCHAR
STARTCHAR uni1E4B
ENCODING 7755
SWIDTH 556 0
DWIDTH 11 0
BBX 10 13 0 -4
BITMAP
E700
7F80
7380
7380
7380
7380
7380
7380
FBC0
0000
0C00
1E00
3300
ENDCHAR
STARTCHAR uni1E4C
ENCODING 7756
SWIDTH 778 0
DWIDTH 15 0
BBX 13 21 1 0
BITMAP
01C0
0380
0600
0000
0C80
1F80
1300
0000
0F80
38E0
7070
7070
E038
E038
E038
E038
E038
7070
7070
38E0
0F80
ENDCHAR
STARTCHAR uni1E4D
ENCODING 7757
SWIDTH 500 0
DWIDTH 9 0
BBX 8 17 0 0
BITMAP
07
0E
18
00
32
7E
4C
00
3C
66
E7
E7
E7
E7
E7
66
3C
ENDCHAR
STARTCHAR uni1E4E
ENCODING 7758
SWIDTH 778 0
DWIDTH 15 0
BBX 13 20 1 0
BITMAP
1980
1980
0000
0C80
1F80
1300
0000
0F80
38E0
7070
7070
E038
E038
E038
E038
E038
7070
7070
38E0
0F80
ENDCHAR
STARTCHAR uni1E4F
ENCODING 7759
SWIDTH 500 0
DWIDTH 9 0
BBX 8 16 0 0
BITMAP
66
66
00
32
7E
4C
00
3C
66
E7
E7
E7
E7
E7
66
3C
ENDCHAR
STARTCHAR uni1E50
ENCODING 7760
SWIDTH 778 0
DWIDTH 15 0
BBX 13 19 1 0
BITMAP
1C00
0E00
0300
0000
0FC0
0000
0F80
38E0
7070
7070
E038
E038
E038
E038
E038
7070
7070
38E0
0F80
ENDCHAR
STARTCHAR uni1E51
ENCODING 7761
SWIDTH 500 0
DWIDTH 9 0
BBX 8 15 0 0
BITMAP
70
38
0C
00
7E
00
3C
66
E7
E7
E7
E7
E7
66
3C
ENDCHAR
STARTCHAR uni1E52
ENCODING 7762
SWIDTH 778 0
DWIDTH 15 0
BBX 13 19 1 0
BITMAP
01C0
0380
0600
0000
0FC0
0000
0F80
38E0
7070
7070
E038
E038
E038
E038
E038
7070
7070
38E0
0F80
ENDCHAR
STARTCHAR uni1E53
ENCODING 7763
SWIDTH 500 0
DWIDTH 9 0
BBX 8 15 0 0
BITMAP
07
0E
18
00
7E
00
3C
66
E7
E7
E7
E7
E7
66
3C
ENDCHAR
STARTCHAR uni1E54
ENCODING 7764
SWIDTH 611 0
DWIDTH 12 0
BBX 10 17 1 0
BITMAP
0700
0E00
1800
0000
FF00
7380
71C0
71C0
71C0
7380
7F00
7000
7000
7000
7000
7000
F800
ENDCHAR
STARTCHAR uni1E55
ENCODING 7765
SWIDTH 556 0
DWIDTH 10 0
BBX 9 17 0 -4
BITMAP
0700
0E00
1800
0000
E600
7F00
7380
7380
7380
7380
7380
7B00
7600
7000
7000
7000
F800
ENDCHAR
STARTCHAR uni1E56
ENCODING 7766
SWIDTH 611 0
DWIDTH 12 0
BBX 10 16 1 0
BITMAP
0C00
0C00
0000
FF00
7380
71C0
71C0
71C0
7380
7F00
7000
7000
7000
7000
7000
F800
ENDCHAR
STARTCHAR uni1E57
ENCODING 7767
SWIDTH 556 0
DWIDTH 10 0
BBX 9 16 0 -4
BITMAP
0C00
0C00
0000
E600
7F00
7380
7380
7380
7380
7380
7B00
7600
7000
7000
7000
F800
ENDCHAR
STARTCHAR uni1E58
ENCODING 7768
SWIDTH 722 0
DWIDTH 14 0
BBX 12 16 1 0
BITMAP
0C00
0C00
0000
FF00
7380
71C0
71C0
71C0
7380
7F00
7700
7380
71C0
71C0
70E0
F8F0
ENDCHAR
STARTCHAR uni1E59
ENCODING 7769
SWIDTH 444 0
DWIDTH 8 0
BBX 7 12 0 0
BITMAP
30
30
00
EE
76
70
70
70
70
70
70
F8
ENDCHAR
STARTCHAR uni1E5A
ENCODING 7770
SWIDTH 722 0
DWIDTH 14 0
BBX 12 16 1 -3
BITMAP
FF00
7380
71C0
71C0
71C0
7380
7F00
7700
7380
71C0
71C0
70E0
F8F0
0000
0600
0600
ENDCHAR
STARTCHAR uni1E5B
ENCODING 7771
SWIDTH 444 0
DWIDTH 8 0
BBX 7 12 0 -3
BITMAP
EE
76
70
70
70
70
70
70
F8
00
30
30
ENDCHAR
STARTCHAR uni1E5C
ENCODING 7772
SWIDTH 722 0
DWIDTH 14 0
BBX 12 18 1 -3
BITMAP
3F00
0000
FF00
7380
71C0
71C0
71C0
7380
7F00
7700
7380
71C0
71C0
70E0
F8F0
0000
0600
0600
ENDCHAR
STARTCHAR uni1E5D
ENCODING 7773
SWIDTH 444 0
DWIDTH 8 0
BBX 7 14 0 -3
BITMAP
FC
00
EE
76
70
70
70
70
70
70
F8
00
30
30
ENDCHAR
STARTCHAR uni1E5E
ENCODING 7774
SWIDTH 722 0
DWIDTH 14 0
BBX 12 15 1 -2
BITMAP
FF00
7380
71C0
71C0
71C0
7380
7F00
7700
7380
71C0
71C0
70E0
F8F0
0000
1F80
ENDCHAR
STARTCHAR uni1E5F
ENCODING 7775
SWIDTH 444 0
DWIDTH 8 0
BBX 7 11 0 -2
BITMAP
EE
76
70
70
70
70
70
70
F8
00
FC
ENDCHAR
STARTCHAR uni1E60
ENCODING 7776
SWIDTH 556 0
DWIDTH 11 0
BBX 9 16 1 0
BITMAP
1800
1800
0000
1E80
6380
E180
E000
F800
7C00
3F00
0F80
0780
0380
C380
E700
BC00
ENDCHAR
STARTCHAR uni1E61
ENCODING 7777
SWIDTH 389 0
DWIDTH 7 0
BBX 6 12 0 0
BITMAP
30
30
00
7C
CC
E4
F0
78
3C
9C
CC
F8
ENDCHAR
STARTCHAR uni1E62
ENCODING 7778
SWIDTH 556 0
DWIDTH 11 0
BBX 9 16 1 -3
BITMAP
1E80
6380
E180
E000
F800
7C00
3F00
0F80
0780
0380
C380
E700
BC00
0000
0C00
0C00
ENDCHAR
STARTCHAR uni1E63
ENCODING 7779
SWIDTH 389 0
DWIDTH 7 0
BBX 6 12 0 -3
BITMAP
7C
CC
E4
F0
78
3C
9C
CC
F8
00
30
30
ENDCHAR
STARTCHAR uni1E64
ENCODING 7780
SWIDTH 556 0
DWIDTH 11 0
BBX 9 20 1 0
BITMAP
0C00
0C00
0000
0700
0E00
1800
0000
1E80
6380
E180
E000
F800
7C00
3F00
0F80
0780
0380
C380
E700
BC00
ENDCHAR
STARTCHAR uni1E65
ENCODING 7781
SWIDTH 389 0
DWIDTH 7 0
BBX 7 16 0 0
BITMAP
18
18
00
0E
1C
30
00
7C
CC
E4
F0
78
3C
9C
CC
F8
ENDCHAR
STARTCHAR uni1E66
ENCODING 7782
SWIDTH 556 0
DWIDTH 11 0
BBX 9 20 1 0
BITMAP
0C00
0C00
0000
6600
3C00
1800
0000
1E80
6380
E180
E000
F800
7C00
3F00
0F80
0780
0380
C380
E700
BC00
ENDCHAR
STARTCHAR uni1E67
ENCODING 7783
SWIDTH 389 0
DWIDTH 7 0
BBX 6 16 0 0
BITMAP
30
30
00
CC
78
30
00
7C
CC
E4
F0
78
3C
9C
CC
F8
ENDCHAR
STARTCHAR uni1E68
ENCODING 7784
SWIDTH 556 0
DWIDTH 11 0
BBX 9 19 1 -3
BITMAP
1800
1800
0000
1E80
6380
E180
E000
F800
7C00
3F00
0F80
0780
0380
C380
E700
BC00
0000
0C00
0C00
ENDCHAR
STARTCHAR uni1E69
ENCODING 7785
SWIDTH 389 0
DWIDTH 7 0
BBX 6 15 0 -3
BITMAP
30
30
00
7C
CC
E4
F0
78
3C
9C
CC
F8
00
30
30
ENDCHAR
STARTCHAR uni1E6A
ENCODING 7786
SWIDTH 667 0
DWIDTH 13 0
BBX 11 16 1 0
BITMAP
0600
0600
0000
FFE0
CE60
8E20
0E00
0E00
0E00
0E00
0E00
0E00
0E00
0E00
0E00
1F00
ENDCHAR
STARTCHAR uni1E6B
ENCODING 7787
SWIDTH 333 0
DWIDTH 7 0
BBX 6 14 0 0
BITMAP
30
30
00
10
30
FC
70
70
70
70
70
70
74
38
ENDCHAR
STARTCHAR uni1E6C
ENCODING 7788
SWIDTH 667 0
DWIDTH 13 0
BBX 11 16 1 -3
BITMAP
FFE0
CE60
8E20
0E00
0E00
0E00
0E00
0E00
0E00
0E00
0E00
0E00
1F00
0000
0600
0600
ENDCHAR
STARTCHAR uni1E6D
ENCODING 7789
SWIDTH 333 0
DWIDTH 7 0
BBX 6 14 0 -3
BITMAP
10
30
FC
70
70
70
70
70
70
74
38
00
30
30
ENDCHAR
STARTCHAR uni1E6E
ENCODING 7790
SWIDTH 667 0
DWIDTH 13 0
BBX 11 15 1 -2
BITMAP
FFE0
CE60
8E20
0E00
0E00
0E00
0E00
0E00
0E00
0E00
0E00
0E00
1F00
0000
1F80
ENDCHAR
STARTCHAR uni1E6F
ENCODING 7791
SWIDTH 333 0
DWIDTH 7 0
BBX 6 13 0 -2
BITMAP
10
30
FC
70
70
70
70
70
70
74
38
00
FC
ENDCHAR
STARTCHAR uni1E70
ENCODING 7792
SWIDTH 667 0
DWIDTH 13 0
BBX 11 17 1 -4
BITMAP
FFE0
CE60
8E20
0E00
0E00
0E00
0E00
0E00
0E00
0E00
0E00
0E00
1F00
0000
0600
0F00
1980
ENDCHAR
STARTCHAR uni1E71
ENCODING 7793
SWIDTH 333 0
DWIDTH 7 0
BBX 6 15 0 -4
BITMAP
10
30
FC
70
70
70
70
70
70
74
38
00
30
78
CC
ENDCHAR
STARTCHAR uni1E72
ENCODING 7794
SWIDTH 722 0
DWIDTH 14 0
BBX 12 16 1 -3
BITMAP
F8F0
7020
7020
7020
7020
7020
7020
7020
7020
7020
7060
38C0
1F80
0000
1980
1980
ENDCHAR
STARTCHAR uni1E73
ENCODING 7795
SWIDTH 556 0
DWIDTH 11 0
BBX 10 12 0 -3
BITMAP
F780
7380
7380
7380
7380
7380
7380
7F80
3DC0
0000
3300
3300
ENDCHAR
STARTCHAR uni1E74
ENCODING 7796
SWIDTH 722 0
DWIDTH 14 0
BBX 12 17 1 -4
BITMAP
F8F0
7020
7020
7020
7020
7020
7020
7020
7020
7020
7060
38C0
1F80
0000
0C80
1F80
1300
ENDCHAR
STARTCHAR uni1E75
ENCODING 7797
SWIDTH 556 0
DWIDTH 11 0
BBX 10 13 0 -4
BITMAP
F780
7380
7380
7380
7380
7380
7380
7F80
3DC0
0000
1900
3F00
2600
ENDCHAR
STARTCHAR uni1E76
ENCODING 7798
SWIDTH 722 0
DWIDTH 14 0
BBX 12 17 1 -4
BITMAP
F8F0
7020
7020
7020
7020
7020
7020
7020
7020
7020
7060
38C0
1F80
0000
0600
0F00
1980
ENDCHAR
STARTCHAR uni1E77
ENCODING 7799
SWIDTH 556 0
DWIDTH 11 0
BBX 10 13 0 -4
BITMAP
F780
7380
7380
7380
7380
7380
7380
7F80
3DC0
0000
0C00
1E00
3300
ENDCHAR
STARTCHAR uni1E78
ENCODING 7800
SWIDTH 722 0
DWIDTH 14 0
BBX 12 21 1 0
BITMAP
0380
0700
0C00
0000
1900
3F00
2600
0000
F8F0
7020
7020
7020
7020
7020
7020
7020
7020
7020
7060
38C0
1F80
ENDCHAR
STARTCHAR uni1E79
ENCODING 7801
SWIDTH 556 0
DWIDTH 11 0
BBX 10 17 0 0
BITMAP
0380
0700
0C00
0000
1900
3F00
2600
0000
F780
7380
7380
7380
7380
7380
7380
7F80
3DC0
ENDCHAR
STARTCHAR uni1E7A
ENCODING 7802
SWIDTH 722 0
DWIDTH 14 0
BBX 12 18 1 0
BITMAP
1980
1980
0000
3F00
0000
F8F0
7020
7020
7020
7020
7020
7020
7020
7020
7020
7060
38C0
1F80
ENDCHAR
STARTCHAR uni1E7B
ENCODING 7803
SWIDTH 556 0
DWIDTH 11 0
BBX 10 14 0 0
BITMAP
3300
3300
0000
3F00
0000
F780
7380
7380
7380
7380
7380
7380
7F80
3DC0
ENDCHAR
STARTCHAR uni1E7C
ENCODING 7804
SWIDTH 722 0
DWIDTH 14 0
BBX 14 17 0 0
BITMAP
0640
0FC0
0980
0000
FC7C
7818
3810
3C30
1C20
1E60
1E40
0EC0
0F80
0780
0700
0300
0200
ENDCHAR
STARTCHAR uni1E7D
ENCODING 7805
SWIDTH 500 0
DWIDTH 9 0
BBX 10 13 -1 0
BITMAP
1900
3F00
2600
0000
FBC0
7180
7900
3B00
3B00
1E00
1E00
0C00
0C00
ENDCHAR
STARTCHAR uni1E7E
ENCODING 7806
SWIDTH 722 0
DWIDTH 14 0
BBX 14 16 0 -3
BITMAP
FC7C
7818
3810
3C30
1C20
1E60
1E40
0EC0
0F80
0780
0700
0300
0200
0000
0300
0300
ENDCHAR
STARTCHAR uni1E7F
ENCODING 7807
SWIDTH 500 0
DWIDTH 9 0
BBX 10 12 -1 -3
BITMAP
FBC0
7180
7900
3B00
3B00
1E00
1E00
0C00
0C00
0000
0C00
0C00
ENDCHAR
STARTCHAR Wgrave
ENCODING 7808
SWIDTH 1000 0
DWIDTH 19 0
BBX 18 17 1 0
BITMAP
070000
038000
00C000
000000
FDF7C0
79E180
38E100
3CE300
3CE200
1C7200
1E7600
0E7400
0EBC00
0F3C00
073C00
061800
061800
ENDCHAR
STARTCHAR wgrave
ENCODING 7809
SWIDTH 722 0
DWIDTH 12 0
BBX 14 13 -1 0
BITMAP
1C00
0E00
0300
0000
F79C
7718
7390
3BB0
39A0
1DE0
1FE0
0CC0
0CC0
ENDCHAR
STARTCHAR Wacute
ENCODING 7810
SWIDTH 1000 0
DWIDTH 19 0
BBX 18 17 1 0
BITMAP
007000
00E000
018000
000000
FDF7C0
79E180
38E100
3CE300
3CE200
1C7200
1E7600
0E7400
0EBC00
0F3C00
073C00
061800
061800
ENDCHAR
STARTCHAR wacute
ENCODING 7811
SWIDTH 722 0
DWIDTH 12 0
BBX 14 13 -1 0
BITMAP
01C0
0380
0600
0000
F79C
7718
7390
3BB0
39A0
1DE0
1FE0
0CC0
0CC0
ENDCHAR
STARTCHAR Wdieresis
ENCODING 7812
SWIDTH 1000 0
DWIDTH 19 0
BBX 18 16 1 0
BITMAP
033000
033000
000000
FDF7C0
79E180
38E100
3CE300
3CE200
1C7200
1E7600
0E7400
0EBC00
0F3C00
073C00
061800
061800
ENDCHAR
STARTCHAR wdieresis
ENCODING 7813
SWIDTH 722 0
DWIDTH 12 0
BBX 14 12 -1 0
BITMAP
0CC0
0CC0
0000
F79C
7718
7390
3BB0
39A0
1DE0
1FE0
0CC0
0CC0
ENDCHAR
STARTCHAR uni1E86
ENCODING 7814
SWIDTH 1000 0
DWIDTH 19 0
BBX 18 16 1 0
BITMAP
00C000
00C000
000000
FDF7C0
79E180
38E100
3CE300
3CE200
1C7200
1E7600
0E7400
0EBC00
0F3C00
073C00
061800
061800
ENDCHAR
STARTCHAR uni1E87
ENCODING 7815
SWIDTH 722 0
DWIDTH 12 0
BBX 14 12 -1 0
BITMAP
0300
0300
0000
F79C
7718
7390
3BB0
39A0
1DE0
1FE0
0CC0
0CC0
ENDCHAR
STARTCHAR uni1E88
ENCODING 7816
SWIDTH 1000 0
DWIDTH 19 0
BBX 18 16 1 -3
BITMAP
FDF7C0
79E180
38E100
3CE300
3CE200
1C7200
1E7600
0E7400
0EBC00
0F3C00
073C00
061800
061800
000000
00C000
00C000
ENDCHAR
STARTCHAR uni1E89
ENCODING 7817
SWIDTH 722 0
DWIDTH 12 0
BBX 14 12 -1 -3
BITMAP
F79C
7718
7390
3BB0
39A0
1DE0
1FE0
0CC0
0CC0
0000
0300
0300
ENDCHAR
STARTCHAR uni1E8A
ENCODING 7818
SWIDTH 722 0
DWIDTH 14 0
BBX 14 16 0 0
BITMAP
0600
0600
0000
F878
7830
3C60
1CC0
0F80
0700
0780
07C0
0DC0
18E0
3070
6078
F0FC
ENDCHAR
STARTCHAR uni1E8B
ENCODING 7819
SWIDTH 500 0
DWIDTH 9 0
BBX 9 12 0 0
BITMAP
1800
1800
0000
F380
7300
7A00
3C00
1C00
1E00
3700
6780
E380
ENDCHAR
STARTCHAR uni1E8C
ENCODING 7820
SWIDTH 722 0
DWIDTH 14 0
BBX 14 16 0 0
BITMAP
1980
1980
0000
F878
7830
3C60
1CC0
0F80
0700
0780
07C0
0DC0
18E0
3070
6078
F0FC
ENDCHAR
STARTCHAR uni1E8D
ENCODING 7821
SWIDTH 500 0
DWIDTH 9 0
BBX 9 12 0 0
BITMAP
6600
6600
0000
F380
7300
7A00
3C00
1C00
1E00
3700
6780
E380
ENDCHAR
STARTCHAR uni1E8E
ENCODING 7822
SWIDTH 722 0
DWIDTH 14 0
BBX 13 16 1 0
BITMAP
0600
0600
0000
FC78
7830
3860
3C40
1EC0
0E80
0F80
0700
0700
0700
0700
0700
1FC0
ENDCHAR
STARTCHAR uni1E8F
ENCODING 7823
SWIDTH 500 0
DWIDTH 9 0
BBX 10 16 -1 -4
BITMAP
0C00
0C00
0000
FBC0
7180
7900
3B00
3A00
1E00
1E00
0C00
0C00
0C00
C800
D800
F000
ENDCHAR
STARTCHAR uni1E90
ENCODING 7824
SWIDTH 667 0
DWIDTH 13 0
BBX 10 17 2 0
BITMAP
0C00
1E00
3300
0000
FFC0
C3C0
8380
0780
0F00
0E00
1E00
3C00
3800
7800
F040
E0C0
FFC0
ENDCHAR
STARTCHAR uni1E91
ENCODING 7825
SWIDTH 444 0
DWIDTH 8 0
BBX 7 13 0 0
BITMAP
18
3C
66
00
FE
CE
8E
1C
38
70
72
E6
FE
ENDCHAR
STARTCHAR uni1E92
ENCODING 7826
SWIDTH 667 0
DWIDTH 13 0
BBX 10 16 2 -3
BITMAP
FFC0
C3C0
8380
0780
0F00
0E00
1E00
3C00
3800
7800
F040
E0C0
FFC0
0000
0C00
0C00
ENDCHAR
STARTCHAR uni1E93
ENCODING 7827
SWIDTH 444 0
DWIDTH 8 0
BBX 7 12 0 -3
BITMAP
FE
CE
8E
1C
38
70
72
E6
FE
00
30
30
ENDCHAR
STARTCHAR uni1E94
ENCODING 7828
SWIDTH 667 0
DWIDTH 13 0
BBX 10 15 2 -2
BITMAP
FFC0
C3C0
8380
0780
0F00
0E00
1E00
3C00
3800
7800
F040
E0C0
FFC0
0000
3F00
ENDCHAR
STARTCHAR uni1E95
ENCODING 7829
SWIDTH 444 0
DWIDTH 8 0
BBX 7 11 0 -2
BITMAP
FE
CE
8E
1C
38
70
72
E6
FE
00
FC
ENDCHAR
STARTCHAR uni1E96
ENCODING 7830
SWIDTH 556 0
DWIDTH 11 0
BBX 10 15 0 -2
BITMAP
F000
7000
7000
7000
7700
7F80
7380
7380
7380
7380
7380
7380
FBC0
0000
3F00
ENDCHAR
STARTCHAR uni1E97
ENCODING 7831
SWIDTH 333 0
DWIDTH 7 0
BBX 6 14 0 0
BITMAP
CC
CC
00
10
30
FC
70
70
70
70
70
70
74
38
ENDCHAR
STARTCHAR uni1E98
ENCODING 7832
SWIDTH 722 0
DWIDTH 12 0
BBX 14 14 -1 0
BITMAP
0700
0D80
0D80
0700
0000
F79C
7718
7390
3BB0
39A0
1DE0
1FE0
0CC0
0CC0
ENDCHAR
STARTCHAR uni1E99
ENCODING 7833
SWIDTH 500 0
DWIDTH 9 0
BBX 10 18 -1 -4
BITMAP
1C00
3600
3600
1C00
0000
FBC0
7180
7900
3B00
3A00
1E00
1E00
0C00
0C00
0C00
C800
D800
F000
ENDCHAR
STARTCHAR uni1EA0
ENCODING 7840
SWIDTH 722 0
DWIDTH 14 0
BBX 14 16 0 -3
BITMAP
0300
0380
0780
05C0
0DC0
08C0
18E0
1060
1FF0
3070
2038
6038
F8FC
0000
0300
0300
ENDCHAR
STARTCHAR uni1EA1
ENCODING 7841
SWIDTH 500 0
DWIDTH 9 0
BBX 8 12 0 -3
BITMAP
7C
CE
CE
1E
6E
CE
CE
FE
77
00
18
18
ENDCHAR
STARTCHAR uni1EA4
ENCODING 7844
SWIDTH 722 0
DWIDTH 14 0
BBX 14 21 0 0
BITMAP
00E0
01C0
0300
0000
0300
0780
0CC0
0000
0300
0380
0780
05C0
0DC0
08C0
18E0
1060
1FF0
3070
2038
6038
F8FC
ENDCHAR
STARTCHAR uni1EA5
ENCODING 7845
SWIDTH 500 0
DWIDTH 9 0
BBX 8 17 0 0
BITMAP
07
0E
18
00
18
3C
66
00
7C
CE
CE
1E
6E
CE
CE
FE
77
ENDCHAR
STARTCHAR uni1EA6
ENCODING 7846
SWIDTH 722 0
DWIDTH 14 0
BBX 14 21 0 0
BITMAP
0E00
0700
0180
0000
0300
0780
0CC0
0000
0300
0380
0780
05C0
0DC0
08C0
18E0
1060
1FF0
3070
2038
6038
F8FC
ENDCHAR
STARTCHAR uni1EA7
ENCODING 7847
SWIDTH 500 0
DWIDTH 9 0
BBX 8 17 0 0
BITMAP
70
38
0C
00
18
3C
66
00
7C
CE
CE
1E
6E
CE
CE
FE
77
ENDCHAR
STARTCHAR uni1EAA
ENCODING 7850
SWIDTH 722 0
DWIDTH 14 0
BBX 14 21 0 0
BITMAP
0640
0FC0
0980
0000
0300
0780
0CC0
0000
0300
0380
0780
05C0
0DC0
08C0
18E0
1060
1FF0
3070
2038
6038
F8FC
ENDCHAR
STARTCHAR uni1EAB
ENCODING 7851
SWIDTH 500 0
DWIDTH 9 0
BBX 8 17 0 0
BITMAP
32
7E
4C
00
18
3C
66
00
7C
CE
CE
1E
6E
CE
CE
FE
77
ENDCHAR
STARTCHAR uni1EAC
ENCODING 7852
SWIDTH 722 0
DWIDTH 14 0
BBX 14 20 0 -3
BITMAP
0300
0780
0CC0
0000
0300
0380
0780
05C0
0DC0
08C0
18E0
1060
1FF0
3070
2038
6038
F8FC
0000
0300
0300
ENDCHAR
STARTCHAR uni1EAD
ENCODING 7853
SWIDTH 500 0
DWIDTH 9 0
BBX 8 16 0 -3
BITMAP
18
3C
66
00
7C
CE
CE
1E
6E
CE
CE
FE
77
00
18
18
ENDCHAR
STARTCHAR uni1EAE
ENCODING 7854
SWIDTH 722 0
DWIDTH 14 0
BBX 14 21 0 0
BITMAP
00E0
01C0
0300
0000
0440
07C0
0380
0000
0300
0380
0780
05C0
0DC0
08C0
18E0
1060
1FF0
3070
2038
6038
F8FC
ENDCHAR
STARTCHAR uni1EAF
ENCODING 7855
SWIDTH 500 0
DWIDTH 9 0
BBX 8 17 0 0
BITMAP
0E
1C
30
00
44
7C
38
00
7C
CE
CE
1E
6E
CE
CE
FE
77
ENDCHAR
STARTCHAR uni1EB0
ENCODING 7856
SWIDTH 722 0
DWIDTH 14 0
BBX 14 21 0 0
BITMAP
0E00
0700
0180
0000
0440
07C0
0380
0000
0300
0380
0780
05C0
0DC0
08C0
18E0
1060
1FF0
3070
2038
6038
F8FC
ENDCHAR
STARTCHAR uni1EB1
ENCODING 7857
SWIDTH 500 0
DWIDTH 9 0
BBX 8 17 0 0
BITMAP
E0
70
18
00
44
7C
38
00
7C
CE
CE
1E
6E
CE
CE
FE
77
ENDCHAR
STARTCHAR uni1EB4
ENCODING 7860
SWIDTH 722 0
DWIDTH 14 0
BBX 14 21 0 0
BITMAP
0640
0FC0
0980
0000
0440
07C0
0380
0000
0300
0380
0780
05C0
0DC0
08C0
18E0
1060
1FF0
3070
2038
6038
F8FC
ENDCHAR
STARTCHAR uni1EB5
ENCODING 7861
SWIDTH 500 0
DWIDTH 9 0
BBX 8 17 0 0
BITMAP
32
7E
4C
00
44
7C
38
00
7C
CE
CE
1E
6E
CE
CE
FE
77
ENDCHAR
STARTCHAR uni1EB6
ENCODING 7862
SWIDTH 722 0
DWIDTH 14 0
BBX 14 20 0 -3
BITMAP
0440
07C0
0380
0000
0300
0380
0780
05C0
0DC0
08C0
18E0
1060
1FF0
3070
2038
6038
F8FC
0000
0300
0300
ENDCHAR
STARTCHAR uni1EB7
ENCODING 7863
SWIDTH 500 0
DWIDTH 9 0
BBX 8 16 0 -3
BITMAP
44
7C
38
00
7C
CE
CE
1E
6E
CE
CE
FE
77
00
18
18
ENDCHAR
STARTCHAR uni1EB8
ENCODING 7864
SWIDTH 667 0
DWIDTH 13 0
BBX 10 16 2 -3
BITMAP
FFC0
70C0
7040
7000
7000
7100
7F00
7100
7000
7000
7040
70C0
FFC0
0000
0C00
0C00
ENDCHAR
STARTCHAR uni1EB9
ENCODING 7865
SWIDTH 444 0
DWIDTH 8 0
BBX 7 12 0 -3
BITMAP
3C
76
E6
FE
E0
E0
E0
76
3C
00
30
30
ENDCHAR
STARTCHAR uni1EBC
ENCODING 7868
SWIDTH 667 0
DWIDTH 13 0
BBX 10 17 2 0
BITMAP
1900
3F00
2600
0000
FFC0
70C0
7040
7000
7000
7100
7F00
7100
7000
7000
7040
70C0
FFC0
ENDCHAR
STARTCHAR uni1EBD
ENCODING 7869
SWIDTH 444 0
DWIDTH 8 0
BBX 7 13 0 0
BITMAP
32
7E
4C
00
3C
76
E6
FE
E0
E0
E0
76
3C
ENDCHAR
STARTCHAR uni1EBE
ENCODING 7870
SWIDTH 667 0
DWIDTH 13 0
BBX 10 21 2 0
BITMAP
0380
0700
0C00
0000
0C00
1E00
3300
0000
FFC0
70C0
7040
7000
7000
7100
7F00
7100
7000
7000
7040
70C0
FFC0
ENDCHAR
STARTCHAR uni1EBF
ENCODING 7871
SWIDTH 444 0
DWIDTH 8 0
BBX 7 17 0 0
BITMAP
0E
1C
30
00
18
3C
66
00
3C
76
E6
FE
E0
E0
E0
76
3C
ENDCHAR
STARTCHAR uni1EC0
ENCODING 7872
SWIDTH 667 0
DWIDTH 13 0
BBX 10 21 2 0
BITMAP
3800
1C00
0600
0000
0C00
1E00
3300
0000
FFC0
70C0
7040
7000
7000
7100
7F00
7100
7000
7000
7040
70C0
FFC0
ENDCHAR
STARTCHAR uni1EC1
ENCODING 7873
SWIDTH 444 0
DWIDTH 8 0
BBX 7 17 0 0
BITMAP
E0
70
18
00
18
3C
66
00
3C
76
E6
FE
E0
E0
E0
76
3C
ENDCHAR
STARTCHAR uni1EC4
ENCODING 7876
SWIDTH 667 0
DWIDTH 13 0
BBX 10 21 2 0
BITMAP
1900
3F00
2600
0000
0C00
1E00
3300
0000
FFC0
70C0
7040
7000
7000
7100
7F00
7100
7000
7000
7040
70C0
FFC0
ENDCHAR
STARTCHAR uni1EC5
ENCODING 7877
SWIDTH 444 0
DWIDTH 8 0
BBX 7 17 0 0
BITMAP
32
7E
4C
00
18
3C
66
00
3C
76
E6
FE
E0
E0
E0
76
3C
ENDCHAR
STARTCHAR uni1EC6
ENCODING 7878
SWIDTH 667 0
DWIDTH 13 0
BBX 10 20 2 -3
BITMAP
0C00
1E00
3300
0000
FFC0
70C0
7040
7000
7000
7100
7F00
7100
7000
7000
7040
70C0
FFC0
0000
0C00
0C00
ENDCHAR
STARTCHAR uni1EC7
ENCODING 7879
SWIDTH 444 0
DWIDTH 8 0
BBX 7 16 0 -3
BITMAP
18
3C
66
00
3C
76
E6
FE
E0
E0
E0
76
3C
00
30
30
ENDCHAR
STARTCHAR uni1ECA
ENCODING 7882
SWIDTH 389 0
DWIDTH 7 0
BBX 5 16 1 -3
BITMAP
F8
70
70
70
70
70
70
70
70
70
70
70
F8
00
30
30
ENDCHAR
STARTCHAR uni1ECB
ENCODING 7883
SWIDTH 278 0
DWIDTH 5 0
BBX 5 16 0 -3
BITMAP
60
60
60
00
F0
70
70
70
70
70
70
70
F8
00
30
30
ENDCHAR
STARTCHAR uni1ECC
ENCODING 7884
SWIDTH 778 0
DWIDTH 15 0
BBX 13 16 1 -3
BITMAP
0F80
38E0
7070
7070
E038
E038
E038
E038
E038
7070
7070
38E0
0F80
0000
0300
0300
ENDCHAR
STARTCHAR uni1ECD
ENCODING 7885
SWIDTH 500 0
DWIDTH 9 0
BBX 8 12 0 -3
BITMAP
3C
66
E7
E7
E7
E7
E7
66
3C
00
18
18
ENDCHAR
STARTCHAR uni1ED0
ENCODING 7888
SWIDTH 778 0
DWIDTH 15 0
BBX 13 21 1 0
BITMAP
01C0
0380
0600
0000
0600
0F00
1980
0000
0F80
38E0
7070
7070
E038
E038
E038
E038
E038
7070
7070
38E0
0F80
ENDCHAR
STARTCHAR uni1ED1
ENCODING 7889
SWIDTH 500 0
DWIDTH 9 0
BBX 8 17 0 0
BITMAP
07
0E
18
00
18
3C
66
00
3C
66
E7
E7
E7
E7
E7
66
3C
ENDCHAR
STARTCHAR uni1ED2
ENCODING 7890
SWIDTH 778 0
DWIDTH 15 0
BBX 13 21 1 0
BITMAP
1C00
0E00
0300
0000
0600
0F00
1980
0000
0F80
38E0
7070
7070
E038
E038
E038
E038
E038
7070
7070
38E0
0F80
ENDCHAR
STARTCHAR uni1ED3
ENCODING 7891
SWIDTH 500 0
DWIDTH 9 0
BBX 8 17 0 0
BITMAP
70
38
0C
00
18
3C
66
00
3C
66
E7
E7
E7
E7
E7
66
3C
ENDCHAR
STARTCHAR uni1ED6
ENCODING 7894
SWIDTH 778 0
DWIDTH 15 0
BBX 13 21 1 0
BITMAP
0C80
1F80
1300
0000
0600
0F00
1980
0000
0F80
38E0
7070
7070
E038
E038
E038
E038
E038
7070
7070
38E0
0F80
ENDCHAR
STARTCHAR uni1ED7
ENCODING 7895
SWIDTH 500 0
DWIDTH 9 0
BBX 8 17 0 0
BITMAP
32
7E
4C
00
18
3C
66
00
3C
66
E7
E7
E7
E7
E7
66
3C
ENDCHAR
STARTCHAR uni1ED8
ENCODING 7896
SWIDTH 778 0
DWIDTH 15 0
BBX 13 20 1 -3
BITMAP
0300
0780
0CC0
0000
0F80
38E0
7070
7070
E038
E038
E038
E038
E038
7070
7070
38E0
0F80
0000
0300
0300
ENDCHAR
STARTCHAR uni1ED9
ENCODING 7897
SWIDTH 500 0
DWIDTH 9 0
BBX 8 16 0 -3
BITMAP
18
3C
66
00
3C
66
E7
E7
E7
E7
E7
66
3C
00
18
18
ENDCHAR
STARTCHAR uni1EDA
ENCODING 7898
SWIDTH 778 0
DWIDTH 15 0
BBX 16 17 1 0
BITMAP
0070
00E0
0180
0000
0F87
38E7
7077
7073
E03E
E03C
E038
E038
E038
7070
7070
38E0
0F80
ENDCHAR
STARTCHAR uni1EDB
ENCODING 7899
SWIDTH 500 0
DWIDTH 9 0
BBX 12 13 0 0
BITMAP
01C0
0380
0600
0000
3C70
6670
E770
E730
E760
E7C0
E700
6600
3C00
ENDCHAR
STARTCHAR uni1EDC
ENCODING 7900
SWIDTH 778 0
DWIDTH 15 0
BBX 16 17 1 0
BITMAP
0700
0380
00C0
0000
0F87
38E7
7077
7073
E03E
E03C
E038
E038
E038
7070
7070
38E0
0F80
ENDCHAR
STARTCHAR uni1EDD
ENCODING 7901
SWIDTH 500 0
DWIDTH 9 0
BBX 12 13 0 0
BITMAP
1C00
0E00
0300
0000
3C70
6670
E770
E730
E760
E7C0
E700
6600
3C00
ENDCHAR
STARTCHAR uni1EE0
ENCODING 7904
SWIDTH 778 0
DWIDTH 15 0
BBX 16 17 1 0
BITMAP
0190
03F0
0260
0000
0F87
38E7
7077
7073
E03E
E03C
E038
E038
E038
7070
7070
38E0
0F80
ENDCHAR
STARTCHAR uni1EE1
ENCODING 7905
SWIDTH 500 0
DWIDTH 9 0
BBX 12 13 0 0
BITMAP
0C80
1F80
1300
0000
3C70
6670
E770
E730
E760
E7C0
E700
6600
3C00
ENDCHAR
STARTCHAR uni1EE2
ENCODING 7906
SWIDTH 778 0
DWIDTH 15 0
BBX 16 16 1 -3
BITMAP
0F87
38E7
7077
7073
E03E
E03C
E038
E038
E038
7070
7070
38E0
0F80
0000
0300
0300
ENDCHAR
STARTCHAR uni1EE3
ENCODING 7907
SWIDTH 500 0
DWIDTH 9 0
BBX 12 12 0 -3
BITMAP
3C70
6670
E770
E730
E760
E7C0
E700
6600
3C00
0000
0C00
0C00
ENDCHAR
STARTCHAR uni1EE4
ENCODING 7908
SWIDTH 722 0
DWIDTH 14 0
BBX 12 16 1 -3
BITMAP
F8F0
7020
7020
7020
7020
7020
7020
7020
7020
7020
7060
38C0
1F80
0000
0600
0600
ENDCHAR
STARTCHAR uni1EE5
ENCODING 7909
SWIDTH 556 0
DWIDTH 11 0
BBX 10 12 0 -3
BITMAP
F780
7380
7380
7380
7380
7380
7380
7F80
3DC0
0000
0C00
0C00
ENDCHAR
STARTCHAR uni1EE8
ENCODING 7912
SWIDTH 722 0
DWIDTH 14 0
BBX 15 17 1 0
BITMAP
00E0
01C0
0300
0000
F8FE
702E
702E
7026
702C
7038
7020
7020
7020
7020
7060
38C0
1F80
ENDCHAR
STARTCHAR uni1EE9
ENCODING 7913
SWIDTH 556 0
DWIDTH 11 0
BBX 13 13 0 0
BITMAP
01C0
0380
0600
0000
F7B8
73B8
73B8
7398
73B0
73E0
7380
7F80
3DC0
ENDCHAR
STARTCHAR uni1EEA
ENCODING 7914
SWIDTH 722 0
DWIDTH 14 0
BBX 15 17 1 0
BITMAP
0E00
0700
0180
0000
F8FE
702E
702E
7026
702C
7038
7020
7020
7020
7020
7060
38C0
1F80
ENDCHAR
STARTCHAR uni1EEB
ENCODING 7915
SWIDTH 556 0
DWIDTH 11 0
BBX 13 13 0 0
BITMAP
1C00
0E00
0300
0000
F7B8
73B8
73B8
7398
73B0
73E0
7380
7F80
3DC0
ENDCHAR
STARTCHAR uni1EEE
ENCODING 7918
SWIDTH 722 0
DWIDTH 14 0
BBX 15 17 1 0
BITMAP
0320
07E0
04C0
0000
F8FE
702E
702E
7026
702C
7038
7020
7020
7020
7020
7060
38C0
1F80
ENDCHAR
STARTCHAR uni1EEF
ENCODING 7919
SWIDTH 556 0
DWIDTH 11 0
BBX 13 13 0 0
BITMAP
0640
0FC0
0980
0000
F7B8
73B8
73B8
7398
73B0
73E0
7380
7F80
3DC0
ENDCHAR
STARTCHAR uni1EF0
ENCODING 7920
SWIDTH 722 0
DWIDTH 14 0
BBX 15 16 1 -3
BITMAP
F8FE
702E
702E
7026
702C
7038
7020
7020
7020
7020
7060
38C0
1F80
0000
0600
0600
ENDCHAR
STARTCHAR uni1EF1
ENCODING 7921
SWIDTH 556 0
DWIDTH 11 0
BBX 13 12 0 -3
BITMAP
F7B8
73B8
73B8
7398
73B0
73E0
7380
7F80
3DC0
0000
0600
0600
ENDCHAR
STARTCHAR Ygrave
ENCODING 7922
SWIDTH 722 0
DWIDTH 14 0
BBX 13 17 1 0
BITMAP
1C00
0E00
0300
0000
FC78
7830
3860
3C40
1EC0
0E80
0F80
0700
0700
0700
0700
0700
1FC0
ENDCHAR
STARTCHAR ygrave
ENCODING 7923
SWIDTH 500 0
DWIDTH 9 0
BBX 10 17 -1 -4
BITMAP
7000
3800
0C00
0000
FBC0
7180
7900
3B00
3A00
1E00
1E00
0C00
0C00
0C00
C800
D800
F000
ENDCHAR
STARTCHAR uni1EF4
ENCODING 7924
SWIDTH 722 0
DWIDTH 14 0
BBX 13 16 1 -3
BITMAP
FC78
7830
3860
3C40
1EC0
0E80
0F80
0700
0700
0700
0700
0700
1FC0
0000
0300
0300
ENDCHAR
STARTCHAR uni1EF5
ENCODING 7925
SWIDTH 500 0
DWIDTH 9 0
BBX 10 16 -1 -7
BITMAP
FBC0
7180
7900
3B00
3A00
1E00
1E00
0C00
0C00
0C00
C800
D800
F000
0000
3000
3000
ENDCHAR
STARTCHAR uni1EF8
ENCODING 7928
SWIDTH 722 0
DWIDTH 14 0
BBX 13 17 1 0
BITMAP
0C80
1F80
1300
0000
FC78
7830
3860
3C40
1EC0
0E80
0F80
0700
0700
0700
0700
0700
1FC0
ENDCHAR
STARTCHAR uni1EF9
ENCODING 7929
SWIDTH 500 0
DWIDTH 9 0
BBX 10 17 -1 -4
BITMAP
1900
3F00
2600
0000
FBC0
7180
7900
3B00
3A00
1E00
1E00
0C00
0C00
0C00
C800
D800
F000
ENDCHAR
STARTCHAR uni2000
ENCODING 8192
SWIDTH 500 0
DWIDTH 10 0
BBX 1 1 0 0
BITMAP
00
ENDCHAR
STARTCHAR uni2001
ENCODING 8193
SWIDTH 1000 0
DWIDTH 19 0
BBX 1 1 0 0
BITMAP
00
ENDCHAR
STARTCHAR uni2002
ENCODING 8194
SWIDTH 500 0
DWIDTH 10 0
BBX 1 1 0 0
BITMAP
00
ENDCHAR
STARTCHAR uni2003
ENCODING 8195
SWIDTH 1000 0
DWIDTH 19 0
BBX 1 1 0 0
BITMAP
00
ENDCHAR
STARTCHAR uni2004
ENCODING 8196
SWIDTH 333 0
DWIDTH 6 0
BBX 1 1 0 0
BITMAP
00
ENDCHAR
STARTCHAR uni2005
ENCODING 8197
SWIDTH 250 0
DWIDTH 5 0
BBX 1 1 0 0
BITMAP
00
ENDCHAR
STARTCHAR uni2006
ENCODING 8198
SWIDTH 167 0
DWIDTH 3 0
BBX 1 1 0 0
BITMAP
00
ENDCHAR
STARTCHAR uni2007
ENCODING 8199
SWIDTH 500 0
DWIDTH 9 0
BBX 1 1 0 0
BITMAP
00
ENDCHAR
STARTCHAR uni2008
ENCODING 8200
SWIDTH 250 0
DWIDTH 5 0
BBX 1 1 0 0
BITMAP
00
ENDCHAR
STARTCHAR uni2009
ENCODING 8201
SWIDTH 200 0
DWIDTH 4 0
BBX 1 1 0 0
BITMAP
00
ENDCHAR
STARTCHAR uni200A
ENCODING 8202
SWIDTH 100 0
DWIDTH 2 0
BBX 1 1 0 0
BITMAP
00
ENDCHAR
STARTCHAR uni200B
ENCODING 8203
SWIDTH 0 0
DWIDTH 0 0
BBX 1 1 0 0
BITMAP
00
ENDCHAR
STARTCHAR uni2010
ENCODING 8208
SWIDTH 333 0
DWIDTH 6 0
BBX 5 3 0 4
BITMAP
F8
F8
F8
ENDCHAR
STARTCHAR uni2011
ENCODING 8209
SWIDTH 333 0
DWIDTH 6 0
BBX 5 3 0 4
BITMAP
F8
F8
F8
ENDCHAR
STARTCHAR figuredash
ENCODING 8210
SWIDTH 500 0
DWIDTH 9 0
BBX 9 2 0 4
BITMAP
FF80
FF80
ENDCHAR
STARTCHAR endash
ENCODING 8211
SWIDTH 500 0
DWIDTH 9 0
BBX 9 2 0 4
BITMAP
FF80
FF80
ENDCHAR
STARTCHAR emdash
ENCODING 8212
SWIDTH 1000 0
DWIDTH 19 0
BBX 19 2 0 4
BITMAP
FFFFE0
FFFFE0
ENDCHAR
STARTCHAR afii00208
ENCODING 8213
SWIDTH 1000 0
DWIDTH 19 0
BBX 19 2 0 4
BITMAP
FFFFE0
FFFFE0
ENDCHAR
STARTCHAR quoteleft
ENCODING 8216
SWIDTH 333 0
DWIDTH 6 0
BBX 4 6 1 7
BITMAP
30
60
C0
E0
E0
E0
ENDCHAR
STARTCHAR quoteright
ENCODING 8217
SWIDTH 333 0
DWIDTH 6 0
BBX 4 6 1 7
BITMAP
70
70
70
30
60
C0
ENDCHAR
STARTCHAR quotesinglbase
ENCODING 8218
SWIDTH 333 0
DWIDTH 6 0
BBX 4 6 1 -3
BITMAP
70
70
70
30
60
C0
ENDCHAR
STARTCHAR quotereversed
ENCODING 8219
SWIDTH 333 0
DWIDTH 6 0
BBX 4 6 1 7
BITMAP
E0
E0
E0
C0
60
30
ENDCHAR
STARTCHAR quotedblleft
ENCODING 8220
SWIDTH 500 0
DWIDTH 9 0
BBX 8 6 1 7
BITMAP
33
66
CC
EE
EE
EE
ENDCHAR
STARTCHAR quotedblright
ENCODING 8221
SWIDTH 500 0
DWIDTH 9 0
BBX 8 6 0 7
BITMAP
77
77
77
33
66
CC
ENDCHAR
STARTCHAR quotedblbase
ENCODING 8222
SWIDTH 500 0
DWIDTH 9 0
BBX 8 6 0 -3
BITMAP
77
77
77
33
66
CC
ENDCHAR
STARTCHAR uni201F
ENCODING 8223
SWIDTH 500 0
DWIDTH 9 0
BBX 8 6 0 7
BITMAP
EE
EE
EE
CC
66
33
ENDCHAR
STARTCHAR dagger
ENCODING 8224
SWIDTH 500 0
DWIDTH 9 0
BBX 9 16 0 -3
BITMAP
0800
1C00
1C00
0800
6B00
FF80
6B00
0800
1C00
1C00
1C00
0800
0800
0800
0800
0800
ENDCHAR
STARTCHAR daggerdbl
ENCODING 8225
SWIDTH 500 0
DWIDTH 11 0
BBX 11 16 0 -3
BITMAP
0400
0E00
0E00
0400
64C0
FFE0
64C0
0E00
0E00
0E00
64C0
FFE0
64C0
0E00
0E00
0400
ENDCHAR
STARTCHAR bullet
ENCODING 8226
SWIDTH 350 0
DWIDTH 7 0
BBX 5 5 1 3
BITMAP
70
F8
F8
F8
70
ENDCHAR
STARTCHAR ellipsis
ENCODING 8230
SWIDTH 1000 0
DWIDTH 18 0
BBX 15 3 2 0
BITMAP
E38E
E38E
E38E
ENDCHAR
STARTCHAR perthousand
ENCODING 8240
SWIDTH 1000 0
DWIDTH 20 0
BBX 19 13 0 0
BITMAP
383000
6FE000
C4C000
C48000
E98000
7B0000
060000
0CE1C0
0DB360
1B1620
331620
63A740
61E3C0
ENDCHAR
STARTCHAR guilsinglleft
ENCODING 8249
SWIDTH 333 0
DWIDTH 7 0
BBX 5 7 1 1
BITMAP
18
30
60
C0
60
30
18
ENDCHAR
STARTCHAR guilsinglright
ENCODING 8250
SWIDTH 333 0
DWIDTH 7 0
BBX 5 7 1 1
BITMAP
C0
60
30
18
30
60
C0
ENDCHAR
STARTCHAR fraction
ENCODING 8260
SWIDTH 167 0
DWIDTH 6 0
BBX 8 13 -1 0
BITMAP
03
03
06
06
0C
0C
18
18
30
30
60
60
C0
ENDCHAR
STARTCHAR oneinferior
ENCODING 8321
SWIDTH 300 0
DWIDTH 5 0
BBX 6 8 0 -4
BITMAP
30
F0
30
30
30
30
30
FC
ENDCHAR
STARTCHAR twoinferior
ENCODING 8322
SWIDTH 300 0
DWIDTH 5 0
BBX 5 8 0 -4
BITMAP
70
98
18
30
20
40
F8
F0
ENDCHAR
STARTCHAR threeinferior
ENCODING 8323
SWIDTH 300 0
DWIDTH 5 0
BBX 5 8 0 -4
BITMAP
70
98
18
70
38
18
98
70
ENDCHAR
STARTCHAR uni20A5
ENCODING 8357
SWIDTH 833 0
DWIDTH 16 0
BBX 15 13 0 -2
BITMAP
00C0
00C0
F7F8
7BDC
739C
739C
739C
739C
739C
739C
FFDE
0600
0600
ENDCHAR
STARTCHAR uni20A6
ENCODING 8358
SWIDTH 722 0
DWIDTH 14 0
BBX 12 13 1 0
BITMAP
F070
7820
7820
7FE0
7FE0
4E20
4F20
7FE0
7FE0
43E0
41E0
40E0
E0E0
ENDCHAR
STARTCHAR uni20A9
ENCODING 8361
SWIDTH 1000 0
DWIDTH 19 0
BBX 18 13 1 0
BITMAP
FDF7C0
79E180
38E100
3FFF00
3FFE00
1C7200
1E7600
0FFC00
0FFC00
0F3C00
073C00
061800
061800
ENDCHAR
STARTCHAR Euro
ENCODING 8364
SWIDTH 722 0
DWIDTH 14 0
BBX 14 13 -1 0
BITMAP
03E4
0E3C
1C1C
FF8C
FF80
3800
3800
FF80
FF80
1C00
1C0C
0F38
03E0
ENDCHAR
STARTCHAR uni20AD
ENCODING 8365
SWIDTH 778 0
DWIDTH 15 0
BBX 12 13 2 0
BITMAP
F9F0
70C0
7180
7300
7600
FFF0
FFF0
7E00
7700
7780
73C0
71E0
F8F0
ENDCHAR
STARTCHAR uni2103
ENCODING 8451
SWIDTH 1102 0
DWIDTH 21 0
BBX 20 13 0 0
BITMAP
780F90
CC38F0
CC7070
CC7030
78E000
00E000
00E000
00E000
00E000
007000
007030
003CE0
000F80
ENDCHAR
STARTCHAR uni2109
ENCODING 8457
SWIDTH 991 0
DWIDTH 19 0
BBX 19 13 0 0
BITMAP
787FE0
CC3860
CC3820
CC3800
783800
003880
003F80
003880
003800
003800
003800
003800
007C00
ENDCHAR
STARTCHAR trademark
ENCODING 8482
SWIDTH 1000 0
DWIDTH 19 0
BBX 17 7 1 5
BITMAP
FEC180
926300
106300
105500
105D00
104900
38C980
ENDCHAR
STARTCHAR uni212A
ENCODING 8490
SWIDTH 778 0
DWIDTH 15 0
BBX 12 13 2 0
BITMAP
F9F0
70C0
7180
7300
7600
7C00
7C00
7E00
7700
7780
73C0
71E0
F8F0
ENDCHAR
STARTCHAR uni212B
ENCODING 8491
SWIDTH 722 0
DWIDTH 14 0
BBX 14 17 0 0
BITMAP
0700
0D80
0D80
0700
0300
0380
0780
05C0
0DC0
08C0
18E0
1060
1FF0
3070
2038
6038
F8FC
ENDCHAR
STARTCHAR uni2132
ENCODING 8498
SWIDTH 611 0
DWIDTH 12 0
BBX 10 13 2 0
BITMAP
07C0
0380
0380
0380
0380
2380
3F80
2380
0380
0380
8380
C380
FFC0
ENDCHAR
STARTCHAR universal
ENCODING 8704
SWIDTH 722 0
DWIDTH 14 0
BBX 14 13 0 0
BITMAP
F8FC
6038
2038
3070
1FF0
1060
18E0
08C0
0DC0
05C0
0780
0380
0300
ENDCHAR
STARTCHAR existential
ENCODING 8707
SWIDTH 667 0
DWIDTH 13 0
BBX 10 13 2 0
BITMAP
FFC0
C380
8380
0380
0380
2380
3F80
2380
0380
0380
8380
C380
FFC0
ENDCHAR
STARTCHAR uni2204
ENCODING 8708
SWIDTH 667 0
DWIDTH 13 0
BBX 10 13 2 0
BITMAP
FFC0
C380
8380
0780
0780
2780
3F80
2F80
0F80
0F80
9B80
DB80
FFC0
ENDCHAR
STARTCHAR minus
ENCODING 8722
SWIDTH 570 0
DWIDTH 11 0
BBX 9 2 1 4
BITMAP
FF80
FF80
ENDCHAR
STARTCHAR fraction
ENCODING 8725
SWIDTH 167 0
DWIDTH 6 0
BBX 8 13 -1 0
BITMAP
03
03
06
06
0C
0C
18
18
30
30
60
60
C0
ENDCHAR
STARTCHAR periodcentered
ENCODING 8729
SWIDTH 250 0
DWIDTH 5 0
BBX 3 3 1 4
BITMAP
E0
E0
E0
ENDCHAR
STARTCHAR uni2236
ENCODING 8758
SWIDTH 333 0
DWIDTH 5 0
BBX 3 9 1 0
BITMAP
E0
E0
E0
00
00
00
E0
E0
E0
ENDCHAR
STARTCHAR uni2259
ENCODING 8793
SWIDTH 570 0
DWIDTH 11 0
BBX 9 10 1 2
BITMAP
0C00
1E00
3300
0000
FF80
FF80
0000
0000
FF80
FF80
ENDCHAR
STARTCHAR uni225A
ENCODING 8794
SWIDTH 570 0
DWIDTH 11 0
BBX 9 10 1 2
BITMAP
3300
1E00
0C00
0000
FF80
FF80
0000
0000
FF80
FF80
ENDCHAR
STARTCHAR notequal
ENCODING 8800
SWIDTH 570 0
DWIDTH 11 0
BBX 9 13 1 -1
BITMAP
0600
0600
0600
0C00
FF80
FF80
0800
1800
FF80
FF80
3000
3000
3000
ENDCHAR
STARTCHAR equivalence
ENCODING 8801
SWIDTH 570 0
DWIDTH 11 0
BBX 9 8 0 1
BITMAP
FF80
FF80
0000
FF80
FF80
0000
FF80
FF80
ENDCHAR
STARTCHAR uni2262
ENCODING 8802
SWIDTH 570 0
DWIDTH 11 0
BBX 9 13 0 -1
BITMAP
0600
0600
0600
FF80
FF80
0C00
FF80
FF80
1800
FF80
FF80
3000
3000
ENDCHAR
STARTCHAR lessequal
ENCODING 8804
SWIDTH 570 0
DWIDTH 11 0
BBX 9 12 1 -3
BITMAP
0380
0F00
3C00
F000
C000
F000
3C00
0F00
0380
0000
FF80
FF80
ENDCHAR
STARTCHAR greaterequal
ENCODING 8805
SWIDTH 570 0
DWIDTH 11 0
BBX 9 12 1 -3
BITMAP
E000
7800
1E00
0780
0180
0780
1E00
7800
E000
0000
FF80
FF80
ENDCHAR
STARTCHAR uni226E
ENCODING 8814
SWIDTH 570 0
DWIDTH 11 0
BBX 9 13 1 -2
BITMAP
0600
0600
0780
0F00
3C00
FC00
C800
F800
3C00
1F00
3380
3000
3000
ENDCHAR
STARTCHAR uni226F
ENCODING 8815
SWIDTH 570 0
DWIDTH 11 0
BBX 9 13 1 -2
BITMAP
0600
0600
E600
7C00
1E00
0F80
0980
1F80
1E00
7800
F000
3000
3000
ENDCHAR
STARTCHAR uni2270
ENCODING 8816
SWIDTH 570 0
DWIDTH 11 0
BBX 9 13 1 -3
BITMAP
0600
0780
0F00
3C00
FC00
CC00
F800
3C00
1F00
1B80
3000
FF80
FF80
ENDCHAR
STARTCHAR uni2271
ENCODING 8817
SWIDTH 570 0
DWIDTH 11 0
BBX 9 13 1 -3
BITMAP
0600
E600
7E00
1E00
0F80
0D80
0F80
1E00
7800
F800
3000
FF80
FF80
ENDCHAR
STARTCHAR fi
ENCODING -1
SWIDTH 556 0
DWIDTH 10 0
BBX 10 13 0 0
BITMAP
0F00
3F80
7380
7000
FF80
7380
7380
7380
7380
7380
7380
7380
FFC0
ENDCHAR
STARTCHAR fl
ENCODING -1
SWIDTH 556 0
DWIDTH 10 0
BBX 10 13 0 0
BITMAP
0F00
3F80
7380
7380
FF80
7380
7380
7380
7380
7380
7380
7380
FFC0
ENDCHAR
ENDFONT
